<svg width="197" height="55" viewBox="0 0 197 55" fill="none" xmlns="http://www.w3.org/2000/svg">
<path d="M193.351 23.8488L161.646 23.8488C160.531 19.9246 157.693 16.6477 153.74 15.0901L152.666 14.6653C149.28 13.31 146.503 10.7613 144.861 7.50461L142.53 2.83193C141.902 1.59802 140.645 0.809129 139.266 0.809129L125.705 0.80913C124.204 0.80913 122.846 1.73962 122.299 3.13536C122.258 3.25672 117.292 15.6363 109.224 12.5818C107.703 11.9952 106.244 11.3884 104.764 10.7815C96.189 7.18096 87.3302 3.45901 70.4845 7.2821C61.9704 9.20377 54.9159 10.3568 48.287 10.9231C40.746 11.5704 29.8398 9.83084 24.63 5.78523L21.3663 3.25673C20.2919 1.31484 18.2039 0.0202488 15.8929 0.020249L5.51383 0.0202499C3.81102 0.02025 2.169 0.728231 0.993251 1.96214C0.344554 2.64989 -0.0203292 3.53993 -0.0203291 4.49064L-0.0203251 50.5903C-0.020325 51.5208 0.344558 52.4311 0.993255 53.1188C1.0338 53.1593 1.05408 53.1795 1.09462 53.22C2.27037 54.3325 3.87184 55 5.53412 55L15.9132 55C18.2039 55 20.2919 53.7257 21.3866 51.7635L24.6503 49.235C29.8398 45.2097 40.7663 43.4498 48.3073 44.0971C54.9361 44.6635 61.9907 45.8165 70.5048 47.7382C87.3303 51.5612 96.189 47.8393 104.764 44.2387C106.223 43.6319 107.703 43.0048 109.224 42.4384C117.211 39.4042 122.076 51.3185 122.299 51.8849C122.846 53.2806 124.204 54.1909 125.705 54.1909L126.556 54.1909L137.523 54.1909L139.246 54.1909C140.624 54.1909 141.902 53.402 142.51 52.1681L144.841 47.4954C146.483 44.2387 149.24 41.69 152.646 40.3347L153.72 39.9099C157.673 38.3321 160.511 35.0754 161.626 31.1309L193.331 31.1309C195.358 31.1309 196.98 29.4925 196.98 27.4899C197 25.4873 195.358 23.8488 193.351 23.8488ZM7.31801 47.6977L7.318 7.30234L12.9333 7.30234L12.9333 47.6977L7.31801 47.6977ZM106.609 35.6013C105.007 36.2082 103.466 36.8555 101.926 37.5028C93.7361 40.9415 86.6613 43.9151 72.086 40.6179C63.2272 38.6153 55.8687 37.4016 48.8952 36.815C39.8946 36.0464 27.1842 38.0692 20.2311 43.3891L20.2311 11.5705C27.1842 16.8904 39.8946 18.9132 48.8952 18.1446C55.8686 17.5579 63.2272 16.3443 72.086 14.3417C86.6613 11.0445 93.7361 14.018 101.926 17.4568C103.466 18.1041 105.007 18.7514 106.609 19.3582C113.379 21.9272 118.914 19.2773 122.907 15.2722L122.907 39.6469C118.914 35.7025 113.379 33.0324 106.609 35.6013ZM130.225 46.8886L130.225 8.09122L133.874 8.09122L133.874 46.8886L130.225 46.8886ZM154.855 27.5101C154.855 29.9982 153.355 32.2232 151.024 33.1537L149.949 33.5785C146.503 34.954 143.523 37.1993 141.192 40.011L141.192 15.0092C143.544 17.8209 146.503 20.0662 149.949 21.4417L151.024 21.8665C153.355 22.797 154.855 25.0018 154.855 27.5101C154.855 27.4899 154.855 27.4899 154.855 27.5101C154.855 27.4899 154.855 27.4899 154.855 27.5101ZM190.412 29.007C189.641 29.7757 188.384 29.7757 187.594 29.007C186.824 28.2383 186.824 26.9842 187.594 26.1953C188.364 25.4266 189.621 25.4266 190.412 26.1953C191.182 26.9842 191.182 28.2383 190.412 29.007Z" fill="#B8ED17"/>
</svg>
