<svg xmlns="http://www.w3.org/2000/svg" viewBox="0 0 255 255"><defs><style>.cls-1{fill:#fff;}</style></defs><g id="Capa_2" data-name="Capa 2"><g id="Capa_1-2" data-name="Capa 1"><path class="cls-1" d="M117.21,138h.44c.15,0,.3,0,.45,0,6.16,0,9.15-4.89,11.79-9.11l0-.07c.7-1.12,1.36-2.17,2.1-3.19,2.37-3.39,4.21-4.9,6.14-5h.14a2.22,2.22,0,0,1,2.05,1.65,1.11,1.11,0,0,1-.51,1.33l-.08,0c-.61.32-1.52.81-1.3,1.86a1.29,1.29,0,0,0,1.38,1.06,1.75,1.75,0,0,0,.4,0l.28,0a3.1,3.1,0,0,1,2.69,1.56,3.81,3.81,0,0,1-1,5.13,3.74,3.74,0,0,1-3.15.72,5.72,5.72,0,0,1-3-1.87l-2.29,3,.08.13c.07.12,1.69,2.79,6.28,2.79a8,8,0,0,0,6.28-3.42,8,8,0,0,0,.24-8.59,5.4,5.4,0,0,0-2.29-2.19c0-.09,0-.18,0-.26v-.06a5.79,5.79,0,0,0,.1-1.22,6.76,6.76,0,0,0-.19-1.26,5.19,5.19,0,0,0-.42-1.07,6.49,6.49,0,0,0-5.75-3.22c-.22,0-.44,0-.65,0-4.61.27-6.92,3.57-8.94,6.48-1.53,2.23-2.16,3.28-2.28,3.48-2.77,4.4-4.83,7.36-8.46,7.36h-.44a6.64,6.64,0,0,1-4.76-11,6.69,6.69,0,0,1,4.94-2.3,6.48,6.48,0,0,1,3.75,1.14l2.23-3.28-.19-.14a10.86,10.86,0,0,0-5.23-1.67c-.25,0-.5,0-.76,0a10.64,10.64,0,0,0-9.59,7,10.48,10.48,0,0,0,1.38,9.85A10.87,10.87,0,0,0,117.21,138Z"/><path class="cls-1" d="M108.65,32.42a1.88,1.88,0,0,0,2.51,0L138,59.19l.07.07a12,12,0,0,0,8.51,3.49,12.26,12.26,0,0,0,12.2-12.2,12.57,12.57,0,0,0-.9-4.61v-.07L139.33,1.11a1.8,1.8,0,0,0-2.3-1,1.8,1.8,0,0,0-1,2.3l15.34,36.89a12.22,12.22,0,0,0-17,11.23v.13L113.53,30,116,27.53a1.79,1.79,0,0,0,.28-2.16l-3.56-5.85a1.66,1.66,0,0,0-1.53-.84,3.57,3.57,0,0,1-2.58-1.05,3.25,3.25,0,0,1-1-2.44,3.53,3.53,0,0,1,7,.14,1.75,1.75,0,0,0,.83,1.54l5.86,3.55a1.78,1.78,0,0,0,2.16-.28l4.95-5a2,2,0,0,0,.49-1.25,1.69,1.69,0,0,0-.49-1.26l-8.64-8.57A13.8,13.8,0,0,0,96.1,13.73a14.33,14.33,0,0,0,4.18,10.32Zm37.93,9.41a8.72,8.72,0,1,1-8.71,8.72A8.72,8.72,0,0,1,146.58,41.83ZM102.65,6.41a10.53,10.53,0,0,1,14.64.14l7.4,7.39-2.93,2.79-3.91-2.37a6.7,6.7,0,0,0-1.95-4.12,7,7,0,0,0-9.83,9.9,7.54,7.54,0,0,0,4.11,2l2.37,3.9-2.72,2.72-7.11-7.18a10.52,10.52,0,0,1-3.14-7.81A10.17,10.17,0,0,1,102.65,6.41Z"/><path class="cls-1" d="M60.28,16.11a25.74,25.74,0,0,0-3.07-5,1,1,0,0,0-.21-.28,26.33,26.33,0,0,0-5.09-5q-.1-.21-.21-.21A27.83,27.83,0,0,0,7.15,27.89a28.08,28.08,0,0,0,5.51,16.67,1,1,0,0,1,.21.28,30.54,30.54,0,0,0,5,5c.07.07.2.14.27.21a28.39,28.39,0,0,0,5,3.06.24.24,0,0,1,.13.07c.42.21.84.35,1.26.56a10.24,10.24,0,0,0-2.16,1.67,4.41,4.41,0,0,1-6.28,0,7.92,7.92,0,0,0-11.15,0l-4.4,4.4a1.7,1.7,0,0,0,0,2.44,2.43,2.43,0,0,0,1.4.49,1.77,1.77,0,0,0,1.25-.49l4.4-4.33a4.42,4.42,0,0,1,6.27,0,7.91,7.91,0,0,0,11.16,0,7.18,7.18,0,0,1,5.09-2.09H35A27.88,27.88,0,0,0,62.93,28a27.23,27.23,0,0,0-2.58-11.71A.24.24,0,0,0,60.28,16.11ZM44.94,5.58,42.57,6c-.35-.56-.63-1.12-1-1.61A27.15,27.15,0,0,1,44.94,5.58ZM35,3.49c.77,0,1.46.07,2.23.14.56,1.11,1.19,2.3,1.81,3.41A26.3,26.3,0,0,0,35.81,8.3c-.91-1.54-1.68-3.14-2.44-4.74A13.25,13.25,0,0,1,35,3.49ZM29.81,4a62.18,62.18,0,0,0,2.86,5.79c-1,.56-2,1.19-2.93,1.81A64.58,64.58,0,0,1,26.46,5C27.51,4.67,28.62,4.32,29.81,4ZM23.25,6.55c1.05,2.44,2.31,4.88,3.63,7.26-.91.76-1.81,1.53-2.65,2.37-1.46-2.51-2.79-5.09-4-7.67A20,20,0,0,1,23.25,6.55Zm-5.71,4.33c1.25,2.65,2.65,5.3,4.18,7.88a29,29,0,0,0-2.3,2.93,71.06,71.06,0,0,1-4.32-7.81A19.58,19.58,0,0,1,17.54,10.88ZM12.73,37.79a24.35,24.35,0,0,1-2.1-9.9V27.4c1,1.68,2.17,3.35,3.35,5A33.37,33.37,0,0,0,12.73,37.79Zm-1.33-16A24.46,24.46,0,0,1,13,17.43a80.12,80.12,0,0,0,4.4,7.46c-.7,1.19-1.33,2.37-1.89,3.56C14.05,26.29,12.66,24.06,11.4,21.82Zm6,23c-.56-.56-1-1.19-1.54-1.75-.21-8.29,3.63-17.22,10.32-23.91S41.8,8.58,50.1,8.79a15.87,15.87,0,0,1,1.74,1.53,37.79,37.79,0,0,0-23.22,11.3A37.47,37.47,0,0,0,17.4,44.77Zm5.09,4c-.56-.35-1.12-.7-1.68-1.11-.14-8.3,3.7-17.09,10.32-23.71S46.54,13.53,54.84,13.67A13.14,13.14,0,0,1,56,15.34,38.22,38.22,0,0,0,33.64,26.5,37.75,37.75,0,0,0,22.49,48.81Zm5.3,2.37a16.15,16.15,0,0,1-2-.7C26.32,42.81,30,35,36.08,28.94S50,19.18,57.63,18.69a20.67,20.67,0,0,1,.7,1.95A39.6,39.6,0,0,0,27.79,51.18Zm3.34.84a15.75,15.75,0,0,1,.35-1.54c.77.63,1.54,1.19,2.37,1.82C33,52.23,32,52.16,31.13,52Zm8.3-.14a79.76,79.76,0,0,1-6.83-5,34.7,34.7,0,0,1,1.46-3.35A99.41,99.41,0,0,0,44,50.62,25.36,25.36,0,0,1,39.43,51.88Zm8.23-3.14a76.3,76.3,0,0,1-11.92-8.37,26,26,0,0,1,2-2.86,75.44,75.44,0,0,0,13,8.93A16.42,16.42,0,0,1,47.66,48.74Zm5.72-4.81A71.54,71.54,0,0,1,40,34.86c.35-.34.63-.69,1-1a13.59,13.59,0,0,1,1.53-1.4,70.28,70.28,0,0,0,13,8.65A17.6,17.6,0,0,1,53.38,43.93Zm3.83-5.86a63.93,63.93,0,0,1-11.92-7.88c1-.69,2-1.39,3.07-2a67.35,67.35,0,0,0,10.11,6.62A25.85,25.85,0,0,1,57.21,38.07ZM59.44,28a26.64,26.64,0,0,1-.21,3.28,74.71,74.71,0,0,1-7.53-4.81A37.39,37.39,0,0,1,55.61,25a41.92,41.92,0,0,0,3.83,2.44Z"/><path class="cls-1" d="M194,55.78h59.27A1.72,1.72,0,0,0,255,54V36.61a.89.89,0,0,0-.07-.42L249.28,13.6A8.7,8.7,0,0,0,240.85,7H197.47a1.73,1.73,0,0,0-1.74,1.75v12.2a1.54,1.54,0,0,0,.07.56l1.74,5.23a1.75,1.75,0,0,0,1.68,1.18h7v7a1.75,1.75,0,1,0,3.49,0v-7h7a1.81,1.81,0,0,0,1.67-1.18l1.33-4.05h5.72a1.73,1.73,0,0,1,1.74,1.74V40.09H194a1.73,1.73,0,0,0-1.75,1.75V54A1.72,1.72,0,0,0,194,55.78Zm1.74-12.2h33.12a1.72,1.72,0,0,0,1.74-1.74V24.4a5.26,5.26,0,0,0-5.22-5.22h-7a1.79,1.79,0,0,0-1.67,1.18l-1.33,4H200.47l-1.25-3.76V10.46h41.63a5.28,5.28,0,0,1,5.09,4l5.57,22.39V52.3H195.73Zm45.32-13.95a7,7,0,1,0,7,7A7,7,0,0,0,241.05,29.63Zm0,10.46a3.49,3.49,0,1,1,3.49-3.48A3.44,3.44,0,0,1,241.05,40.09Zm1.75-20.91a5.23,5.23,0,1,0-5.23,5.22A5.27,5.27,0,0,0,242.8,19.18Zm-7,0a1.75,1.75,0,1,1,1.75,1.74A1.73,1.73,0,0,1,235.82,19.18Zm-27.89-7a5.23,5.23,0,1,0,5.23,5.23A5.27,5.27,0,0,0,207.93,12.2Zm0,7a1.75,1.75,0,1,1,1.75-1.75A1.73,1.73,0,0,1,207.93,19.18Z"/><path class="cls-1" d="M99.55,227.11a27.89,27.89,0,1,0,41.14-24.47v-2h2.79v.7a2.09,2.09,0,1,0,4.18.06v-5.64a2.09,2.09,0,0,0-2.06-2.13l-.27,0a2.08,2.08,0,0,0-1.85,2.11v.7h-2.79v-2.1a2.1,2.1,0,0,0-2.09-2.09h-7a2.1,2.1,0,0,0-2.09,2.09v14.43a2.11,2.11,0,0,0,1.64,2.05,16.74,16.74,0,1,1-7.46,0,2.11,2.11,0,0,0,1.64-2.05V194.33a2.1,2.1,0,0,0-2.09-2.09h-7.2a2.09,2.09,0,0,0-1.87,2.09v2.1H111.4v-.7a2.09,2.09,0,0,0-2.05-2.13l-.28,0a2.08,2.08,0,0,0-1.85,2.11v5.58a2.09,2.09,0,1,0,4.18.06v-.76h2.79v2A27.84,27.84,0,0,0,99.55,227.11Zm17.65-21.36a2.08,2.08,0,0,0,1.17-1.89v-7.43h2.79v10.81a20.93,20.93,0,1,0,12.55,0V196.43h2.79v7.43a2.11,2.11,0,0,0,1.18,1.89,23.71,23.71,0,1,1-20.48,0Z"/><path class="cls-1" d="M.09,248v5.23A1.72,1.72,0,0,0,1.83,255H61.1a1.72,1.72,0,0,0,1.74-1.74V248a7,7,0,0,0-7-7,16.93,16.93,0,0,0-5.58-12.2l7.25-19.18h.07a5.23,5.23,0,1,0-5.23-5.23,5,5,0,0,0,1.89,4l-6.84,18.13a28.33,28.33,0,0,0-6.69-3.28l4.6-18.48A1.73,1.73,0,1,0,42,204l-4.6,18.4a33,33,0,0,0-5.92-.55V202.42a5.24,5.24,0,1,0-7-4.95A5.29,5.29,0,0,0,28,202.42v19.67a29,29,0,0,0-5,1l-3.7-17.29a1.75,1.75,0,1,0-3.41.77l3.76,17.71a28.92,28.92,0,0,0-5.51,3.27L8.87,215.25a5.14,5.14,0,0,0,1.68-3.83,5.27,5.27,0,0,0-5.23-5.23,5.23,5.23,0,1,0,0,10.46h.35l5.78,13.46a16.36,16.36,0,0,0-4.39,10.94A7,7,0,0,0,.09,248ZM57.61,202.7a1.75,1.75,0,1,1-1.74,1.74A1.73,1.73,0,0,1,57.61,202.7ZM5.32,213.16a1.75,1.75,0,1,1,1.74-1.74A1.73,1.73,0,0,1,5.32,213.16Zm54,34.87v3.48H3.57V248a3.46,3.46,0,0,1,3.49-3.49H55.87A3.46,3.46,0,0,1,59.36,248Zm-29.64-52.3A1.75,1.75,0,1,1,28,197.47,1.73,1.73,0,0,1,29.72,195.73ZM13,233.73l1.18,2.79a1.77,1.77,0,0,0,1.61,1,2.42,2.42,0,0,0,.69-.14,1.69,1.69,0,0,0,.91-2.3l-1.81-4.26a24.21,24.21,0,0,1,4.81-3.14l.7,3.21a1.76,1.76,0,0,0,1.67,1.4.52.52,0,0,0,.35-.07,1.72,1.72,0,0,0,1.32-2.1l-.76-3.69a27.52,27.52,0,0,1,4.32-.91v1.54a1.75,1.75,0,0,0,3.49,0v-1.75a24.68,24.68,0,0,1,5.09.49L35,231.92A1.76,1.76,0,0,0,36.28,234a.87.87,0,0,0,.41.07,1.79,1.79,0,0,0,1.68-1.33l1.53-6.06a22.13,22.13,0,0,1,6.28,3.21l-.7,1.81a1.73,1.73,0,0,0,1.05,2.23,2,2,0,0,0,.62.14A1.66,1.66,0,0,0,48.76,233l.21-.48a13,13,0,0,1,3.41,8.57H10.55A12.58,12.58,0,0,1,13,233.73Z"/><path class="cls-1" d="M224,233a3,3,0,1,0,3,3A3,3,0,0,0,224,233Z"/><path class="cls-1" d="M224,219.05a3,3,0,1,0,3,3A3,3,0,0,0,224,219.05Z"/><path class="cls-1" d="M237.85,233.7a3,3,0,0,0-2.17-.7h0a3,3,0,0,0-2.06,1,3,3,0,0,0,2.29,4.94h.22a2.9,2.9,0,0,0,2.06-1,3,3,0,0,0,.7-2.17A2.93,2.93,0,0,0,237.85,233.7Z"/><path class="cls-1" d="M234.91,225.1h0a3,3,0,0,0,2.76-3.22v-.08a3.08,3.08,0,0,0-3.28-2.67,3,3,0,0,0-2.75,3.22,3,3,0,0,0,3,2.75Z"/><path class="cls-1" d="M228.48,205.18a3,3,0,0,0-2.06,1,3,3,0,0,0-.7,2.18,3,3,0,0,0,3,2.75h.23a3,3,0,0,0-.46-6Z"/><path class="cls-1" d="M251.51,249.77a5.25,5.25,0,0,0-3.69-5l-5.58-42a12.18,12.18,0,0,0-12.06-10.53H217.07A12.19,12.19,0,0,0,205,202.84l-5.57,42a5.34,5.34,0,0,0-3.7,5A5.25,5.25,0,0,0,201,255h45.32A5.27,5.27,0,0,0,251.51,249.77Zm-43.09-46.51a8.84,8.84,0,0,1,8.65-7.53h13a8.77,8.77,0,0,1,8.64,7.53l5.51,41.28H203Zm37.86,48.25H201a1.74,1.74,0,0,1,0-3.48h45.32a1.74,1.74,0,1,1,0,3.48Z"/><path class="cls-1" d="M218,205.11a3,3,0,1,0,3,3A3,3,0,0,0,218,205.11Z"/><path class="cls-1" d="M212.39,233a3,3,0,0,0-2.51,4.93,2.9,2.9,0,0,0,2.06,1h.23a3,3,0,0,0,2.28-4.94A3,3,0,0,0,212.39,233Z"/><path class="cls-1" d="M213.58,219.13a3,3,0,0,0-.46,6h.23a3,3,0,0,0,2.29-4.93A2.9,2.9,0,0,0,213.58,219.13Z"/><path class="cls-1" d="M127.44,158.88A31.54,31.54,0,1,0,95.9,127.34,31.58,31.58,0,0,0,127.44,158.88Zm0-58.93a27.39,27.39,0,1,1-27.39,27.39A27.42,27.42,0,0,1,127.44,100Z"/><path class="cls-1" d="M62.32,106.93l-7-7-3.49-3.49a1.91,1.91,0,0,0-2-.35L1,120.53a1.74,1.74,0,0,0-.42,2.79L4.1,126.8l7,7a1.68,1.68,0,0,0,1.25.49H22.37L1.1,144.93A.07.07,0,0,0,1,145a1.76,1.76,0,0,0-.42,2.72l3.49,3.49,7,7a1.8,1.8,0,0,0,2,.35l48.81-24.4a1.74,1.74,0,0,0,.42-2.79l-7-7-3.49-3.48a1.68,1.68,0,0,0-1.25-.49h-10L61.9,109.72A1.74,1.74,0,0,0,62.32,106.93ZM12.67,154.84,4.79,147l3.7-1.82,2.58,2.58a1.68,1.68,0,0,0,1.25.49,1.71,1.71,0,0,0,1.26-2.93l-1.74-1.74,3.69-1.81,2.58,2.58a1.68,1.68,0,0,0,1.26.48,1.66,1.66,0,0,0,1.25-.48,1.68,1.68,0,0,0,0-2.44l-1.74-1.75,3.69-1.81,2.59,2.58a1.65,1.65,0,0,0,1.25.49,1.71,1.71,0,0,0,1.26-2.93l-1.75-1.74,3.7-1.82,2.58,2.58a1.66,1.66,0,0,0,1.25.49A1.71,1.71,0,0,0,34.71,135l-.77-.76h19.8Zm37.31-31,7,7H19.72l13.94-7Zm-37.31,6.62-7.88-7.88,3.7-1.88,2.58,2.58a1.68,1.68,0,0,0,1.25.49,1.71,1.71,0,0,0,1.26-2.93l-1.74-1.75,3.69-1.81,2.58,2.58a1.69,1.69,0,0,0,1.26.49,1.71,1.71,0,0,0,1.25-2.93l-1.74-1.74,3.69-1.81,2.59,2.58a1.68,1.68,0,0,0,1.25.48A1.71,1.71,0,0,0,27.67,114l-1.75-1.74,3.7-1.81L32.2,113a1.66,1.66,0,0,0,1.25.49,1.71,1.71,0,0,0,1.26-2.93L33,108.81l3.7-1.81,2.58,2.58a1.75,1.75,0,1,0,2.51-2.44L40,105.4l3.69-1.82,2.58,2.58a1.69,1.69,0,0,0,1.26.49,1.71,1.71,0,0,0,1.25-2.93L47.05,102l3.7-1.81,7.87,7.88Z"/><path class="cls-1" d="M248.38,107.32A8.69,8.69,0,0,0,240.08,96H207.17a8.8,8.8,0,0,0-7,3.55,8.47,8.47,0,0,0-1.25,7.81c1.25,4,3.28,6.63,5.58,7.46v25.11c-2.37.83-4.33,3.48-5.58,7.46a8.69,8.69,0,0,0,8.3,11.37h32.91a8.78,8.78,0,0,0,7-3.56,8.5,8.5,0,0,0,1.26-7.81c-1.26-4-3.28-6.63-5.58-7.46V114.78C245.17,114,247.12,111.37,248.38,107.32Zm-12.76-5.57a5.28,5.28,0,0,0-.28-2.31,3.52,3.52,0,0,1,3.41,4.19c-1,5.23-3.13,8-4.67,8h-1.6A23.76,23.76,0,0,0,235.62,101.75Zm-7.19-2.31h2a1.91,1.91,0,0,1,1.32.56,1.55,1.55,0,0,1,.42,1.33c-.7,6.34-3.14,10.25-5,10.25H225.5a23,23,0,0,0,3.21-10.11A7.08,7.08,0,0,0,228.43,99.44Zm-6,.49a1.42,1.42,0,0,1,1.18-.49,2,2,0,0,1,1.19.49,1.9,1.9,0,0,1,.42,1.19,23.74,23.74,0,0,1-1.54,6.55,21.46,21.46,0,0,1-1.53-6.55A1.25,1.25,0,0,1,222.44,99.93Zm-6.91.07a1.91,1.91,0,0,1,1.33-.56h1.95a5.38,5.38,0,0,0-.21,2.1,24.69,24.69,0,0,0,2.79,9.55,2,2,0,0,1-1.25.56c-1.89,0-4.33-3.91-5-10.25A1.76,1.76,0,0,1,215.53,100Zm-6.27.7a3.43,3.43,0,0,1,2.65-1.26,5.26,5.26,0,0,0-.28,2.31,23.62,23.62,0,0,0,3.14,9.9h-1.61c-1.53,0-3.62-2.72-4.67-8A3.45,3.45,0,0,1,209.26,100.7Zm-4.19,49.65a6.8,6.8,0,0,0,.7,4.67,5.21,5.21,0,0,1-3.62-6.63c1-3.2,2.64-5.36,4-5.36h1.6A20.45,20.45,0,0,0,205.07,150.35Zm1.12-38.7c-1.4,0-3-2.16-4-5.37a5.29,5.29,0,0,1,.76-4.67,4.88,4.88,0,0,1,2.86-2,6.82,6.82,0,0,0-.7,4.68,20.6,20.6,0,0,0,2.72,7.32Zm5.44,41.28a5.11,5.11,0,0,0,.28,2.3,3.54,3.54,0,0,1-3.42-4.19c1-5.23,3.14-8,4.67-8h1.61A23.57,23.57,0,0,0,211.63,152.93Zm7.18,2.3h-1.95a1.91,1.91,0,0,1-1.33-.56,1.54,1.54,0,0,1-.42-1.32c.7-6.35,3.14-10.25,5-10.25h1.6a23.08,23.08,0,0,0-3.21,10.11A7.06,7.06,0,0,0,218.81,155.23Zm6-.49a1.52,1.52,0,0,1-2.3,0,1.9,1.9,0,0,1-.42-1.19,23.86,23.86,0,0,1,1.53-6.55,21.45,21.45,0,0,1,1.54,6.55A1.51,1.51,0,0,1,224.81,154.74Zm6.9-.07a1.91,1.91,0,0,1-1.32.56h-2a5.35,5.35,0,0,0,.21-2.09,24.52,24.52,0,0,0-2.79-9.56,2,2,0,0,1,1.26-.55c1.88,0,4.32,3.9,5,10.25A1.75,1.75,0,0,1,231.71,154.67ZM238,154a3.46,3.46,0,0,1-2.65,1.26,5.38,5.38,0,0,0,.28-2.3,23.71,23.71,0,0,0-3.14-9.9h1.6c1.54,0,3.63,2.72,4.67,8A3.47,3.47,0,0,1,238,154Zm1.32-14.43H207.93V115.13h31.38Zm5.79,8.85a5.29,5.29,0,0,1-.77,4.68,4.88,4.88,0,0,1-2.86,2,6.75,6.75,0,0,0,.7-4.67,20.27,20.27,0,0,0-2.72-7.32h1.6C242.45,143,244.05,145.19,245.1,148.39Zm-4-36.74h-1.6a20.41,20.41,0,0,0,2.72-7.32,6.77,6.77,0,0,0-.7-4.68,5.24,5.24,0,0,1,3.63,6.63C244.05,109.49,242.45,111.65,241.05,111.65Z"/></g></g></svg>