<svg width="256" height="265" viewBox="0 0 256 265" fill="none" xmlns="http://www.w3.org/2000/svg">
<path d="M107.978 33.82C108.338 34.18 108.778 34.33 109.288 34.33C109.798 34.33 110.238 34.18 110.598 33.82L138.598 61.75L138.668 61.82C140.918 64.07 144.048 65.46 147.538 65.46C154.518 65.46 160.267 59.71 160.267 52.73C160.267 51.06 159.907 49.38 159.317 47.93V47.86L139.978 1.15997C139.538 0.209975 138.527 -0.220014 137.577 0.139986C136.627 0.579986 136.197 1.58998 136.557 2.53998L152.557 41.02C151.027 40.37 149.288 40 147.538 40C140.558 40 134.807 45.75 134.807 52.73C134.807 52.8 134.807 52.8 134.807 52.88L113.057 31.28L115.608 28.73C116.188 28.08 116.337 27.2 115.897 26.48L112.187 20.37C111.897 19.79 111.238 19.5 110.588 19.5C109.568 19.5 108.627 19.14 107.897 18.41C107.167 17.76 106.808 16.81 106.808 15.86C106.808 14.91 107.247 13.97 107.897 13.31C109.347 11.93 111.607 11.93 113.057 13.31C113.787 14.04 114.147 14.98 114.147 16C114.147 16.65 114.437 17.24 115.017 17.6L121.127 21.31C121.857 21.75 122.797 21.6 123.377 21.02L128.538 15.86C128.828 15.5 129.047 15.06 129.047 14.55C129.047 14.04 128.898 13.6 128.538 13.24L119.517 4.28998C113.917 -1.31002 104.827 -1.38002 99.2275 4.06998C96.4675 6.75998 94.9375 10.4 94.8675 14.33C94.7975 18.33 96.3975 22.26 99.2275 25.09L107.978 33.82ZM147.547 43.64C152.567 43.64 156.637 47.71 156.637 52.73C156.637 57.75 152.567 61.82 147.547 61.82C142.527 61.82 138.457 57.75 138.457 52.73C138.457 47.71 142.527 43.64 147.547 43.64ZM101.727 6.68997C105.947 2.61997 112.857 2.69 116.997 6.84L124.707 14.55L121.647 17.46L117.577 14.99C117.427 13.39 116.708 11.86 115.538 10.7C112.698 7.85998 108.118 7.85998 105.278 10.7C103.898 12.08 103.167 13.9 103.167 15.86C103.167 17.82 103.898 19.64 105.278 21.02C106.438 22.11 107.967 22.84 109.567 23.06L112.038 27.13L109.197 29.97L101.778 22.48C99.5975 20.37 98.4275 17.39 98.5075 14.33C98.5275 11.41 99.6875 8.64997 101.727 6.68997Z" fill="white"/>
<path d="M62.8675 16.81C61.9975 14.92 60.9075 13.17 59.6675 11.57C59.5975 11.42 59.5175 11.35 59.4475 11.28C57.9175 9.32 56.1775 7.56998 54.1375 6.03998C54.0675 5.89998 53.9875 5.81998 53.9175 5.81998C49.0475 2.17998 43.0775 0 36.5375 0C20.4675 0 7.44749 13.02 7.44749 29.09C7.44749 35.64 9.62749 41.6 13.1975 46.47C13.2675 46.54 13.3475 46.62 13.4175 46.76C14.9475 48.72 16.6875 50.47 18.5775 52C18.6475 52.07 18.7975 52.14 18.8675 52.22C20.4675 53.46 22.2875 54.55 24.1075 55.42C24.1775 55.42 24.2575 55.49 24.2575 55.49C24.6975 55.71 25.1275 55.85 25.5675 56.07C24.7675 56.58 23.9675 57.09 23.3175 57.82C21.4975 59.64 18.5875 59.64 16.7675 57.82C13.5675 54.62 8.32749 54.62 5.12749 57.82L0.5475 62.4C-0.1825 63.13 -0.1825 64.29 0.5475 64.94C1.0575 65.3 1.56749 65.45 2.00749 65.45C2.44749 65.45 2.95749 65.3 3.31749 64.94L7.89751 60.43C9.71751 58.61 12.6275 58.61 14.4475 60.43C17.6475 63.63 22.8875 63.63 26.0875 60.43C27.4675 59.05 29.3575 58.25 31.3975 58.25H36.5575C52.6275 58.25 65.6475 45.23 65.6475 29.16C65.6475 24.72 64.6975 20.65 62.9575 16.94C62.9375 16.88 62.8675 16.81 62.8675 16.81ZM46.8675 5.81998C46.0675 5.96998 45.1975 6.10998 44.3975 6.25998C44.0375 5.67998 43.7475 5.1 43.3775 4.59C44.6075 4.95 45.6975 5.30998 46.8675 5.81998ZM36.5375 3.63998C37.3375 3.63998 38.0675 3.70998 38.8675 3.78998C39.4475 4.94998 40.1075 6.18998 40.7575 7.34998C39.5975 7.70998 38.4275 8.14997 37.3375 8.65997C36.3875 7.05997 35.5875 5.38999 34.7875 3.70999C35.3775 3.63999 35.9575 3.63998 36.5375 3.63998ZM31.0775 4.21997C31.9475 6.25997 32.9675 8.28998 34.0575 10.26C33.0375 10.84 31.9475 11.5 30.9975 12.15C29.6875 9.89999 28.5975 7.56999 27.5775 5.23999C28.6875 4.87999 29.8475 4.50997 31.0775 4.21997ZM24.2475 6.84C25.3375 9.39 26.6475 11.93 28.0275 14.4C27.0775 15.2 26.1375 16 25.2675 16.87C23.7375 14.25 22.3575 11.56 21.1175 8.87C22.1375 8.08 23.1575 7.42 24.2475 6.84ZM18.2775 11.35C19.5875 14.11 21.0375 16.88 22.6375 19.57C21.7675 20.59 20.9675 21.53 20.2375 22.62C18.5675 20 17.0375 17.24 15.7275 14.47C16.5375 13.31 17.3375 12.3 18.2775 11.35ZM13.2675 39.43C11.8875 36.3 11.0875 32.81 11.0875 29.1C11.0875 28.95 11.0875 28.74 11.0875 28.59C12.1775 30.34 13.3375 32.08 14.5775 33.75C13.9875 35.57 13.5575 37.46 13.2675 39.43ZM11.8775 22.77C12.3175 21.17 12.8275 19.64 13.5475 18.19C14.9275 20.88 16.4575 23.43 18.1275 25.97C17.3975 27.21 16.7475 28.44 16.1675 29.68C14.6475 27.43 13.1875 25.1 11.8775 22.77ZM18.1375 46.7C17.5575 46.12 17.0475 45.46 16.5375 44.88C16.3175 36.22 20.3175 26.92 27.2975 19.93C34.2775 12.95 43.5875 8.94998 52.2475 9.16998C52.8975 9.67998 53.4875 10.19 54.0675 10.77C45.4075 11.5 36.7575 15.64 29.8475 22.55C23.0075 29.39 18.8675 37.97 18.1375 46.7ZM23.4475 50.92C22.8675 50.56 22.2875 50.19 21.6975 49.76C21.5475 41.1 25.5575 31.94 32.4575 25.03C39.3675 18.12 48.5275 14.12 57.1875 14.27C57.6275 14.85 57.9875 15.36 58.3475 16.02C49.9875 16.97 41.6175 21.11 35.0775 27.66C28.4675 34.19 24.3875 42.55 23.4475 50.92ZM28.9775 53.39C28.2475 53.17 27.5975 52.95 26.9375 52.66C27.4475 44.66 31.2975 36.51 37.6275 30.19C43.9575 23.86 52.0975 20.01 60.0975 19.5C60.3875 20.15 60.6075 20.88 60.8275 21.54C53.3375 22.99 46.0675 26.92 40.1675 32.74C34.3575 38.63 30.4275 45.9 28.9775 53.39ZM32.4675 54.26C32.5375 53.75 32.6875 53.24 32.8275 52.66C33.6275 53.32 34.4275 53.9 35.2975 54.55C34.3575 54.48 33.4075 54.41 32.4675 54.26ZM41.1175 54.12C38.6475 52.52 36.3175 50.77 33.9875 48.88C34.4275 47.72 34.9375 46.55 35.5175 45.39C38.7875 48.08 42.2775 50.55 45.8475 52.81C44.3175 53.39 42.7175 53.83 41.1175 54.12ZM49.6975 50.85C45.3375 48.38 41.1875 45.47 37.2575 42.12C37.9075 41.1 38.5675 40.08 39.3675 39.14C43.5875 42.7 48.0975 45.83 52.9675 48.45C51.9575 49.39 50.8675 50.19 49.6975 50.85ZM55.6675 45.83C50.7175 43.21 45.9975 40.08 41.7075 36.37C42.0675 36.01 42.3575 35.64 42.7275 35.28C43.2375 34.77 43.7475 34.26 44.3275 33.82C48.5475 37.31 53.0575 40.37 57.9275 42.84C57.2675 43.94 56.5375 44.88 55.6675 45.83ZM59.6675 39.72C55.2275 37.46 51.0875 34.7 47.2275 31.5C48.2475 30.77 49.3375 30.05 50.4275 29.39C53.7775 32.01 57.2675 34.34 60.9775 36.3C60.6175 37.46 60.1775 38.63 59.6675 39.72ZM61.9975 29.17C61.9975 30.26 61.9275 31.42 61.7775 32.59C59.0875 31.13 56.4675 29.39 53.9175 27.57C55.2275 26.99 56.6075 26.48 57.9875 26.04C59.2975 26.99 60.6075 27.79 61.9875 28.59C61.9975 28.81 61.9975 28.95 61.9975 29.17Z" fill="white"/>
<path d="M240.527 30.9199C236.527 30.9199 233.257 34.1899 233.257 38.1899C233.257 42.1899 236.527 45.4599 240.527 45.4599C244.527 45.4599 247.797 42.1899 247.797 38.1899C247.797 34.1899 244.527 30.9199 240.527 30.9199ZM240.527 41.8299C238.487 41.8299 236.887 40.2299 236.887 38.1899C236.887 36.1499 238.487 34.5499 240.527 34.5499C242.567 34.5499 244.167 36.1499 244.167 38.1899C244.167 40.2299 242.567 41.8299 240.527 41.8299Z" fill="white"/>
<path d="M242.348 20.01C242.348 17.03 239.878 14.55 236.898 14.55C233.918 14.55 231.438 17.02 231.438 20.01C231.438 22.99 233.908 25.4601 236.898 25.4601C239.878 25.4601 242.348 22.99 242.348 20.01ZM235.078 20.01C235.078 18.99 235.878 18.19 236.898 18.19C237.918 18.19 238.718 18.99 238.718 20.01C238.718 21.03 237.918 21.83 236.898 21.83C235.878 21.82 235.078 21.02 235.078 20.01Z" fill="white"/>
<path d="M191.437 58.19H253.257C254.277 58.19 255.077 57.39 255.077 56.37V38.19C255.077 38.04 255.077 37.9 255.007 37.75L249.117 14.18C248.097 10.11 244.457 7.27002 240.317 7.27002H195.077C194.057 7.27002 193.257 8.07003 193.257 9.09003V21.82C193.257 22.04 193.257 22.18 193.327 22.4L195.147 27.85C195.367 28.58 196.097 29.09 196.897 29.09H204.167V36.36C204.167 37.38 204.967 38.18 205.987 38.18C207.007 38.18 207.807 37.38 207.807 36.36V29.09H215.077C215.877 29.09 216.537 28.58 216.827 27.85L218.207 23.63H224.167C225.187 23.63 225.987 24.43 225.987 25.45V41.82H191.437C190.417 41.82 189.617 42.62 189.617 43.64V56.37C189.617 57.39 190.417 58.19 191.437 58.19ZM193.257 45.46H227.807C228.827 45.46 229.627 44.66 229.627 43.64V25.46C229.627 22.48 227.157 20.01 224.167 20.01H216.897C216.097 20.01 215.437 20.52 215.147 21.25L213.767 25.47H198.207L196.897 21.54V10.92H240.317C242.787 10.92 244.967 12.59 245.627 15.07L251.447 38.42V54.57H193.257V45.46Z" fill="white"/>
<path d="M205.977 12.73C202.997 12.73 200.517 15.2 200.517 18.19C200.517 21.17 202.987 23.64 205.977 23.64C208.957 23.64 211.437 21.17 211.437 18.19C211.437 15.21 208.967 12.73 205.977 12.73ZM205.977 20.01C204.957 20.01 204.157 19.21 204.157 18.19C204.157 17.17 204.957 16.37 205.977 16.37C206.997 16.37 207.797 17.17 207.797 18.19C207.797 19.21 206.997 20.01 205.977 20.01Z" fill="white"/>
<path d="M98.4875 235.88C98.4875 251.92 111.537 264.97 127.577 264.97C143.617 264.97 156.668 251.92 156.668 235.88C156.668 224.85 150.467 215.28 141.397 210.36V208.25H144.307V208.98C144.287 210.19 145.257 211.18 146.457 211.19C147.657 211.21 148.658 210.24 148.668 209.04C148.668 209.02 148.668 209 148.668 208.98V203.16C148.688 201.95 147.727 200.96 146.527 200.94C146.427 200.94 146.337 200.94 146.237 200.95C145.117 201.08 144.287 202.03 144.307 203.15V203.88H141.397V201.7C141.397 200.5 140.417 199.52 139.217 199.52H131.947C130.737 199.52 129.767 200.5 129.767 201.7V216.75C129.767 217.77 130.477 218.66 131.467 218.89C139.237 220.65 145.038 227.56 145.038 235.89C145.038 245.56 137.247 253.35 127.577 253.35C117.907 253.35 110.117 245.56 110.117 235.89C110.117 227.56 115.917 220.65 123.687 218.89C124.687 218.67 125.397 217.78 125.387 216.75V201.7C125.387 200.5 124.407 199.52 123.207 199.52H115.937C115.857 199.52 115.787 199.52 115.707 199.52C114.587 199.64 113.747 200.58 113.757 201.7V203.88H110.848V203.15C110.868 201.94 109.907 200.95 108.707 200.93C108.607 200.93 108.518 200.93 108.418 200.94C107.298 201.07 106.467 202.02 106.487 203.14V208.96C106.467 210.17 107.437 211.16 108.637 211.17C109.847 211.19 110.838 210.22 110.848 209.02C110.848 209 110.848 208.98 110.848 208.96V208.23H113.757V210.34C104.687 215.28 98.4875 224.85 98.4875 235.88ZM116.897 213.61C117.657 213.24 118.127 212.47 118.127 211.63V203.88H121.038V215.15C112.198 217.94 105.767 226.14 105.767 235.88C105.767 247.91 115.557 257.7 127.587 257.7C139.607 257.7 149.408 247.91 149.408 235.88C149.408 226.14 142.967 217.95 134.137 215.15V203.88H137.047V211.63C137.037 212.47 137.517 213.24 138.277 213.61C146.577 217.6 152.327 226.05 152.327 235.88C152.327 249.56 141.278 260.61 127.598 260.61C113.918 260.61 102.867 249.56 102.867 235.88C102.847 226.04 108.597 217.59 116.897 213.61Z" fill="white"/>
<path d="M0.0775146 257.7V263.16C0.0775146 264.18 0.877522 264.98 1.89752 264.98H63.7175C64.7375 264.98 65.5375 264.18 65.5375 263.16V257.7C65.5375 253.7 62.2675 250.43 58.2675 250.43C58.2675 245.63 56.0875 241.19 52.4475 237.7L60.0075 217.7H60.0775C63.0575 217.7 65.5375 215.23 65.5375 212.24C65.5375 209.26 63.0675 206.79 60.0775 206.79C57.0975 206.79 54.6275 209.26 54.6275 212.24C54.6275 213.91 55.3575 215.44 56.5875 216.39L49.4575 235.3C47.4175 233.92 45.0175 232.75 42.4775 231.88L47.2775 212.61C47.4975 211.66 46.9175 210.65 45.9675 210.43C45.0175 210.21 44.0075 210.79 43.7875 211.74L38.9875 230.94C37.0275 230.58 34.9875 230.36 32.8075 230.36V210.14C34.9175 209.41 36.4475 207.38 36.4475 204.98C36.4475 202 33.9775 199.52 30.9875 199.52C28.0075 199.52 25.5375 201.99 25.5375 204.98C25.5375 207.38 27.0675 209.34 29.1775 210.14V230.65C27.3575 230.87 25.6175 231.23 23.9375 231.74L20.0775 213.7C19.8575 212.68 18.9175 212.1 17.8975 212.32C16.8775 212.54 16.2975 213.48 16.5175 214.5L20.4475 232.97C18.3375 233.92 16.4475 235.08 14.6975 236.39L9.23752 223.52C10.3275 222.5 10.9875 221.12 10.9875 219.52C10.9875 216.54 8.51751 214.07 5.53751 214.07C2.55751 214.07 0.0775146 216.54 0.0775146 219.52C0.0775146 222.5 2.54751 224.98 5.53751 224.98C5.68751 224.98 5.75752 224.98 5.89752 224.98L11.9375 239.02C9.0275 242.29 7.35751 246.22 7.35751 250.44C3.35751 250.43 0.0775146 253.7 0.0775146 257.7ZM60.0875 210.42C61.1075 210.42 61.9075 211.22 61.9075 212.24C61.9075 213.26 61.1075 214.06 60.0875 214.06C59.0675 214.06 58.2675 213.26 58.2675 212.24C58.2675 211.22 59.0675 210.42 60.0875 210.42ZM5.53751 221.33C4.51751 221.33 3.71753 220.53 3.71753 219.51C3.71753 218.49 4.51751 217.69 5.53751 217.69C6.55751 217.69 7.35751 218.49 7.35751 219.51C7.35751 220.53 6.55751 221.33 5.53751 221.33ZM61.9075 257.7V261.34H3.71753V257.7C3.71753 255.66 5.31751 254.06 7.35751 254.06H58.2675C60.3075 254.06 61.9075 255.66 61.9075 257.7ZM30.9875 203.15C32.0075 203.15 32.8075 203.95 32.8075 204.97C32.8075 205.99 32.0075 206.79 30.9875 206.79C29.9675 206.79 29.1675 205.99 29.1675 204.97C29.1775 203.95 29.9775 203.15 30.9875 203.15ZM13.5375 242.79L14.7775 245.7C15.0675 246.35 15.7275 246.79 16.4475 246.79C16.6675 246.79 16.9575 246.72 17.1775 246.64C18.1275 246.28 18.5575 245.19 18.1275 244.24L16.2375 239.8C17.6875 238.56 19.3675 237.47 21.2575 236.53L21.9875 239.88C22.2075 240.75 22.9375 241.34 23.7375 241.34C23.8875 241.34 24.0275 241.34 24.0975 241.27C25.1175 241.05 25.6975 240.11 25.4775 239.09L24.6775 235.24C26.1275 234.8 27.5875 234.51 29.1875 234.29V235.89C29.1875 236.91 29.9875 237.71 31.0075 237.71C32.0275 237.71 32.8275 236.91 32.8275 235.89V234.07C34.6475 234.07 36.3875 234.22 38.1375 234.58L36.5375 240.91C36.3175 241.85 36.8975 242.87 37.8475 243.09C37.9975 243.16 38.1375 243.16 38.2875 243.16C39.0875 243.16 39.8175 242.58 40.0375 241.78L41.6375 235.45C44.1075 236.25 46.2875 237.41 48.1875 238.8L47.4575 240.69C47.0975 241.64 47.6075 242.65 48.5475 243.02C48.7675 243.09 48.9875 243.17 49.1975 243.17C49.9275 243.17 50.6475 242.73 50.8675 242.01L51.0875 241.5C53.3375 244.05 54.6475 247.17 54.6475 250.45H11.0075C10.9875 247.66 11.9375 245.04 13.5375 242.79Z" fill="white"/>
<path d="M222.777 242.03C221.057 242.03 219.657 243.43 219.657 245.15C219.657 246.87 221.057 248.27 222.777 248.27C224.497 248.27 225.897 246.87 225.897 245.15C225.897 243.43 224.497 242.03 222.777 242.03Z" fill="white"/>
<path d="M222.777 227.48C221.057 227.48 219.657 228.88 219.657 230.6C219.657 232.32 221.057 233.72 222.777 233.72C224.497 233.72 225.897 232.32 225.897 230.6C225.897 228.88 224.497 227.48 222.777 227.48Z" fill="white"/>
<path d="M237.187 242.76C236.557 242.23 235.747 241.96 234.917 242.03C234.077 242.09 233.317 242.48 232.777 243.11C232.247 243.74 231.987 244.54 232.047 245.39C232.167 247 233.537 248.26 235.157 248.26H235.297H235.387C236.227 248.2 236.987 247.81 237.527 247.18C238.057 246.55 238.317 245.75 238.257 244.91C238.217 244.06 237.827 243.3 237.187 242.76Z" fill="white"/>
<path d="M234.118 233.79H234.168C235.908 233.67 237.168 232.19 237.048 230.44L237.038 230.35C236.788 228.64 235.318 227.45 233.628 227.56C231.888 227.68 230.628 229.16 230.748 230.92C230.868 232.53 232.238 233.79 233.858 233.79H234.118Z" fill="white"/>
<path d="M227.417 213.01C226.577 213.07 225.817 213.46 225.277 214.09C224.747 214.72 224.487 215.52 224.547 216.36C224.667 217.97 226.037 219.23 227.657 219.23H227.847H227.897C228.737 219.17 229.497 218.79 230.047 218.15C230.577 217.52 230.837 216.72 230.777 215.88C230.647 214.15 229.167 212.89 227.417 213.01Z" fill="white"/>
<path d="M251.437 259.52C251.437 257.05 249.837 255.01 247.577 254.28L241.757 210.49C240.957 204.23 235.507 199.51 229.177 199.51H215.507C209.177 199.51 203.727 204.24 202.927 210.57L197.107 254.36C194.927 255.09 193.257 257.12 193.257 259.6C193.257 262.51 195.727 264.98 198.717 264.98H245.997C248.967 264.97 251.437 262.5 251.437 259.52ZM206.487 211C207.147 206.56 210.997 203.15 215.507 203.15H229.107C233.617 203.15 237.547 206.57 238.127 211L243.877 254.06H200.817L206.487 211ZM245.987 261.34H198.707C197.687 261.34 196.887 260.54 196.887 259.52C196.887 258.5 197.687 257.7 198.707 257.7H245.987C247.007 257.7 247.807 258.5 247.807 259.52C247.807 260.54 247.007 261.34 245.987 261.34Z" fill="white"/>
<path d="M216.458 212.93C214.738 212.93 213.338 214.33 213.338 216.05C213.338 217.77 214.738 219.17 216.458 219.17C218.178 219.17 219.578 217.77 219.578 216.05C219.578 214.33 218.178 212.93 216.458 212.93Z" fill="white"/>
<path d="M210.638 242.03C209.818 241.97 208.997 242.23 208.367 242.76C207.727 243.3 207.348 244.06 207.288 244.9C207.228 245.74 207.488 246.54 208.018 247.17C208.558 247.81 209.318 248.19 210.168 248.25H210.408C212.028 248.25 213.398 246.99 213.518 245.37C213.578 244.53 213.318 243.73 212.788 243.1C212.238 242.47 211.478 242.09 210.638 242.03Z" fill="white"/>
<path d="M211.877 227.56C210.127 227.42 208.647 228.7 208.527 230.44C208.397 232.2 209.667 233.67 211.407 233.79H211.647C213.267 233.79 214.637 232.53 214.757 230.91C214.817 230.08 214.557 229.27 214.027 228.64C213.477 228 212.717 227.61 211.877 227.56Z" fill="white"/>
<path d="M116.907 143.43C117.047 143.44 117.217 143.44 117.357 143.44C117.507 143.45 117.667 143.44 117.827 143.44C124.257 143.44 127.367 138.34 130.127 133.93L130.177 133.86C130.907 132.7 131.597 131.6 132.367 130.54C134.837 127 136.757 125.43 138.777 125.3C138.827 125.29 138.877 125.29 138.917 125.29C139.997 125.29 140.847 126.17 141.057 127.01C141.137 127.3 141.227 128.02 140.527 128.39L140.437 128.44C139.807 128.78 138.857 129.29 139.087 130.38C139.227 131.08 139.757 131.48 140.527 131.48C140.667 131.48 140.807 131.47 140.937 131.44C140.997 131.43 141.097 131.42 141.237 131.42C141.777 131.42 143.147 131.58 144.037 133.05C145.707 135.79 143.607 137.97 142.957 138.4C141.817 139.16 140.907 139.42 139.667 139.15C137.767 138.74 136.567 137.22 136.557 137.2L134.167 140.33L134.247 140.47C134.317 140.59 136.007 143.38 140.807 143.38C144.517 143.38 146.757 140.66 147.347 139.82C149.147 137.23 149.257 133.62 147.607 130.85C146.977 129.79 146.187 129.05 145.217 128.57C145.237 128.47 145.257 128.38 145.267 128.29L145.287 128.23C145.367 127.78 145.397 127.36 145.387 126.95C145.367 126.54 145.307 126.12 145.187 125.64C145.067 125.2 144.917 124.83 144.757 124.52C143.947 122.85 141.627 121.17 138.757 121.17C138.527 121.17 138.297 121.18 138.077 121.2C133.277 121.48 130.857 124.92 128.757 127.95C127.157 130.28 126.497 131.37 126.367 131.58C123.487 136.17 121.337 139.26 117.557 139.26C117.407 139.26 117.237 139.26 117.087 139.25C114.387 139.08 112.257 137.75 111.017 135.09C109.507 131.89 111.147 128.82 112.127 127.81C113.677 126.21 115.377 125.41 117.287 125.41C119.687 125.41 121.197 126.6 121.197 126.6L123.527 123.18L123.327 123.03C122.377 122.31 120.327 121.49 117.877 121.29C117.617 121.27 117.347 121.26 117.087 121.26C112.607 121.22 108.307 124.72 107.077 128.5C105.847 132.31 106.347 135.78 108.527 138.78C110.197 141.12 113.197 143.23 116.907 143.43Z" fill="white"/>
<path d="M127.588 165.2C145.718 165.2 160.478 150.44 160.478 132.3C160.478 114.16 145.718 99.3999 127.588 99.3999C109.448 99.3999 94.6875 114.16 94.6875 132.3C94.6875 150.44 109.438 165.2 127.588 165.2ZM127.588 103.73C143.338 103.73 156.148 116.55 156.148 132.3C156.148 148.05 143.328 160.86 127.588 160.86C111.838 160.86 99.0175 148.04 99.0175 132.3C99.0075 116.55 111.838 103.73 127.588 103.73Z" fill="white"/>
<path d="M64.9975 111.02L57.7275 103.75L54.0875 100.11C53.5775 99.5999 52.7075 99.45 51.9775 99.75L1.0675 125.21C-0.0224956 125.72 -0.242498 127.25 0.627502 128.12L4.26752 131.76L11.5375 139.03C11.8975 139.39 12.3375 139.54 12.8475 139.54H23.3175L1.13751 150.67C1.13751 150.67 1.0675 150.67 1.0675 150.74C0.0475045 151.32 -0.172498 152.78 0.627502 153.58L4.26752 157.22L11.5375 164.49C12.1175 165.07 12.9175 165.14 13.6475 164.85L64.5575 139.39C65.6475 138.88 65.8675 137.35 64.9975 136.48L57.7275 129.21L54.0875 125.57C53.7275 125.21 53.2875 125.06 52.7775 125.06H42.3775L64.5575 113.93C65.6475 113.42 65.8675 111.89 64.9975 111.02ZM13.2075 160.99L4.98752 152.77L8.83752 150.88L11.5275 153.57C11.8875 153.93 12.3275 154.08 12.8375 154.08C13.3475 154.08 13.7875 153.93 14.1475 153.57C14.8775 152.84 14.8775 151.68 14.1475 151.02L12.3275 149.2L16.1775 147.31L18.8675 150C19.2275 150.36 19.6675 150.51 20.1775 150.51C20.6875 150.51 21.1275 150.36 21.4875 150C22.2175 149.27 22.2175 148.11 21.4875 147.45L19.6675 145.63L23.5175 143.74L26.2075 146.43C26.5675 146.79 27.0075 146.94 27.5175 146.94C28.0275 146.94 28.4675 146.79 28.8275 146.43C29.5575 145.7 29.5575 144.54 28.8275 143.89L27.0075 142.07L30.8675 140.18L33.5575 142.87C33.9175 143.23 34.3575 143.38 34.8675 143.38C35.3775 143.38 35.8175 143.23 36.1775 142.87C36.9075 142.14 36.9075 140.98 36.1775 140.32L35.3775 139.52H56.0375L13.2075 160.99ZM52.1175 128.62L59.3875 135.89H20.5475L35.0975 128.62H52.1175ZM13.2075 135.53L4.98752 127.31L8.83752 125.35L11.5275 128.04C11.8875 128.4 12.3275 128.55 12.8375 128.55C13.3475 128.55 13.7875 128.4 14.1475 128.04C14.8775 127.31 14.8775 126.15 14.1475 125.49L12.3275 123.67L16.1775 121.78L18.8675 124.47C19.2275 124.83 19.6675 124.98 20.1775 124.98C20.6875 124.98 21.1275 124.83 21.4875 124.47C22.2175 123.74 22.2175 122.58 21.4875 121.92L19.6675 120.1L23.5175 118.21L26.2075 120.9C26.5675 121.26 27.0075 121.41 27.5175 121.41C28.0275 121.41 28.4675 121.27 28.8275 120.9C29.5575 120.17 29.5575 119.01 28.8275 118.35L27.0075 116.53L30.8675 114.64L33.5575 117.33C33.9175 117.69 34.3575 117.84 34.8675 117.84C35.3775 117.84 35.8175 117.7 36.1775 117.33C36.9075 116.6 36.9075 115.44 36.1775 114.78L34.3575 112.96L38.2175 111.07L40.9075 113.76C41.2675 114.12 41.7075 114.27 42.2175 114.27C42.7275 114.27 43.1675 114.13 43.5275 113.76C44.2575 113.03 44.2575 111.87 43.5275 111.21L41.7075 109.39L45.5675 107.5L48.2575 110.19C48.6175 110.55 49.0575 110.7 49.5675 110.7C50.0775 110.7 50.5175 110.55 50.8775 110.19C51.6075 109.46 51.6075 108.3 50.8775 107.64L49.0575 105.82L52.9075 103.93L61.1275 112.15L13.2075 135.53Z" fill="white"/>
<path d="M248.167 111.43C249.037 108.59 248.607 105.68 246.857 103.28C245.107 100.95 242.417 99.5701 239.507 99.5701H234.557H233.247H229.607H229.537C229.467 99.5701 229.467 99.5701 229.387 99.5701H222.327H215.267C215.197 99.5701 215.197 99.5701 215.127 99.5701H215.057H211.417H210.107H205.157C202.247 99.5701 199.557 100.95 197.807 103.28C196.057 105.68 195.557 108.59 196.497 111.43C197.807 115.58 199.917 118.34 202.317 119.21V145.39C199.847 146.26 197.807 149.03 196.497 153.17C195.627 156.01 196.057 158.92 197.807 161.32C199.557 163.72 202.247 165.03 205.157 165.03H210.107H211.417H215.057H215.127C215.197 165.03 215.197 165.03 215.267 165.03H222.327H229.387C229.457 165.03 229.457 165.03 229.537 165.03H229.607H233.247H234.557H239.507C242.417 165.03 245.107 163.65 246.857 161.32C248.607 158.92 249.107 156.01 248.167 153.17C246.857 149.02 244.747 146.26 242.347 145.39V119.21C244.817 118.34 246.857 115.65 248.167 111.43ZM234.857 105.61C234.927 104.81 234.857 103.94 234.567 103.21C235.657 103.21 236.677 103.72 237.327 104.52C238.057 105.39 238.347 106.48 238.127 107.57C237.037 113.03 234.857 115.93 233.257 115.93H231.587C233.187 113.47 234.347 109.9 234.857 105.61ZM227.367 103.21H229.407C229.917 103.21 230.427 103.43 230.787 103.79C231.147 104.15 231.297 104.66 231.227 105.17C230.497 111.79 227.957 115.86 225.987 115.86H224.317C225.987 113.39 227.157 109.75 227.667 105.31C227.657 104.67 227.587 103.94 227.367 103.21ZM221.107 103.72C221.397 103.36 221.837 103.21 222.347 103.21C222.787 103.21 223.217 103.43 223.587 103.72C223.877 104.08 224.027 104.52 224.027 104.96C223.737 107.72 223.157 110.05 222.427 111.8C221.627 109.91 221.047 107.58 220.827 104.96C220.677 104.52 220.817 104.08 221.107 103.72ZM213.907 103.79C214.267 103.43 214.777 103.21 215.287 103.21H217.327C217.107 103.94 217.037 104.66 217.107 105.39C217.547 109.39 218.557 112.88 220.017 115.35C219.577 115.71 219.147 115.93 218.707 115.93C216.747 115.93 214.197 111.86 213.467 105.24C213.397 104.74 213.547 104.23 213.907 103.79ZM207.367 104.52C208.017 103.72 209.037 103.21 210.127 103.21C209.837 104.01 209.767 104.81 209.837 105.61C210.347 109.9 211.507 113.47 213.107 115.94H211.437C209.837 115.94 207.657 113.1 206.567 107.58C206.347 106.48 206.637 105.39 207.367 104.52ZM202.997 156.31C202.637 157.98 202.927 159.73 203.727 161.18C202.567 160.89 201.547 160.16 200.747 159.14C199.727 157.69 199.437 155.94 199.947 154.27C201.037 150.92 202.707 148.67 204.167 148.67H205.837C204.597 150.56 203.577 153.18 202.997 156.31ZM204.167 115.94C202.717 115.94 201.037 113.69 199.947 110.34C199.437 108.67 199.727 106.85 200.747 105.47C201.477 104.45 202.497 103.72 203.727 103.43C202.927 104.88 202.637 106.63 202.997 108.3C203.577 111.43 204.597 114.05 205.837 115.94H204.167ZM209.837 159C209.767 159.8 209.837 160.67 210.127 161.4C209.037 161.4 208.017 160.89 207.367 160.09C206.637 159.22 206.347 158.13 206.567 157.04C207.657 151.58 209.837 148.68 211.437 148.68H213.107C211.507 151.14 210.347 154.71 209.837 159ZM217.327 161.4H215.287C214.777 161.4 214.267 161.18 213.907 160.82C213.547 160.46 213.397 159.95 213.467 159.44C214.197 152.82 216.737 148.75 218.707 148.75H220.377C218.707 151.22 217.537 154.86 217.027 159.3C217.037 159.94 217.107 160.67 217.327 161.4ZM223.587 160.89C222.937 161.62 221.767 161.62 221.187 160.89C220.897 160.53 220.747 160.09 220.747 159.65C221.037 156.89 221.617 154.56 222.347 152.81C223.147 154.7 223.727 157.03 223.947 159.65C224.017 160.09 223.877 160.53 223.587 160.89ZM230.787 160.82C230.427 161.18 229.917 161.4 229.407 161.4H227.367C227.587 160.67 227.657 159.95 227.587 159.22C227.147 155.22 226.137 151.73 224.677 149.26C225.117 148.9 225.547 148.68 225.987 148.68C227.947 148.68 230.497 152.75 231.227 159.37C231.297 159.87 231.147 160.38 230.787 160.82ZM237.327 160.09C236.677 160.89 235.657 161.4 234.567 161.4C234.857 160.6 234.927 159.8 234.857 159C234.347 154.71 233.187 151.14 231.587 148.67H233.257C234.857 148.67 237.037 151.51 238.127 157.03C238.347 158.12 238.057 159.22 237.327 160.09ZM238.707 145.03H205.977V119.57H238.707V145.03ZM244.747 154.27C245.257 155.94 244.967 157.76 243.947 159.14C243.217 160.16 242.197 160.89 240.967 161.18C241.767 159.72 242.057 157.98 241.697 156.31C241.117 153.18 240.097 150.56 238.857 148.67H240.527C241.987 148.67 243.657 150.92 244.747 154.27ZM240.527 115.94H238.857C240.097 114.05 241.117 111.43 241.697 108.3C242.057 106.63 241.767 104.88 240.967 103.43C242.127 103.72 243.147 104.45 243.947 105.47C244.967 106.92 245.257 108.67 244.747 110.34C243.657 113.68 241.987 115.94 240.527 115.94Z" fill="white"/>
</svg>
