<svg width="342" height="342" viewBox="0 0 342 342" fill="none" xmlns="http://www.w3.org/2000/svg">
<path d="M342.009 0H0.210022V342H342.009V0Z" fill="white"/>
<path d="M342.009 137.766H0.210022V205.744H342.009V137.766Z" fill="#B8ED17"/>
<path d="M36.3646 163.847V163.657C36.3646 158.859 32.8755 156.42 27.0303 156.42H20.9946V171.085H26.9301C32.5948 171.085 36.3646 168.546 36.3646 163.847Z" fill="black"/>
<path d="M36.3646 233.535V233.345C36.3646 228.547 32.8755 226.107 27.0303 226.107H20.9946V240.773H26.9301C32.5948 240.773 36.3646 238.233 36.3646 233.535Z" fill="black"/>
<path d="M157.149 342H180.039L157.149 313.649V342Z" fill="black"/>
<path d="M36.3646 303.213V303.023C36.3646 298.224 32.8755 295.785 27.0303 295.785H20.9946V310.45H26.9301C32.5948 310.45 36.3646 307.921 36.3646 303.213Z" fill="black"/>
<path d="M36.3646 24.4822V24.2922C36.3646 19.4938 32.8755 17.0546 27.0303 17.0546H20.9946V31.7198H26.9301C32.5948 31.7198 36.3646 29.1807 36.3646 24.4822Z" fill="black"/>
<path d="M179.397 0H156.347L179.397 28.5208V0Z" fill="black"/>
<path d="M319.983 320.417H299.81V342H319.983V320.417Z" fill="black"/>
<path d="M319.983 0H299.81V22.6927H319.983V0Z" fill="black"/>
<path d="M95.298 47.1348C101.233 47.1348 105.485 43.9359 105.485 35.9484V0H85.1115V35.4786C85.1115 43.656 89.3526 47.1348 95.298 47.1348Z" fill="black"/>
<path d="M36.3646 94.1597V93.9697C36.3646 89.1713 32.8755 86.7321 27.0303 86.7321H20.9946V101.397H26.9301C32.5948 101.397 36.3646 98.8681 36.3646 94.1597Z" fill="black"/>
<path d="M319.983 92.3803V69.1578H342V65.279H319.983V41.6866H299.81V65.279H277.753V0H254.994C262.994 2.75911 268.83 8.24735 272.66 15.1751L254.452 25.7917C251.996 21.0932 248.517 17.8043 242.481 17.8043C235.032 17.8043 230.129 24.2922 230.129 32.1897V32.3796C230.129 40.9368 235.222 46.9549 242.481 46.9549C248.707 46.9549 252.196 43.566 254.923 38.6876L273.121 48.9343C267.556 58.7111 258.322 66.6986 241.91 66.6986C223.622 66.6986 207.69 52.973 207.69 32.5795V32.3896C207.69 16.9645 217.175 4.60852 230.791 0.00999679H201.274V65.289H181.663L157.149 34.9288V65.279H135.272V0H127.913V35.2887C127.913 57.7514 114.809 66.5886 95.1075 66.5886C75.4062 66.5886 62.6731 57.5615 62.6731 35.7585V0H36.0839C49.4687 1.97936 58.1413 9.60691 58.1413 22.8826V23.0726C58.1413 38.9575 45.9797 47.4148 28.1633 47.4148H20.9946V65.279H0V69.1578H28.6345C46.1701 69.1578 58.1413 76.9652 58.1413 92.5602V92.7502C58.1413 108.635 45.9797 117.092 28.1633 117.092H20.9946V134.957H0V138.835H28.6345C46.1701 138.835 58.1413 146.643 58.1413 162.238V162.428C58.1413 178.313 45.9797 186.77 28.1633 186.77H20.9946V204.634H0V208.513H28.6345C46.1701 208.513 58.1413 216.32 58.1413 231.915V232.105C58.1413 247.99 45.9797 256.448 28.1633 256.448H20.9946V274.312H0V278.191H28.6345C46.1701 278.191 58.1413 285.998 58.1413 301.593V301.783C58.1413 317.668 45.9797 326.125 28.1633 326.125H20.9946V341.98H77.5518C68.1774 337.631 62.6731 328.814 62.6731 314.469V278.181H85.1115V314.179C85.1115 322.356 89.3525 325.835 95.298 325.835C101.233 325.835 105.485 322.636 105.485 314.649V278.211H127.923V314.029C127.923 328.774 122.278 337.651 112.824 342.01H135.282V278.211H155.926L179.397 307.261V278.211H201.274V342H226.68C215.611 336.722 207.69 325.665 207.69 311.3V311.11C207.69 291.466 223.06 276.801 242.762 276.801C257.28 276.801 267.085 283.849 272.65 293.905L254.452 304.532C251.996 299.834 248.517 296.545 242.481 296.545C235.032 296.545 230.129 303.033 230.129 310.93V311.12C230.129 319.677 235.222 325.695 242.481 325.695C248.707 325.695 252.196 322.306 254.923 317.428L273.121 327.675C269.772 333.563 265.07 338.781 258.302 342.02H277.753V278.211H299.81V301.433H319.983V278.211H342V274.332H319.983V250.739H299.81V274.332H277.753V208.533H299.81V231.755H319.983V208.533H342V204.654H319.983V181.062H299.81V204.654H277.753V138.855H299.81V162.078H319.983V138.855H342V134.977H319.983V111.384H299.81V134.977H277.753V69.1578H299.81V92.3803H319.983V92.3803ZM127.913 244.341C127.913 266.804 114.809 275.641 95.1075 275.641C75.4062 275.641 62.6731 266.614 62.6731 244.811V208.523H85.1115V244.521C85.1115 252.699 89.3525 256.178 95.298 256.178C101.233 256.178 105.485 252.979 105.485 244.991V208.513H127.923V244.341H127.913ZM127.913 174.664C127.913 197.127 114.809 205.964 95.1075 205.964C75.4062 205.964 62.6731 196.937 62.6731 175.134V138.845H85.1115V174.844C85.1115 183.021 89.3525 186.5 95.298 186.5C101.233 186.5 105.485 183.301 105.485 175.314V138.835H127.923V174.664H127.913ZM127.913 104.976C127.913 127.439 114.809 136.276 95.1075 136.276C75.4062 136.276 62.6731 127.249 62.6731 105.446V69.1578H85.1115V105.166C85.1115 113.344 89.3525 116.822 95.298 116.822C101.233 116.822 105.485 113.623 105.485 105.636V69.1578H127.923V104.976H127.913ZM201.274 274.332H181.663L157.149 243.972V274.332H135.272V208.533H155.916L179.387 237.584V208.533H201.264V274.332H201.274ZM201.274 204.644H181.663L157.149 174.284V204.644H135.272V138.845H155.916L179.387 167.896V138.845H201.264V204.644H201.274ZM201.274 134.967H181.663L157.149 104.606V134.967H135.272V69.1578H155.916L179.387 98.2084V69.1578H201.264V134.967H201.274ZM241.91 275.741C223.622 275.741 207.69 262.016 207.69 241.622V241.432C207.69 221.789 223.06 207.123 242.762 207.123C257.28 207.123 267.085 214.171 272.65 224.228L254.452 234.854C251.996 230.156 248.517 226.867 242.481 226.867C235.032 226.867 230.129 233.355 230.129 241.252V241.442C230.129 250 235.222 256.018 242.481 256.018C248.707 256.018 252.196 252.629 254.923 247.75L273.121 257.997C267.556 267.754 258.322 275.741 241.91 275.741ZM241.91 206.054C223.622 206.054 207.69 192.328 207.69 171.935V171.745C207.69 152.101 223.06 137.436 242.762 137.436C257.28 137.436 267.085 144.484 272.65 154.54L254.452 165.167C251.996 160.468 248.517 157.179 242.481 157.179C235.032 157.179 230.129 163.667 230.129 171.565V171.755C230.129 180.312 235.222 186.33 242.481 186.33C248.707 186.33 252.196 182.941 254.923 178.063L273.121 188.309C267.556 198.066 258.322 206.054 241.91 206.054ZM241.91 136.376C223.622 136.376 207.69 122.651 207.69 102.257V102.067C207.69 82.4235 223.06 67.7582 242.762 67.7582C257.28 67.7582 267.085 74.8059 272.65 84.8627L254.452 95.4893C251.996 90.7908 248.517 87.5019 242.481 87.5019C235.032 87.5019 230.129 93.9898 230.129 101.887V102.077C230.129 110.634 235.222 116.652 242.481 116.652C248.707 116.652 252.196 113.264 254.923 108.385L273.121 118.632C267.556 128.379 258.322 136.376 241.91 136.376Z" fill="black"/>
</svg>
