<svg xmlns="http://www.w3.org/2000/svg" viewBox="0 0 131.85 130.4"><defs><style>.cls-1{fill:#fff;}</style></defs><g id="Capa_2" data-name="Capa 2"><g id="Capa_1-2" data-name="Capa 1"><path class="cls-1" d="M23.21,101.66a.9.9,0,0,1,1.29.07.92.92,0,0,1-.08,1.3l-.37.33a3.19,3.19,0,0,1,2.92,1,3.82,3.82,0,0,1-.64,5.52l0,0a3.82,3.82,0,0,1-5.55,0,3.25,3.25,0,0,1-.75-3l-2.12,1.87a.91.91,0,0,1-1.21-1.37Zm1.86,6.89,0,0a2.36,2.36,0,0,0,.4-3.4,2.4,2.4,0,0,0-3.45,0l0,0a2.4,2.4,0,0,0-.36,3.44A2.34,2.34,0,0,0,25.07,108.55Z"/><path class="cls-1" d="M27.69,111.28l0,0a4.25,4.25,0,0,1,6.7,5.24v0a4.19,4.19,0,0,1-5.94.62A4.13,4.13,0,0,1,27.69,111.28Zm5.25,4.13,0,0a2.46,2.46,0,0,0-.34-3.53,2.39,2.39,0,0,0-3.46.5v0a2.45,2.45,0,0,0,.33,3.51A2.39,2.39,0,0,0,32.94,115.41Z"/><path class="cls-1" d="M37.92,114.89a.9.9,0,0,1,1.25-.35.92.92,0,0,1,.33,1.26l-.4.71a2.51,2.51,0,0,1,2.61-.52.85.85,0,0,1,.34,1.24.87.87,0,0,1-1.07.4c-1.24-.46-2.51,0-3.45,1.6l-1.18,2a.91.91,0,0,1-1.58-.91Z"/><path class="cls-1" d="M46,122.6v0a4.13,4.13,0,0,1,5.22-2.73,4,4,0,0,1,2.37,1.8.88.88,0,0,1,.08.69.83.83,0,0,1-1.06.54.93.93,0,0,1-.46-.34,2.56,2.56,0,0,0-1.42-1.16,2.41,2.41,0,0,0-3,1.72v0a2.43,2.43,0,0,0,1.51,3.16,2.66,2.66,0,0,0,1.91-.14.8.8,0,0,1,.54,0,.79.79,0,0,1,.51,1,.73.73,0,0,1-.42.47,3.89,3.89,0,0,1-3.11.21A4.08,4.08,0,0,1,46,122.6Z"/><path class="cls-1" d="M54.36,126.81v0c.26-1.7,1.72-2.34,3.65-2a6.73,6.73,0,0,1,2.07.65l0-.19c.17-1.13-.43-1.83-1.7-2a4.83,4.83,0,0,0-1.8,0,1,1,0,0,1-.29,0,.77.77,0,0,1-.65-.87.79.79,0,0,1,.6-.64,6.77,6.77,0,0,1,2.61-.08,3.61,3.61,0,0,1,2.49,1.27,3.34,3.34,0,0,1,.48,2.57l-.58,3.89a.88.88,0,0,1-1,.73.83.83,0,0,1-.77-.9l0-.29a3.24,3.24,0,0,1-2.74.76A2.55,2.55,0,0,1,54.36,126.81Zm5.5.25.08-.54a5.13,5.13,0,0,0-1.75-.58c-1.16-.18-1.93.21-2,1v0c-.12.77.49,1.3,1.36,1.43A1.89,1.89,0,0,0,59.86,127.06Z"/><path class="cls-1" d="M64.3,123.16a.91.91,0,0,1,.92-.91.93.93,0,0,1,.91.94l0,.82a2.54,2.54,0,0,1,2-1.73.9.9,0,0,1,.15,1.79c-1.3.21-2.21,1.19-2.24,3.08l0,2.36a.92.92,0,0,1-.94.89.9.9,0,0,1-.89-.92Z"/><path class="cls-1" d="M70.18,126.48v0a4.17,4.17,0,0,1,3.72-4.66,4.12,4.12,0,0,1,4.72,3.58v0a4.17,4.17,0,0,1-3.74,4.65A4.11,4.11,0,0,1,70.18,126.48Zm6.63-.82v0a2.46,2.46,0,0,0-2.74-2.25A2.39,2.39,0,0,0,72,126.19v0a2.47,2.47,0,0,0,2.73,2.24A2.4,2.4,0,0,0,76.81,125.66Z"/><path class="cls-1" d="M83.12,117.81a.91.91,0,0,1,1.69-.69l1.34,3.29a3.18,3.18,0,0,1,2-2.41,3.82,3.82,0,0,1,5,2.44v0a3.82,3.82,0,0,1-1.87,5.23,3.24,3.24,0,0,1-3-.28l.15.38a.92.92,0,0,1-.51,1.19.91.91,0,0,1-1.18-.5Zm8.27,3.36v0a2.36,2.36,0,0,0-3.08-1.5,2.4,2.4,0,0,0-1.2,3.24l0,0a2.41,2.41,0,0,0,3.11,1.49A2.34,2.34,0,0,0,91.39,121.17Z"/><path class="cls-1" d="M100.47,120.91a4,4,0,0,1-5.67-1.33l0,0a4,4,0,0,1,1.1-5.59,3.77,3.77,0,0,1,5.3,1.32.85.85,0,0,1-.26,1.2l-4.24,2.65a2.23,2.23,0,0,0,3,.5,2.88,2.88,0,0,0,1.23-1.59.68.68,0,0,1,.31-.39.72.72,0,0,1,1,.24.81.81,0,0,1,.09.6A4.06,4.06,0,0,1,100.47,120.91Zm-1-5a2.07,2.07,0,0,0-2.83-.71,2.17,2.17,0,0,0-.64,2.88Z"/><path class="cls-1" d="M99.16,109.17a.89.89,0,0,1,.13-1.27.91.91,0,0,1,1.29.12l5.88,7.29a.91.91,0,1,1-1.42,1.15Z"/><path class="cls-1" d="M102.24,106.56a.9.9,0,0,1,0-1.28.93.93,0,0,1,1.3,0l6.43,6.82a.91.91,0,0,1-.05,1.29.89.89,0,0,1-1.28,0Z"/><path class="cls-1" d="M109.58,108.34l0,0a4.25,4.25,0,0,1,5.38-6.59l0,0a4.16,4.16,0,0,1,.49,5.94A4.12,4.12,0,0,1,109.58,108.34Zm4.24-5.16,0,0a2.47,2.47,0,0,0-3.54.26,2.4,2.4,0,0,0,.43,3.47l0,0a2.45,2.45,0,0,0,3.51-.26A2.4,2.4,0,0,0,113.82,103.18Z"/><path class="cls-1" d="M12.51,98l0,0a1.87,1.87,0,0,1-1.7-3.34l0,0A1.87,1.87,0,0,1,12.51,98Z"/><path class="cls-1" d="M5.71,87.5a.37.37,0,0,1-.46-.26.36.36,0,0,1,.27-.46l1.36-.35a3.72,3.72,0,0,1-2.63-2.6,3.84,3.84,0,0,1,3-4.63h0a3.86,3.86,0,0,1,4.84,2.63,3.73,3.73,0,0,1-1,3.54l3.65-.94a.35.35,0,0,1,.45.26.36.36,0,0,1-.27.46ZM7.46,80h0A3.1,3.1,0,0,0,5,83.72a3.22,3.22,0,0,0,4,2.23H9a3.22,3.22,0,0,0,2.43-3.87A3,3,0,0,0,7.46,80Z"/><path class="cls-1" d="M.52,77.6A.45.45,0,0,1,0,77.22a.47.47,0,0,1,.39-.53l.25,0a.46.46,0,0,1,.13.91Zm2.92-.49a.37.37,0,1,1-.1-.73l7-1a.35.35,0,0,1,.42.31.36.36,0,0,1-.32.42Z"/><path class="cls-1" d="M10.38,69.49a3.83,3.83,0,0,1-3.9,3.9h0a3.79,3.79,0,0,1-4.13-3.53C2.25,67.7,4,66.27,6.2,66.2a.39.39,0,0,1,.36.36l.18,6a3.07,3.07,0,0,0,2.95-3.12A3.45,3.45,0,0,0,8.55,67a.32.32,0,0,1-.11-.23.36.36,0,0,1,.33-.38.39.39,0,0,1,.26.11A3.93,3.93,0,0,1,10.38,69.49ZM5.9,67c-1.55.16-3,1.09-2.9,2.86a3,3,0,0,0,3.08,2.75Z"/><path class="cls-1" d="M9.86,65h0a.44.44,0,0,1-.3-.17L3.77,58.73l-.56,5.05a.34.34,0,0,1-.37.29.33.33,0,0,1-.29-.36L3.18,58a.34.34,0,0,1,.34-.31h0a.46.46,0,0,1,.31.17l5.78,6,.58-5.26a.33.33,0,0,1,.36-.29.33.33,0,0,1,.3.36l-.66,6A.34.34,0,0,1,9.86,65Z"/><path class="cls-1" d="M8.93,56.61h0c-1.55-.4-2.08-2-1.58-3.89a8.85,8.85,0,0,1,1-2.39L8,50.24A2.21,2.21,0,0,0,5,52.11a4.92,4.92,0,0,0,0,2.25.48.48,0,0,1,0,.17.36.36,0,0,1-.43.25.37.37,0,0,1-.26-.29,5.9,5.9,0,0,1,.08-2.6A3.31,3.31,0,0,1,5.8,49.75a2.93,2.93,0,0,1,2.31-.22l4.34,1.12a.36.36,0,0,1,.28.45.37.37,0,0,1-.46.26l-.93-.25A3.55,3.55,0,0,1,12,54.33C11.66,55.72,10.48,57,8.93,56.61Zm.86-5.91-.85-.22a10.26,10.26,0,0,0-1,2.44c-.41,1.58.07,2.64,1.1,2.91h0c1.09.28,2-.58,2.28-1.72C11.75,52.6,11.15,51.05,9.79,50.7Z"/><path class="cls-1" d="M12.56,48.7a.4.4,0,0,1-.31,0,.37.37,0,0,1-.2-.47.46.46,0,0,1,.16-.2A4.3,4.3,0,0,0,14,46a1.65,1.65,0,0,0-.65-2.28h0c-.84-.34-1.51.43-2.2,1.3-.81,1-1.69,2.17-3,1.65h0a2.27,2.27,0,0,1-1-3.16,5.37,5.37,0,0,1,1.59-2.05.42.42,0,0,1,.39,0,.36.36,0,0,1,.19.47.38.38,0,0,1-.13.18,4.24,4.24,0,0,0-1.41,1.74c-.4,1-.13,1.84.58,2.13h0c.8.33,1.49-.51,2.2-1.41s1.71-2,3-1.53h0a2.39,2.39,0,0,1,1.07,3.32A5.29,5.29,0,0,1,12.56,48.7Z"/><path class="cls-1" d="M12.71,30.6a.36.36,0,0,1-.1-.15L12,28.88a.49.49,0,0,1,0-.5c.16-.24.52-.41.65-.32a.49.49,0,0,1,.13.29L13.05,30a.61.61,0,0,1-.11.51C12.88,30.6,12.77,30.64,12.71,30.6Zm9.21,2.11a.36.36,0,0,1,.1.51.36.36,0,0,1-.52.1l-.92-.64a3,3,0,0,1-.26,3.21,2.94,2.94,0,0,1-4.37.72l-3.61-2.52a.35.35,0,0,1-.1-.51.36.36,0,0,1,.52-.09l3.5,2.43a2.35,2.35,0,0,0,3.56-.51,2.65,2.65,0,0,0-.73-3.77l-3.4-2.36a.35.35,0,0,1-.1-.51.36.36,0,0,1,.52-.1Z"/><path class="cls-1" d="M18.36,25.91a.36.36,0,0,1,0-.52.37.37,0,0,1,.54,0l.8.77A3,3,0,0,1,20.43,23,2.94,2.94,0,0,1,24.86,23L28,26a.35.35,0,0,1,0,.52.37.37,0,0,1-.54,0L24.44,23.6a2.35,2.35,0,0,0-3.59,0A2.65,2.65,0,0,0,21,27.4l3,2.85a.36.36,0,0,1,0,.53.37.37,0,0,1-.53,0Z"/><path class="cls-1" d="M23.45,16.78a.45.45,0,0,1,.06-.64.46.46,0,0,1,.65.05l.16.19a.46.46,0,0,1-.06.65.45.45,0,0,1-.64-.05Zm2,2.21a.36.36,0,0,1,0-.52.36.36,0,0,1,.53,0l4.56,5.41a.36.36,0,0,1,0,.52.36.36,0,0,1-.53,0Z"/><path class="cls-1" d="M30.21,19.59l0,0a4,4,0,0,1,4.08-6.15.33.33,0,0,1,.24.16.37.37,0,0,1-.1.53.35.35,0,0,1-.26.06,3.39,3.39,0,0,0-2.59.44,3.19,3.19,0,0,0-.72,4.49l0,0a3.24,3.24,0,0,0,4.5,1,3.4,3.4,0,0,0,1.38-2.27.41.41,0,0,1,.13-.24.4.4,0,0,1,.51.1.33.33,0,0,1,0,.24,4,4,0,0,1-7.22,1.66Z"/><path class="cls-1" d="M38.19,16.23v0c-.7-1.45.15-2.86,1.94-3.73a9.82,9.82,0,0,1,2.45-.81l-.15-.3c-.67-1.4-1.88-1.71-3.31-1a5,5,0,0,0-1.75,1.42.42.42,0,0,1-.13.11.36.36,0,0,1-.46-.16.38.38,0,0,1,0-.39,5.91,5.91,0,0,1,2-1.62,3.31,3.31,0,0,1,2.56-.3A2.9,2.9,0,0,1,43.06,11L45,15.08a.34.34,0,0,1-.16.49.35.35,0,0,1-.49-.18l-.42-.87a3.52,3.52,0,0,1-2,2.6C40.63,17.74,38.88,17.68,38.19,16.23Zm5.07-3.16-.38-.79a10.12,10.12,0,0,0-2.51.82c-1.47.71-2,1.76-1.51,2.72l0,0a2,2,0,0,0,2.78.62C43.08,15.79,43.87,14.34,43.26,13.07Z"/><path class="cls-1" d="M46.59,13.9a.38.38,0,0,1-.22-.24.37.37,0,0,1,.48-.45,4.37,4.37,0,0,0,2.72,0c1-.32,1.59-1.12,1.32-2v0c-.28-.86-1.3-.88-2.42-.84-1.3,0-2.74.11-3.17-1.2v0A2.27,2.27,0,0,1,47,6.38a5.16,5.16,0,0,1,2.59-.11.39.39,0,0,1,.29.26.37.37,0,0,1-.23.45.42.42,0,0,1-.22,0,4.24,4.24,0,0,0-2.24.06c-1,.32-1.49,1.08-1.25,1.82v0c.27.82,1.36.81,2.51.77s2.66,0,3.08,1.27v0a2.39,2.39,0,0,1-1.84,3A5.28,5.28,0,0,1,46.59,13.9Z"/><path class="cls-1" d="M58.15,6.37v0a1.88,1.88,0,0,1,3.73-.43v0a1.87,1.87,0,0,1-3.72.43Z"/><path class="cls-1" d="M70.61.34A.36.36,0,0,1,71,0a.37.37,0,0,1,.34.41l-.43,4.43A3,3,0,0,1,73.83,3.5,2.94,2.94,0,0,1,76.59,7l-.43,4.38a.36.36,0,0,1-.4.34.37.37,0,0,1-.34-.41L75.84,7a2.34,2.34,0,0,0-2.18-2.85,2.64,2.64,0,0,0-2.93,2.47l-.41,4.12a.34.34,0,0,1-.39.34.36.36,0,0,1-.34-.41Z"/><path class="cls-1" d="M81.47,13.06a3.83,3.83,0,0,1-2.66-4.83v0a3.79,3.79,0,0,1,4.54-3c2.09.54,3,2.6,2.44,4.74a.39.39,0,0,1-.44.25L79.5,8.7a3.05,3.05,0,0,0,2.18,3.69,3.37,3.37,0,0,0,2.67-.4.34.34,0,0,1,.26-.05.35.35,0,0,1,.27.43.39.39,0,0,1-.18.22A4,4,0,0,1,81.47,13.06ZM85.1,9.45c.28-1.54-.23-3.15-1.94-3.59a3,3,0,0,0-3.49,2.2Z"/><path class="cls-1" d="M87.51,10.62v0a4,4,0,0,1,5.19-2.2,4.07,4.07,0,0,1,2.2,2.25.45.45,0,0,1,0,.3.38.38,0,0,1-.69,0A3.37,3.37,0,0,0,92.43,9a3.19,3.19,0,0,0-4.16,1.84v0a3.24,3.24,0,0,0,1.63,4.31,3.44,3.44,0,0,0,2.66-.08.36.36,0,0,1,.27,0,.38.38,0,0,1,.19.47.33.33,0,0,1-.17.18,4,4,0,0,1-5.33-5.15Z"/><path class="cls-1" d="M99.65,8.56a.37.37,0,0,1,.51-.13.37.37,0,0,1,.12.52L98,12.74a3,3,0,0,1,3.22.07,2.94,2.94,0,0,1,1,4.32l-2.29,3.75a.36.36,0,0,1-.51.13.37.37,0,0,1-.13-.52l2.23-3.63a2.35,2.35,0,0,0-.72-3.52,2.63,2.63,0,0,0-3.71.95l-2.17,3.53a.35.35,0,0,1-.5.13.37.37,0,0,1-.13-.52Z"/><path class="cls-1" d="M102.48,20.39l0,0c1-1.23,2.66-1,4.19.25a9.44,9.44,0,0,1,1.74,1.89l.22-.25c1-1.19.78-2.42-.43-3.44a5.11,5.11,0,0,0-2-1,.34.34,0,0,1-.16-.07.36.36,0,0,1,0-.49.39.39,0,0,1,.38-.12,5.9,5.9,0,0,1,2.31,1.2A3.32,3.32,0,0,1,110,20.53a3,3,0,0,1-.8,2.17l-2.88,3.44a.35.35,0,0,1-.52.05.34.34,0,0,1,0-.52l.62-.74a3.51,3.51,0,0,1-3.2-.77C102.1,23.24,101.45,21.62,102.48,20.39Zm5,3.32L108,23a10.24,10.24,0,0,0-1.78-1.94c-1.25-1.05-2.41-1.08-3.1-.26l0,0a2,2,0,0,0,.57,2.8C104.89,24.67,106.54,24.79,107.44,23.71Z"/><path class="cls-1" d="M108.06,27.09a.46.46,0,0,1,.13-.3.37.37,0,0,1,.61.26,4.35,4.35,0,0,0,1.08,2.49,1.64,1.64,0,0,0,2.34.39l0,0c.67-.61.27-1.55-.23-2.55-.58-1.17-1.23-2.45-.21-3.38l0,0a2.27,2.27,0,0,1,3.29.45,5.41,5.41,0,0,1,1.16,2.32.39.39,0,0,1-.12.36.36.36,0,0,1-.51,0,.42.42,0,0,1-.1-.2,4.16,4.16,0,0,0-1-2c-.71-.79-1.6-.92-2.17-.4l0,0c-.63.58-.17,1.57.34,2.6s1.11,2.42.1,3.33l0,0a2.38,2.38,0,0,1-3.45-.46A5.34,5.34,0,0,1,108.06,27.09Z"/><path class="cls-1" d="M116.61,35.3l0,0c1.39-.8,2.86-.06,3.86,1.67a9.33,9.33,0,0,1,1,2.37l.28-.16a2.22,2.22,0,0,0,.78-3.38A5.19,5.19,0,0,0,121,34.14a.51.51,0,0,1-.13-.12.36.36,0,0,1,.52-.46,5.94,5.94,0,0,1,1.77,1.91,3.36,3.36,0,0,1,.49,2.53,3,3,0,0,1-1.5,1.77L118.28,42a.36.36,0,0,1-.51-.13.35.35,0,0,1,.14-.5l.84-.49A3.47,3.47,0,0,1,116,39.08C115.29,37.84,115.22,36.1,116.61,35.3Zm3.54,4.82.75-.44a10,10,0,0,0-1-2.44c-.82-1.42-1.9-1.84-2.83-1.3h0a2,2,0,0,0-.41,2.83C117.42,40.14,118.93,40.82,120.15,40.12Z"/><path class="cls-1" d="M128,46.24a.36.36,0,0,1,.45.26.37.37,0,0,1-.27.46l-1,.26a2.85,2.85,0,0,1,2.15,2.1,2.77,2.77,0,0,1-1,2.93,3.08,3.08,0,0,1,2.31,2.28,2.9,2.9,0,0,1-2.38,3.67L124,59.29a.35.35,0,0,1-.46-.25.38.38,0,0,1,.27-.47L128,57.51c1.61-.42,2.33-1.5,2-2.87A2.48,2.48,0,0,0,126.71,53l-4,1a.36.36,0,0,1-.46-.26.38.38,0,0,1,.28-.46l4.16-1.08c1.56-.4,2.29-1.49,1.94-2.82a2.59,2.59,0,0,0-3.29-1.7l-4,1a.35.35,0,0,1-.45-.26.36.36,0,0,1,.27-.46Z"/><path class="cls-1" d="M126,60.87h0c1.6-.1,2.59,1.22,2.71,3.21a9.51,9.51,0,0,1-.18,2.57l.33,0a2.21,2.21,0,0,0,2.2-2.67,4.94,4.94,0,0,0-.64-2.16.32.32,0,0,1-.06-.16.36.36,0,0,1,.33-.37.37.37,0,0,1,.34.19,5.89,5.89,0,0,1,.73,2.5,3.32,3.32,0,0,1-.7,2.48,2.94,2.94,0,0,1-2.12.92l-4.49.27a.37.37,0,1,1,0-.73l1-.06A3.49,3.49,0,0,1,123.76,64C123.68,62.56,124.4,61,126,60.87Zm1,5.89.87-.05a9.92,9.92,0,0,0,.19-2.63c-.1-1.63-.88-2.49-1.95-2.43h0c-1.12.07-1.7,1.17-1.63,2.34C124.56,65.56,125.6,66.85,127,66.76Z"/><path class="cls-1" d="M131.51,70.59a.37.37,0,1,1-.07.74l-1.11-.1a3,3,0,0,1,1.36,2.91,2.93,2.93,0,0,1-3.44,2.79l-4.38-.39a.35.35,0,0,1-.34-.4.36.36,0,0,1,.41-.34l4.24.38A2.35,2.35,0,0,0,131,74a2.63,2.63,0,0,0-2.5-2.91l-4.12-.37a.36.36,0,0,1-.35-.4.37.37,0,0,1,.41-.34Z"/><path class="cls-1" d="M127,79.18h0a4,4,0,1,1-1.92,7.69h0A4,4,0,0,1,122.16,82,3.94,3.94,0,0,1,127,79.18Zm-1.76,6.9h0a3.23,3.23,0,0,0,4-2.25A3.18,3.18,0,0,0,126.88,80h0a3.23,3.23,0,0,0-4,2.25A3.18,3.18,0,0,0,125.26,86.08Z"/><path class="cls-1" d="M123.59,94.35h0a1.88,1.88,0,0,1-1.69,3.35l0,0a1.87,1.87,0,0,1,1.69-3.34Z"/></g></g></svg>