<svg width="93" height="93" viewBox="0 0 93 93" fill="none" xmlns="http://www.w3.org/2000/svg">
<path d="M74.3809 44.3369C73.499 42.863 72.403 41.8173 71.0298 41.1496C71.055 41.0111 71.0802 40.8851 71.1054 40.7591L71.1306 40.6709C71.244 40.041 71.2818 39.4615 71.2692 38.882C71.244 38.3025 71.1558 37.7104 70.9921 37.0427C70.8157 36.4254 70.6141 35.9089 70.3873 35.4806C69.2535 33.15 66.0159 30.7942 61.9972 30.7942C61.6696 30.7942 61.3547 30.8068 61.0397 30.8446C54.3251 31.2351 50.9488 36.0475 48.0009 40.293C45.7585 43.5558 44.8389 45.0802 44.6625 45.3699C40.6312 51.7948 37.6203 56.1159 32.3292 56.1159C32.115 56.1159 31.8883 56.1159 31.6741 56.1033C27.9073 55.8766 24.9216 53.9995 23.1831 50.2831C21.0793 45.8109 23.3721 41.515 24.7327 40.104C26.8995 37.8616 29.2805 36.753 31.9386 36.753C35.3023 36.753 37.4061 38.4159 37.4061 38.4159L40.6564 33.6287L40.3792 33.4271C39.0564 32.4193 36.1715 31.2729 32.7575 30.9958C32.3922 30.9706 32.0268 30.9454 31.6489 30.9454C25.3877 30.8824 19.3786 35.7829 17.6526 41.0741C15.9267 46.403 16.6322 51.2531 19.6683 55.4482C22.0493 58.7237 26.257 61.6716 31.4347 61.9361C31.6363 61.9487 31.8631 61.9487 32.0646 61.9487C32.2788 61.9613 32.5055 61.9487 32.7197 61.9487C41.7146 61.9487 46.0609 54.8183 49.9158 48.658L49.9788 48.5572C50.9992 46.9321 51.9693 45.3951 53.0401 43.9086C56.4919 38.9576 59.1752 36.7656 61.9972 36.5766C62.0601 36.564 62.1357 36.564 62.1861 36.564C63.6979 36.564 64.8947 37.786 65.1844 38.9702C65.2978 39.3733 65.4112 40.3812 64.4411 40.9103L64.3152 40.9733C63.4333 41.452 62.0979 42.1575 62.4255 43.6944C62.627 44.677 63.3703 45.2314 64.4411 45.2314C64.6427 45.2314 64.8317 45.2188 65.0206 45.1684C65.1088 45.1558 65.2474 45.1432 65.4364 45.1432C66.1923 45.1432 68.1071 45.3699 69.3543 47.4234C71.6975 51.2657 68.7622 54.3018 67.8426 54.8939C66.2552 55.9521 64.9703 56.3301 63.2444 55.9395C60.5862 55.3726 58.8981 53.2436 58.8855 53.2184L55.5471 57.6025L55.6604 57.7914C55.7612 57.9552 58.1296 61.8605 64.8317 61.8605C70.022 61.8605 73.1463 58.056 73.9777 56.8718C76.5477 53.2562 76.6989 48.217 74.3809 44.3369Z" fill="black"/>
<path d="M46.3884 92.3979C21.0163 92.3979 0.380981 71.75 0.380981 46.3905C0.380981 21.0184 21.0163 0.383057 46.3884 0.383057C71.7479 0.383057 92.3832 21.0184 92.3832 46.3905C92.3958 71.7626 71.7479 92.3979 46.3884 92.3979ZM46.3884 6.44263C24.3673 6.44263 6.42796 24.3694 6.42796 46.4031C6.42796 68.4242 24.3547 86.351 46.3884 86.351C68.4095 86.351 86.3363 68.4242 86.3363 46.4031C86.3363 24.3568 68.4095 6.44263 46.3884 6.44263Z" fill="black"/>
</svg>
