<?xml version="1.0" encoding="utf-8"?>
<!-- Generator: Adobe Illustrator 22.0.1, SVG Export Plug-In . SVG Version: 6.00 Build 0)  -->
<svg version="1.1" id="Layer_1" xmlns="http://www.w3.org/2000/svg" xmlns:xlink="http://www.w3.org/1999/xlink" x="0px" y="0px"
	 viewBox="0 0 800 800" style="enable-background:new 0 0 800 800;" xml:space="preserve" fill="#000000">
<g>
	<g>
		<g>
			<path d="M211.9,560.5c1.7-1.5,4.2-1.4,5.7,0.3c1.5,1.7,1.3,4.2-0.3,5.7l-1.6,1.5c4.5-0.5,9.1,0.3,12.9,4.6
				c5.5,6.2,5.9,16.5-2.8,24.3l-0.1,0.1c-8.7,7.7-18.9,6.1-24.5-0.1c-3.9-4.4-4.1-9.1-3.3-13.1l-9.3,8.3c-1.7,1.5-4.2,1.3-5.7-0.4
				c-1.5-1.6-1.4-4.1,0.3-5.6L211.9,560.5z M220.2,590.8L220.2,590.8c5.2-4.6,5.5-11,1.8-15.1c-3.6-4.1-10.2-4.7-15.2-0.2l-0.1,0.1
				c-5,4.5-5.2,11-1.6,15.1C208.7,594.9,215,595.4,220.2,590.8z"/>
			<path d="M231.7,602.8l0.1-0.1c6.2-7.9,17.6-9.5,26.1-2.8c8.5,6.7,9.6,18,3.4,25.9l-0.1,0.1c-6.2,7.8-17.6,9.4-26.1,2.7
				C226.7,622,225.5,610.7,231.7,602.8z M254.8,621l0.1-0.1c3.8-4.9,3.5-11.6-1.5-15.6c-5.1-4-11.4-2.6-15.2,2.2l-0.1,0.1
				c-3.8,4.8-3.5,11.6,1.5,15.5C244.7,627.2,251,625.8,254.8,621z"/>
			<path d="M276.7,618.7c1.1-2,3.5-2.7,5.5-1.5c2,1.1,2.6,3.6,1.5,5.5l-1.8,3.1c3.8-2.9,8.5-4,11.5-2.3c2.2,1.3,2.6,3.4,1.5,5.5
				c-1.1,1.8-3,2.4-4.7,1.8c-5.5-2-11-0.1-15.2,7.1l-5.2,9c-1.1,1.9-3.5,2.6-5.5,1.4c-1.9-1.1-2.6-3.5-1.5-5.5L276.7,618.7z"/>
			<path d="M312.4,652.7l0-0.1c3-9.5,12.9-15.2,23-12c5.3,1.7,8.3,4.5,10.4,7.9c0.4,0.6,0.8,1.8,0.4,3c-0.6,2-2.7,3-4.7,2.4
				c-1-0.3-1.7-0.9-2-1.5c-1.4-2.3-3.2-4.2-6.3-5.1c-5.6-1.8-11.2,1.7-13.1,7.6l0,0.1c-1.9,6,0.7,12,6.6,13.9c3,1,5.8,0.5,8.4-0.6
				c0.6-0.2,1.5-0.4,2.4-0.2c1.8,0.6,2.8,2.6,2.2,4.4c-0.3,1-1,1.7-1.8,2.1c-3.9,1.9-8.1,2.7-13.7,0.9
				C314.3,672.3,309.4,662.2,312.4,652.7z"/>
			<path d="M349.1,671.2l0-0.1c1.1-7.5,7.5-10.3,16-9c3.9,0.6,6.6,1.6,9.1,2.9l0.1-0.9c0.7-4.9-1.9-8-7.5-8.9
				c-3-0.5-5.6-0.3-7.9,0.2c-0.5,0.1-0.9,0.1-1.3,0c-1.8-0.3-3.1-2-2.9-3.8c0.2-1.4,1.4-2.5,2.6-2.8c3.5-0.8,7-1,11.5-0.4
				c5.2,0.8,8.9,2.7,10.9,5.6c2.2,2.9,2.8,6.7,2.1,11.3l-2.6,17.1c-0.3,2.2-2.3,3.6-4.5,3.2c-2.3-0.3-3.6-2.2-3.4-3.9l0.2-1.3
				c-2.8,2.5-6.7,4.2-12.1,3.4C353.3,682.8,348,678.2,349.1,671.2z M373.3,672.3l0.4-2.4c-1.9-1.1-4.5-2.1-7.7-2.6
				c-5.1-0.8-8.5,0.9-9,4.6l0,0.1c-0.5,3.4,2.2,5.7,6,6.3C368.1,679.1,372.6,676.7,373.3,672.3z"/>
			<path d="M392.8,655.1c0-2.3,1.8-4,4.1-4c2.3,0,4,1.9,4,4.1l-0.1,3.6c1.9-4.4,5.4-7.6,9-7.6c2.5,0,4,1.7,3.9,4.1
				c0,2.1-1.5,3.5-3.3,3.8c-5.7,0.9-9.7,5.2-9.9,13.5l-0.2,10.4c0,2.2-1.9,4-4.1,3.9c-2.2,0-4-1.8-3.9-4.1L392.8,655.1z"/>
			<path d="M418.7,669.7l0-0.1c-1.2-10,5.7-19.2,16.4-20.5c10.7-1.3,19.6,5.8,20.8,15.8l0,0.1c1.2,9.9-5.7,19.1-16.4,20.5
				C428.8,686.8,419.9,679.7,418.7,669.7z M447.9,666.1l0-0.1c-0.8-6.1-5.8-10.7-12.1-9.9c-6.4,0.8-9.9,6.3-9.1,12.4l0,0.1
				c0.8,6.1,5.8,10.6,12,9.8C445.2,677.7,448.6,672.1,447.9,666.1z"/>
			<path d="M475.7,631.6c-0.9-2.1,0.1-4.3,2.2-5.2c2.1-0.9,4.4,0.1,5.3,2.2L489,643c1-4.4,3.3-8.5,8.6-10.6
				c7.6-3.1,17.6-0.1,22,10.8l0.1,0.1c4.4,10.8-0.5,19.9-8.2,23c-5.4,2.2-9.9,0.9-13.4-1.2l0.7,1.7c0.8,2-0.2,4.4-2.3,5.2
				c-2,0.8-4.4-0.2-5.2-2.2L475.7,631.6z M512.1,646.4l-0.1-0.1c-2.6-6.3-8.5-8.7-13.5-6.6c-5.1,2.1-7.8,8-5.3,14.3l0.1,0.1
				c2.5,6.2,8.7,8.6,13.7,6.6C512.1,658.5,514.7,652.8,512.1,646.4z"/>
			<path d="M552,645.2c-8.6,5.4-19.2,3.3-25-5.9l-0.1-0.1c-5.3-8.5-3.7-19.3,4.8-24.6c9.5-5.9,19-1.1,23.3,5.8
				c1.2,1.9,0.6,4.2-1.2,5.3l-18.7,11.7c3.8,4.4,8.9,4.9,13.3,2.2c2.9-1.8,4.5-4.2,5.4-7c0.3-0.7,0.6-1.2,1.4-1.7
				c1.5-1,3.4-0.5,4.4,1.1c0.5,0.8,0.6,1.8,0.4,2.7C559.1,638.7,556.7,642.4,552,645.2z M547.8,623.4c-3.2-4.1-8-5.9-12.5-3.1
				c-4.2,2.6-5.1,7.7-2.8,12.7L547.8,623.4z"/>
			<path d="M546.3,593.6c-1.4-1.7-1.2-4.2,0.6-5.6c1.8-1.4,4.3-1.2,5.7,0.6l25.9,32.1c1.4,1.8,1.1,4.2-0.6,5.7
				c-1.7,1.4-4.2,1.2-5.6-0.6L546.3,593.6z"/>
			<path d="M559.9,582.1c-1.5-1.6-1.5-4.1,0.2-5.6c1.6-1.6,4.2-1.5,5.7,0.1l28.3,30c1.6,1.6,1.4,4.1-0.2,5.7
				c-1.6,1.5-4.1,1.5-5.6-0.2L559.9,582.1z"/>
			<path d="M592.1,589.9l-0.1-0.1c-7.8-6.4-9.1-17.8-2.3-26.2c6.8-8.3,18.2-9.2,26-2.9l0.1,0.1c7.7,6.3,9.1,17.8,2.2,26.2
				C611.2,595.3,599.9,596.2,592.1,589.9z M610.8,567.2l-0.1-0.1c-4.8-3.9-11.6-3.7-15.6,1.1c-4.1,5-2.8,11.4,1.9,15.3l0.1,0.1
				c4.7,3.9,11.5,3.7,15.5-1.1C616.8,577.4,615.5,571,610.8,567.2z"/>
		</g>
		<g>
			<g>
				<path d="M164.9,544.2l-0.1,0.1c-4,2.1-9.1,0.2-11-3.6c-1.9-3.8-0.5-9,3.6-11.1l0.1-0.1c4-2.1,9-0.4,11,3.6
					C170.5,537.1,168.9,542.1,164.9,544.2z"/>
				<path d="M134.9,498.1c-1,0.2-1.8-0.2-2-1.1c-0.2-0.9,0.2-1.8,1.2-2l6-1.5c-5-1.7-9.9-4.9-11.6-11.5c-2-7.9,2.3-17.6,13-20.4
					l0.1,0c10.7-2.7,19.3,3.6,21.3,11.6c1.7,6.6-1,11.8-4.4,15.6l16-4.1c1-0.2,1.8,0.2,2,1.1c0.2,0.9-0.2,1.8-1.2,2L134.9,498.1z
					 M142.6,465l-0.1,0c-8.6,2.2-12.6,9.6-10.9,16.5c1.8,6.8,9.2,11.9,17.6,9.8l0.1,0c8.4-2.2,12.4-10.2,10.7-17
					C158.1,467.1,151.5,462.7,142.6,465z"/>
				<path d="M112.1,454.6c-1.1,0.2-2.1-0.6-2.2-1.7c-0.2-1.1,0.6-2.2,1.7-2.3l1.1-0.2c1.1-0.2,2.1,0.7,2.3,1.8
					c0.2,1.1-0.6,2.1-1.7,2.2L112.1,454.6z M124.9,452.4c-0.9,0.1-1.7-0.4-1.9-1.4c-0.1-0.9,0.4-1.7,1.4-1.9l30.9-4.2
					c1-0.1,1.7,0.4,1.9,1.4c0.1,0.9-0.4,1.7-1.4,1.9L124.9,452.4z"/>
				<path d="M155.5,418.9c0.3,8.9-6.6,16.8-17.2,17.2l-0.1,0c-9.8,0.3-17.9-6.4-18.2-15.5c-0.3-9.5,7.4-15.8,17.1-16.1
					c0.8,0,1.6,0.8,1.6,1.5l0.8,26.6c8.4-0.9,13.2-7.1,13-13.7c-0.2-4.9-2.3-8.2-5-10.8c-0.3-0.3-0.5-0.6-0.5-1
					c0-0.9,0.6-1.6,1.5-1.6c0.3,0,0.7,0.1,1.1,0.5C153,409.1,155.3,412.8,155.5,418.9z M135.8,408c-6.8,0.7-13,4.8-12.8,12.6
					c0.2,6.7,6,11.7,13.6,12.1L135.8,408z"/>
				<path d="M153.2,398.9L153.2,398.9c-0.6-0.1-1-0.3-1.4-0.8l-25.5-26.6l-2.4,22.2c-0.1,0.8-0.8,1.4-1.6,1.3
					c-0.8-0.1-1.4-0.8-1.3-1.6l2.8-25.3c0.1-0.8,0.8-1.4,1.5-1.4l0.1,0c0.5,0.1,0.9,0.3,1.3,0.7l25.5,26.6l2.5-23.1
					c0.1-0.8,0.8-1.4,1.6-1.3c0.8,0.1,1.4,0.8,1.3,1.6l-2.9,26.3C154.6,398.3,153.9,399,153.2,398.9z"/>
				<path d="M149.1,362.2l-0.1,0c-6.8-1.8-9.2-8.6-7-17.1c1.2-4.6,2.6-7.6,4.2-10.5l-1.4-0.4c-6.6-1.7-11.1,1.5-12.8,8.2
					c-0.9,3.6-0.8,6.9-0.2,9.9c0.1,0.3,0.1,0.6,0,0.8c-0.2,0.8-1.1,1.3-1.9,1.1c-0.8-0.2-1.1-0.9-1.2-1.3c-0.6-3.7-0.7-7.3,0.3-11.5
					c1.1-4.4,3.3-7.7,6.3-9.4c2.8-1.6,6.1-2,10.1-1l19.1,4.9c1,0.2,1.4,1.1,1.2,2c-0.2,0.9-1,1.4-2,1.1l-4.1-1.1
					c2.6,3.1,4.6,7.9,3,14.2C161.1,358.3,155.9,364,149.1,362.2z M152.9,336.2l-3.7-1c-1.4,2.6-3.1,6.1-4.4,10.8
					c-1.8,7,0.3,11.6,4.9,12.8l0.1,0c4.8,1.2,8.7-2.6,10-7.6C161.5,344.5,158.9,337.7,152.9,336.2z"/>
				<path d="M165.1,327.4c-0.3,0.2-0.9,0.3-1.4,0.1c-0.8-0.3-1.2-1.3-0.9-2.1c0.2-0.4,0.4-0.7,0.7-0.9c3.7-2.3,6.3-5.2,7.9-9
					c1.7-4.2,0.8-8.5-2.9-10l-0.1-0.1c-3.7-1.5-6.7,1.9-9.7,5.7c-3.6,4.5-7.4,9.5-13,7.2l-0.1-0.1c-5-2.1-6.9-7.8-4.4-13.9
					c1.4-3.4,4-6.7,7-9c0.4-0.3,1-0.5,1.7-0.2c0.8,0.3,1.2,1.3,0.9,2.1c-0.2,0.4-0.4,0.6-0.6,0.8c-2.7,2.1-4.9,4.7-6.2,7.7
					c-1.8,4.3-0.6,8.1,2.5,9.4l0.1,0.1c3.5,1.4,6.5-2.3,9.7-6.2c3.5-4.5,7.5-9,13-6.7l0.1,0.1c5.6,2.3,7.2,8.6,4.7,14.6
					C172.4,321.1,168.8,325.1,165.1,327.4z"/>
				<path d="M165.8,247.7c-0.2-0.2-0.4-0.4-0.4-0.6l-2.7-6.9c-0.4-0.9-0.4-1.6,0.1-2.2c0.7-1,2.3-1.8,2.9-1.4
					c0.3,0.2,0.5,0.7,0.6,1.3l1.2,7.3c0.1,1.1,0,1.5-0.5,2.2C166.5,247.7,166,247.9,165.8,247.7z M206.3,257c0.8,0.5,1,1.5,0.5,2.3
					c-0.5,0.8-1.5,1-2.3,0.4l-4-2.8c2,4.1,2.4,9-1.1,14.1c-4.9,7-12.6,7.8-19.2,3.2l-15.9-11.1c-0.8-0.6-1-1.5-0.5-2.3
					c0.5-0.8,1.5-1,2.3-0.4l15.4,10.7c5.7,4,11.7,3.4,15.7-2.2c3.8-5.5,2.6-12.6-3.2-16.6l-15-10.4c-0.8-0.6-1-1.5-0.5-2.3
					c0.5-0.8,1.5-1,2.3-0.4L206.3,257z"/>
				<path d="M190.6,227c-0.7-0.6-0.7-1.6-0.1-2.3c0.6-0.7,1.6-0.7,2.4-0.1l3.6,3.4c-1.3-4.4-1-9.3,3.3-13.8
					c5.9-6.2,13.6-5.8,19.5-0.2l14,13.4c0.7,0.7,0.7,1.6,0.1,2.3c-0.6,0.7-1.6,0.7-2.4,0.1l-13.6-12.9c-5.1-4.8-11.1-5.1-15.8-0.2
					c-4.6,4.8-4.5,12,0.6,16.9l13.2,12.6c0.7,0.7,0.7,1.6,0.1,2.3c-0.6,0.7-1.6,0.7-2.4,0.1L190.6,227z"/>
				<path d="M213,186.9c-0.7-0.9-0.6-2.1,0.2-2.8c0.9-0.7,2.1-0.7,2.9,0.2l0.7,0.9c0.7,0.9,0.6,2.1-0.3,2.9
					c-0.9,0.7-2.1,0.6-2.8-0.2L213,186.9z M221.7,196.6c-0.6-0.7-0.6-1.7,0.1-2.3c0.7-0.6,1.7-0.6,2.3,0.2l20.1,23.8
					c0.6,0.8,0.6,1.7-0.1,2.3c-0.7,0.6-1.7,0.6-2.3-0.2L221.7,196.6z"/>
				<path d="M242.8,199.2l-0.1-0.1c-5.3-7.9-3.7-19,4.4-24.4c4.8-3.3,9.5-3.4,13.6-2.7c0.4,0.1,0.8,0.3,1.1,0.7
					c0.5,0.8,0.3,1.8-0.4,2.3c-0.3,0.2-0.8,0.4-1.2,0.3c-3.7-0.6-7.6-0.6-11.4,1.9c-6.4,4.3-7.7,13-3.2,19.7l0.1,0.1
					c4.6,6.8,13.4,8.7,19.8,4.3c3.6-2.5,5.4-6.2,6.1-10c0.1-0.4,0.2-0.8,0.6-1c0.7-0.4,1.8-0.2,2.2,0.4c0.2,0.3,0.3,0.7,0.2,1.1
					c-0.9,4.8-2.8,9-7.6,12.2C258.9,209.6,248.1,207.1,242.8,199.2z"/>
				<path d="M277.9,184.5l-0.1-0.1c-3.1-6.4,0.7-12.6,8.6-16.4c4.3-2.1,7.5-2.9,10.8-3.6l-0.6-1.3c-3-6.2-8.3-7.5-14.6-4.5
					c-3.4,1.6-5.8,3.8-7.7,6.2c-0.2,0.2-0.4,0.4-0.6,0.5c-0.7,0.3-1.7,0-2-0.7c-0.3-0.7,0-1.5,0.2-1.7c2.5-2.9,5.1-5.3,9-7.1
					c4.1-2,8-2.4,11.3-1.3c3,1.1,5.5,3.4,7.3,7.1l8.6,17.8c0.4,0.9,0.1,1.8-0.7,2.2c-0.8,0.4-1.7,0.1-2.2-0.8l-1.8-3.8
					c-0.7,3.9-3.1,8.6-8.9,11.4C288.6,191.1,281,190.8,277.9,184.5z M300.2,170.5l-1.7-3.5c-2.9,0.6-6.7,1.5-11,3.6
					c-6.5,3.1-8.7,7.7-6.6,12l0.1,0.1c2.1,4.4,7.6,5,12.2,2.7C299.4,182.5,302.9,176.1,300.2,170.5z"/>
				<path d="M314.9,174.2c-0.3-0.1-0.8-0.5-1-1c-0.3-0.8,0.2-1.7,1-2c0.4-0.1,0.8-0.1,1.1,0c4.1,1.3,8.1,1.4,12,0.2
					c4.4-1.4,7-4.9,5.8-8.7l0-0.1c-1.2-3.8-5.7-3.9-10.6-3.7c-5.7,0.2-12.1,0.5-13.9-5.3l0-0.1c-1.7-5.2,1.5-10.3,7.8-12.4
					c3.5-1.1,7.7-1.2,11.4-0.5c0.5,0.1,1,0.4,1.3,1.1c0.3,0.8-0.2,1.7-1,2c-0.4,0.1-0.7,0.1-1,0c-3.3-0.7-6.7-0.8-9.8,0.2
					c-4.4,1.4-6.6,4.8-5.5,8l0,0.1c1.2,3.6,6,3.5,11,3.4c5.7-0.2,11.7-0.1,13.6,5.6l0,0.1c1.9,5.8-1.9,11-8.1,13
					C324.4,175.7,319,175.6,314.9,174.2z"/>
				<path d="M365.8,141l0-0.1c-0.5-4.5,3-8.6,7.3-9.1c4.2-0.5,8.6,2.7,9.1,7.2l0,0.1c0.5,4.5-2.8,8.6-7.3,9.1
					C370.4,148.7,366.3,145.5,365.8,141z"/>
				<path d="M420.6,114.5c0.1-0.9,0.8-1.6,1.8-1.5c0.9,0.1,1.6,0.9,1.5,1.8l-1.9,19.5c2.6-3.8,6.7-6.5,12.9-5.9
					c8.5,0.8,12.9,7.2,12.1,15.2l-1.9,19.3c-0.1,1-0.8,1.6-1.8,1.5c-0.9-0.1-1.6-0.8-1.5-1.8l1.8-18.7c0.7-7-2.8-11.9-9.6-12.6
					c-6.6-0.7-12.2,3.9-12.9,10.9l-1.8,18.1c-0.1,1-0.8,1.6-1.8,1.5c-0.9-0.1-1.6-0.8-1.5-1.8L420.6,114.5z"/>
				<path d="M468.4,170.5c-8.6-2.2-14.3-11-11.7-21.3l0-0.1c2.4-9.5,11.1-15.4,20-13.2c9.2,2.4,13.1,11.5,10.7,20.9
					c-0.2,0.8-1.2,1.3-1.9,1.1l-25.8-6.6c-1.5,8.3,3.1,14.6,9.6,16.3c4.7,1.2,8.5,0.1,11.8-1.8c0.3-0.2,0.7-0.3,1.1-0.2
					c0.8,0.2,1.4,1,1.2,1.9c-0.1,0.3-0.3,0.7-0.8,1C478.6,170.8,474.4,172,468.4,170.5z M484.4,154.6c1.2-6.8-1-13.8-8.5-15.8
					c-6.5-1.7-12.9,2.5-15.4,9.7L484.4,154.6z"/>
				<path d="M495,159.8l0.1-0.1c3.7-8.8,13.9-13.4,22.8-9.7c5.4,2.3,8,6.1,9.7,9.9c0.1,0.3,0.1,0.9,0,1.3c-0.4,0.9-1.3,1.2-2.2,0.9
					c-0.4-0.2-0.7-0.5-0.9-0.8c-1.5-3.4-3.6-6.7-7.8-8.5c-7.1-3-15.1,0.6-18.3,8.1l-0.1,0.1c-3.2,7.5,0,16,7.2,19
					c4,1.7,8.1,1.1,11.7-0.4c0.3-0.1,0.8-0.3,1.2-0.1c0.7,0.3,1.2,1.4,0.9,2.1c-0.1,0.3-0.4,0.6-0.8,0.8c-4.5,1.9-9,2.6-14.4,0.3
					C495.1,178.9,491.3,168.5,495,159.8z"/>
				<path d="M548.5,150.7c0.5-0.8,1.4-1.1,2.2-0.6c0.8,0.5,1,1.5,0.6,2.3L541,169.1c4-2.2,8.9-2.9,14.2,0.3c7.3,4.5,8.5,12.1,4.3,19
					l-10.1,16.5c-0.5,0.9-1.4,1.1-2.2,0.6c-0.8-0.5-1.1-1.4-0.6-2.3l9.8-16c3.6-6,2.7-11.9-3.1-15.5c-5.7-3.5-12.7-1.8-16.4,4.2
					l-9.5,15.5c-0.5,0.9-1.4,1.1-2.2,0.6c-0.8-0.5-1.1-1.4-0.5-2.3L548.5,150.7z"/>
				<path d="M560.9,202.8l0.1-0.1c4.5-5.4,11.7-4.6,18.5,1.1c3.6,3,5.7,5.6,7.7,8.3l0.9-1.1c4.4-5.2,3.5-10.6-1.9-15.1
					c-2.9-2.4-5.8-3.7-8.8-4.5c-0.3-0.1-0.5-0.2-0.7-0.3c-0.6-0.5-0.7-1.5-0.2-2.2c0.5-0.6,1.3-0.6,1.7-0.5
					c3.6,1.1,6.9,2.5,10.2,5.3c3.5,3,5.5,6.3,5.8,9.7c0.3,3.2-0.8,6.4-3.5,9.6l-12.7,15.1c-0.6,0.8-1.6,0.8-2.3,0.2
					c-0.7-0.6-0.8-1.5-0.2-2.3l2.7-3.3c-3.9,1-9.1,0.8-14.1-3.4C559.2,215.3,556.4,208.2,560.9,202.8z M582.8,217.4l2.5-3
					c-1.7-2.4-4.1-5.4-7.8-8.6c-5.5-4.6-10.6-4.7-13.7-1.1l-0.1,0.1c-3.2,3.8-1.4,9,2.5,12.3C571.5,221.6,578.8,222.1,582.8,217.4z"
					/>
				<path d="M585.5,232.2c0-0.3,0.1-0.9,0.5-1.3c0.6-0.6,1.7-0.5,2.3,0.1c0.3,0.3,0.4,0.7,0.5,1c0.5,4.3,2,8,4.7,11
					c3.1,3.4,7.4,4.4,10.3,1.7l0.1-0.1c3-2.7,1.2-6.8-1-11.2c-2.5-5.2-5.4-10.8-0.9-14.9l0.1-0.1c4-3.7,10-2.9,14.5,2
					c2.5,2.7,4.3,6.5,5.1,10.2c0.1,0.5,0,1.1-0.5,1.6c-0.6,0.6-1.7,0.5-2.3-0.1c-0.3-0.3-0.4-0.6-0.4-0.9c-0.7-3.3-2.1-6.5-4.3-8.9
					c-3.1-3.4-7.1-4-9.6-1.7l-0.1,0.1c-2.8,2.5-0.8,6.9,1.5,11.4c2.5,5.1,4.9,10.6,0.5,14.7l-0.1,0.1c-4.5,4.1-10.8,2.8-15.2-2
					C588,241.5,585.9,236.5,585.5,232.2z"/>
				<path d="M623.1,268.4l0.1-0.1c6.1-3.5,12.6-0.3,17,7.3c2.4,4.1,3.5,7.2,4.4,10.5l1.3-0.7c5.9-3.4,6.9-8.8,3.4-14.9
					c-1.9-3.2-4.2-5.5-6.8-7.2c-0.2-0.2-0.4-0.4-0.5-0.5c-0.4-0.7-0.1-1.7,0.6-2.1c0.7-0.4,1.5-0.1,1.7,0.1c3.1,2.2,5.6,4.7,7.8,8.4
					c2.3,4,3,7.8,2.1,11.1c-0.8,3.1-2.9,5.7-6.6,7.8l-17.1,9.9c-0.9,0.5-1.8,0.3-2.2-0.6c-0.5-0.8-0.2-1.7,0.6-2.2l3.7-2.1
					c-4-0.4-8.9-2.4-12.1-8C617.3,279.6,617,271.9,623.1,268.4z M638.7,289.6l3.3-1.9c-0.8-2.8-2-6.5-4.4-10.7
					c-3.6-6.2-8.4-8.1-12.4-5.7l-0.1,0.1c-4.3,2.5-4.4,7.9-1.8,12.4C626.7,289.7,633.3,292.7,638.7,289.6z"/>
				<path d="M673.1,316.5c0.9-0.2,1.8,0.2,2,1.1c0.2,0.9-0.2,1.8-1.2,2l-4.5,1.2c4,1.2,7.9,3.4,9.5,9.2c1.5,5.7-0.9,10.1-4.2,12.9
					c4.2,1.2,8.6,3.8,10.2,10c2,7.8-2.2,14-10.4,16.2l-18.5,4.8c-1,0.3-1.8-0.2-2-1.1s0.2-1.8,1.2-2l18.2-4.7
					c7.1-1.8,10.3-6.6,8.7-12.6c-1.4-5.5-6.9-9.3-14.3-7.4l-17.8,4.6c-1,0.3-1.8-0.2-2-1.1c-0.2-0.9,0.2-1.8,1.2-2l18.4-4.8
					c6.8-1.8,10-6.6,8.5-12.4c-1.5-5.9-7.9-9.2-14.5-7.4l-17.6,4.6c-1,0.2-1.8-0.2-2-1.1c-0.2-0.9,0.2-1.8,1.2-2L673.1,316.5z"/>
				<path d="M664.4,381l0.1,0c7-0.4,11.4,5.4,11.9,14.1c0.3,4.7-0.1,8-0.8,11.3l1.5-0.1c6.8-0.4,10.1-4.8,9.7-11.8
					c-0.2-3.7-1.3-6.8-2.8-9.5c-0.1-0.3-0.2-0.5-0.2-0.7c0-0.8,0.6-1.6,1.4-1.6c0.8,0,1.4,0.5,1.5,0.8c1.7,3.4,2.9,6.7,3.2,11
					c0.3,4.6-0.8,8.3-3.1,10.9c-2.1,2.4-5.2,3.8-9.4,4l-19.7,1.2c-1,0.1-1.7-0.6-1.8-1.5c-0.1-0.9,0.6-1.6,1.6-1.7l4.3-0.3
					c-3.4-2.1-6.8-6.1-7.2-12.6C654.2,388.4,657.4,381.4,664.4,381z M668.9,406.9l3.9-0.2c0.6-2.9,1.1-6.7,0.8-11.6
					c-0.4-7.2-3.9-11-8.6-10.7l-0.1,0c-4.9,0.3-7.5,5.1-7.2,10.3C658.1,401.6,662.7,407.3,668.9,406.9z"/>
				<path d="M688.7,423.7c0.9,0.1,1.6,0.8,1.5,1.7c-0.1,0.9-0.8,1.6-1.8,1.5l-4.9-0.4c3.8,2.6,6.6,6.7,6,12.8
					c-0.8,8.5-7,13-15.1,12.3l-19.3-1.7c-1-0.1-1.6-0.8-1.5-1.7c0.1-0.9,0.8-1.6,1.8-1.5l18.7,1.7c7,0.6,11.9-2.9,12.5-9.7
					c0.6-6.6-4-12.2-11-12.8l-18.2-1.6c-1-0.1-1.6-0.8-1.5-1.7c0.1-0.9,0.8-1.6,1.8-1.5L688.7,423.7z"/>
				<path d="M668.9,461.5l0.1,0c9.2,2.3,15.4,11.5,12.9,21.3c-2.5,9.7-12.1,14.8-21.4,12.5l-0.1,0c-9.2-2.3-15.4-11.5-12.9-21.3
					C650,464.3,659.7,459.2,668.9,461.5z M661.2,491.9l0.1,0c7.9,2,15.8-2.3,17.7-9.9c2-7.8-3-15-10.7-17l-0.1,0
					c-7.9-2-15.8,2.3-17.7,9.9C648.5,482.7,653.4,489.9,661.2,491.9z"/>
				<path d="M653.8,528.3l0.1,0.1c4,2,5.5,7.2,3.6,11.1c-1.9,3.8-7,5.7-11,3.7l-0.1-0.1c-4-2-5.6-7-3.6-11.1
					C644.8,527.9,649.8,526.3,653.8,528.3z"/>
			</g>
		</g>
		<g>
			<g>
				<path d="M531.9,394.7c-4-6.7-8.9-11.4-15.1-14.4c0.1-0.6,0.2-1.2,0.3-1.7l0.1-0.4c0.5-2.8,0.7-5.5,0.6-8.1
					c-0.1-2.6-0.5-5.3-1.3-8.3c-0.8-2.8-1.7-5.1-2.7-7.1c-5.1-10.5-19.8-21.2-37.9-21.2c-1.5,0-2.9,0.1-4.3,0.2
					c-30.3,1.8-45.6,23.5-58.9,42.7c-10.1,14.7-14.3,21.6-15.1,23c-18.2,29-31.8,48.5-55.7,48.5c-0.9,0-2,0-3,0
					c-17-1-30.5-9.5-38.4-26.3c-9.5-20.2,0.8-39.6,7-46c9.8-10.1,20.6-15.1,32.6-15.1c15.2,0,24.7,7.5,24.7,7.5l14.7-21.6l-1.2-0.9
					c-6-4.6-19-9.7-34.5-11c-1.6-0.1-3.3-0.2-5-0.2c-28.3-0.3-55.5,21.9-63.3,45.8c-7.8,24.1-4.6,46,9.1,65
					c10.8,14.8,29.8,28.1,53.2,29.3c0.9,0,2,0.1,2.9,0.1c1,0.1,2,0,3,0c40.6,0,60.3-32.2,77.7-60.1l0.3-0.5c4.6-7.3,9-14.3,13.8-21
					c15.6-22.4,27.7-32.3,40.5-33.1c0.3-0.1,0.6-0.1,0.9-0.1c6.8,0,12.2,5.5,13.6,10.8c0.5,1.8,1.1,6.4-3.4,8.7l-0.6,0.3
					c-4,2.1-10,5.3-8.6,12.3c0.9,4.4,4.3,7,9.1,7c0.9,0,1.8-0.1,2.6-0.3c0.4-0.1,1-0.1,1.9-0.1c3.4,0,12.1,1,17.7,10.3
					c10.6,17.3-2.7,31.1-6.8,33.8c-7.2,4.8-13,6.5-20.8,4.7c-12-2.6-19.6-12.2-19.7-12.3l-15.1,19.8l0.5,0.9
					c0.5,0.8,11.1,18.4,41.4,18.4c23.5,0,37.6-17.2,41.4-22.5C541.6,435,542.3,412.2,531.9,394.7z"/>
				<path d="M405.3,611.9c-114.7,0-207.9-93.3-207.9-207.9c0-114.7,93.3-207.9,207.9-207.9c114.6,0,207.9,93.3,207.9,207.9
					C613.2,518.6,519.9,611.9,405.3,611.9z M405.3,223.4c-99.5,0-180.6,81-180.6,180.6c0,99.5,81,180.5,180.6,180.5
					c99.5,0,180.5-81,180.5-180.5C585.9,304.4,504.9,223.4,405.3,223.4z"/>
			</g>
		</g>
	</g>
</g>
</svg>
