<svg width="129" height="128" viewBox="0 0 129 128" fill="none" xmlns="http://www.w3.org/2000/svg">
<path d="M22.606 99.0221C22.9839 98.6946 23.5257 98.7072 23.8658 99.0851C24.1933 99.4631 24.1682 100.017 23.7902 100.358L23.4249 100.685C24.4075 100.572 25.4279 100.748 26.272 101.706C27.4814 103.066 27.5822 105.359 25.6421 107.085H25.6169C23.6894 108.798 21.4218 108.433 20.2124 107.06C19.3558 106.09 19.3054 105.057 19.4817 104.175L17.4157 106.001C17.0378 106.329 16.4961 106.291 16.1559 105.913C15.8284 105.548 15.8536 104.994 16.2315 104.666L22.606 99.0221ZM24.4201 105.737L24.4453 105.712C25.5665 104.716 25.6295 103.305 24.8358 102.398C24.0296 101.491 22.5808 101.365 21.4722 102.348L21.447 102.373C20.3384 103.356 20.288 104.817 21.0943 105.724C21.8879 106.631 23.2737 106.745 24.4201 105.737Z" fill="white"/>
<path d="M26.9649 108.395L26.9775 108.37C28.3507 106.619 30.8828 106.266 32.7473 107.74C34.6244 109.214 34.8764 111.721 33.5032 113.472L33.4906 113.497C32.13 115.235 29.5979 115.588 27.7082 114.102C25.8563 112.628 25.6043 110.121 26.9649 108.395ZM32.0796 112.414L32.0922 112.388C32.9363 111.318 32.8607 109.806 31.7647 108.949C30.6435 108.067 29.2325 108.382 28.4011 109.44L28.3884 109.466C27.5444 110.524 27.62 112.036 28.716 112.892C29.8372 113.787 31.2482 113.472 32.0796 112.414Z" fill="white"/>
<path d="M36.9298 111.897C37.1817 111.469 37.7108 111.305 38.1392 111.557C38.5675 111.809 38.7187 112.351 38.4667 112.779L38.0762 113.472C38.9202 112.829 39.9533 112.578 40.6209 112.968C41.0997 113.245 41.2005 113.724 40.9485 114.177C40.7091 114.581 40.2934 114.694 39.9155 114.568C38.7061 114.127 37.4715 114.53 36.5518 116.13L35.4054 118.121C35.1661 118.536 34.6244 118.688 34.1834 118.436C33.7677 118.196 33.6039 117.667 33.8559 117.226L36.9298 111.897Z" fill="white"/>
<path d="M44.8286 119.418L44.8412 119.393C45.5089 117.289 47.7009 116.029 49.9308 116.747C51.0898 117.113 51.7701 117.755 52.2362 118.498C52.3118 118.637 52.4 118.889 52.3118 119.166C52.1732 119.607 51.7197 119.821 51.2787 119.683C51.0646 119.62 50.9134 119.468 50.8252 119.355C50.5103 118.851 50.1072 118.435 49.4395 118.221C48.2049 117.831 46.9577 118.612 46.5419 119.897L46.5294 119.922C46.1136 121.245 46.6931 122.58 47.9907 122.996C48.6584 123.21 49.2631 123.109 49.8552 122.857C49.9812 122.807 50.1827 122.757 50.3717 122.82C50.7748 122.945 50.989 123.386 50.863 123.79C50.7874 124.016 50.6489 124.167 50.4599 124.243C49.6032 124.671 48.671 124.835 47.4364 124.445C45.2444 123.764 44.161 121.522 44.8286 119.418Z" fill="white"/>
<path d="M52.9417 123.525V123.5C53.1937 121.837 54.6047 121.22 56.4817 121.497C57.3384 121.623 57.9305 121.85 58.4974 122.127L58.5226 121.938C58.6864 120.842 58.1069 120.161 56.8723 119.972C56.2046 119.872 55.6377 119.909 55.1212 120.023C55.0204 120.035 54.9196 120.035 54.844 120.023C54.4409 119.96 54.1511 119.595 54.2141 119.179C54.2645 118.864 54.5165 118.612 54.7936 118.549C55.5621 118.385 56.3306 118.322 57.3384 118.473C58.4848 118.65 59.3037 119.078 59.7572 119.721C60.2359 120.363 60.3871 121.22 60.2359 122.215L59.669 125.994C59.5934 126.473 59.1651 126.788 58.6864 126.712C58.1824 126.637 57.8801 126.234 57.9431 125.843L57.9809 125.553C57.3636 126.095 56.4817 126.473 55.3101 126.297C53.874 126.082 52.715 125.062 52.9417 123.525ZM58.2958 123.764L58.3714 123.235C57.9431 122.996 57.3636 122.769 56.6707 122.668C55.5369 122.492 54.7936 122.883 54.6676 123.676V123.701C54.5543 124.445 55.1463 124.961 55.9904 125.087C57.162 125.276 58.1573 124.734 58.2958 123.764Z" fill="white"/>
<path d="M62.6295 119.96C62.6421 119.456 63.0326 119.065 63.5239 119.078C64.0279 119.091 64.4184 119.494 64.4058 119.985L64.3932 120.779C64.8215 119.809 65.6026 119.091 66.3836 119.103C66.938 119.116 67.2655 119.481 67.2529 119.998C67.2403 120.464 66.9254 120.779 66.5349 120.842C65.2625 121.043 64.3806 122.001 64.3554 123.84L64.3176 126.133C64.305 126.624 63.9019 127.015 63.4106 127.002C62.9193 126.989 62.5287 126.599 62.5413 126.108L62.6295 119.96Z" fill="white"/>
<path d="M68.3489 123.197V123.172C68.0718 120.968 69.6087 118.927 71.9645 118.624C74.3329 118.335 76.2982 119.909 76.5627 122.114V122.139C76.8399 124.331 75.3029 126.372 72.9219 126.675C70.5787 126.964 68.6261 125.39 68.3489 123.197ZM74.8116 122.391V122.366C74.6478 121.005 73.5266 119.998 72.1409 120.174C70.7299 120.35 69.9614 121.572 70.1252 122.92V122.946C70.289 124.293 71.4102 125.289 72.7834 125.125C74.2069 124.949 74.9754 123.727 74.8116 122.391Z" fill="white"/>
<path d="M80.9593 114.744C80.7704 114.278 80.9845 113.787 81.4507 113.598C81.9168 113.409 82.4207 113.611 82.6096 114.077L83.9072 117.277C84.134 116.307 84.6379 115.4 85.8095 114.933C87.4976 114.241 89.6897 114.908 90.6723 117.314L90.6849 117.34C91.6549 119.721 90.5715 121.736 88.8582 122.429C87.6614 122.92 86.6662 122.618 85.8851 122.165L86.0363 122.53C86.2252 122.983 85.9985 123.5 85.5324 123.689C85.0788 123.878 84.5623 123.651 84.3859 123.198L80.9593 114.744ZM89.0094 118.02L88.9968 117.995C88.4299 116.609 87.1197 116.067 85.9985 116.521C84.8773 116.974 84.2726 118.297 84.8395 119.683L84.8521 119.708C85.4064 121.081 86.7669 121.61 87.8882 121.157C89.022 120.703 89.5889 119.443 89.0094 118.02Z" fill="white"/>
<path d="M97.8531 117.768C95.9383 118.965 93.6076 118.498 92.3353 116.47L92.3227 116.445C91.1385 114.555 91.5038 112.174 93.3935 111.003C95.4847 109.693 97.6012 110.763 98.5586 112.288C98.8232 112.716 98.6846 113.22 98.2941 113.459L94.162 116.042C94.9934 117.012 96.1272 117.138 97.1099 116.521C97.7524 116.117 98.1051 115.588 98.3067 114.971C98.3697 114.807 98.4326 114.706 98.609 114.593C98.9492 114.379 99.3775 114.48 99.5916 114.832C99.705 115.021 99.7176 115.236 99.6798 115.425C99.4153 116.332 98.8736 117.138 97.8531 117.768ZM96.9083 112.93C96.2028 112.023 95.1446 111.62 94.1494 112.237C93.2297 112.817 93.0281 113.938 93.5195 115.047L96.9083 112.93Z" fill="white"/>
<path d="M96.5807 106.341C96.2783 105.963 96.3287 105.409 96.7193 105.094C97.1098 104.779 97.6641 104.842 97.9665 105.22L103.699 112.325C104.013 112.716 103.938 113.258 103.56 113.573C103.182 113.875 102.628 113.825 102.313 113.447L96.5807 106.341Z" fill="white"/>
<path d="M99.579 103.797C99.2515 103.444 99.2515 102.89 99.6168 102.549C99.9821 102.209 100.549 102.222 100.877 102.575L107.138 109.214C107.478 109.579 107.453 110.133 107.087 110.473C106.735 110.801 106.18 110.801 105.84 110.436L99.579 103.797Z" fill="white"/>
<path d="M106.722 105.523L106.697 105.51C104.983 104.099 104.681 101.567 106.193 99.7276C107.705 97.8883 110.224 97.6867 111.937 99.0977L111.963 99.1103C113.663 100.509 113.966 103.041 112.441 104.905C110.942 106.732 108.435 106.934 106.722 105.523ZM110.854 100.496L110.829 100.483C109.771 99.6142 108.272 99.652 107.377 100.735C106.47 101.844 106.76 103.255 107.805 104.112L107.831 104.124C108.876 104.981 110.375 104.943 111.257 103.872C112.177 102.764 111.9 101.353 110.854 100.496Z" fill="white"/>
<path d="M12.175 95.4065L12.1498 95.4191C11.2554 95.8726 10.1467 95.4695 9.70582 94.6128C9.2775 93.7687 9.60505 92.6223 10.4869 92.1688L10.5121 92.1562C11.4065 91.7027 12.5026 92.068 12.9561 92.9625C13.4222 93.8569 13.0695 94.953 12.175 95.4065Z" fill="white"/>
<path d="M5.56103 85.2274C5.34687 85.2778 5.17049 85.177 5.1201 84.9754C5.06971 84.7738 5.1705 84.5849 5.38467 84.5219L6.70745 84.1817C5.58623 83.8038 4.51541 83.0857 4.13747 81.6496C3.68395 79.8985 4.64138 77.7568 7.00978 77.1395L7.03498 77.1269C9.40338 76.5222 11.3057 77.9332 11.7466 79.6843C12.1245 81.1331 11.5324 82.2921 10.7766 83.1235L14.3291 82.2165C14.5433 82.1661 14.7197 82.2669 14.7701 82.4684C14.8205 82.67 14.7197 82.859 14.5055 82.922L5.56103 85.2274ZM7.26174 77.8828L7.23655 77.8954C5.32168 78.3867 4.43982 80.0245 4.83036 81.5488C5.22089 83.0605 6.85862 84.1943 8.7105 83.7156L8.7357 83.703C10.6002 83.2243 11.482 81.448 11.1041 79.9363C10.701 78.3615 9.21441 77.3915 7.26174 77.8828Z" fill="white"/>
<path d="M0.496728 75.59C0.244771 75.6278 0.0306077 75.464 0.00541195 75.2121C-0.0323817 74.9601 0.131395 74.7333 0.383352 74.6955L0.635306 74.6578C0.887263 74.62 1.10144 74.7963 1.13923 75.0483C1.17703 75.3002 1.01325 75.5144 0.761292 75.5522L0.496728 75.59ZM3.34386 75.1113C3.14229 75.1365 2.95332 75.0105 2.92813 74.8089C2.90293 74.6074 3.02891 74.4184 3.24307 74.3932L10.0711 73.461C10.2853 73.4358 10.4617 73.5617 10.4869 73.7633C10.512 73.9649 10.3861 74.1538 10.1719 74.179L3.34386 75.1113Z" fill="white"/>
<path d="M10.1089 67.6911C10.1719 69.6689 8.64755 71.42 6.30434 71.4956H6.27914C4.09971 71.5586 2.32342 70.0847 2.26043 68.0564C2.19745 65.9526 3.88556 64.5542 6.0398 64.4912C6.21617 64.4912 6.37994 64.655 6.39254 64.8314L6.5815 70.7146C8.44598 70.5256 9.4916 69.1524 9.45381 67.6785C9.41602 66.6077 8.94989 65.8644 8.34519 65.2849C8.2822 65.2219 8.23181 65.1589 8.23181 65.0581C8.23181 64.8691 8.3704 64.7054 8.55937 64.6928C8.63496 64.6928 8.72314 64.718 8.81132 64.8062C9.5546 65.5116 10.0711 66.3305 10.1089 67.6911ZM5.75003 65.2723C4.23829 65.4235 2.86512 66.3305 2.91551 68.0564C2.9659 69.543 4.25089 70.6516 5.91381 70.7272L5.75003 65.2723Z" fill="white"/>
<path d="M9.60499 63.2692H9.5924C9.47901 63.2566 9.39083 63.2062 9.30265 63.1055L3.6714 57.2097L3.12968 62.1228C3.10448 62.2992 2.95331 62.4252 2.77694 62.4126C2.60057 62.3874 2.4746 62.2362 2.4872 62.0598L3.1045 56.4538C3.12969 56.2774 3.29346 56.1388 3.43204 56.1514H3.44463C3.55801 56.164 3.64621 56.2144 3.73439 56.3152L9.36564 62.211L9.93254 57.0837C9.95774 56.9073 10.1089 56.7813 10.2853 56.7939C10.4617 56.8191 10.5876 56.9703 10.575 57.1467L9.93254 62.9543C9.91995 63.1307 9.75616 63.2818 9.60499 63.2692Z" fill="white"/>
<path d="M8.69798 55.1436L8.67278 55.131C7.16103 54.7404 6.64452 53.2287 7.12324 51.339C7.3878 50.3312 7.69014 49.6635 8.05547 49.0084L7.74053 48.9328C6.26658 48.5549 5.28395 49.2604 4.89341 50.7469C4.69185 51.5406 4.71703 52.2713 4.84301 52.939C4.85561 53.0019 4.85561 53.0649 4.84301 53.1027C4.79262 53.2791 4.60365 53.3925 4.42728 53.3421C4.25091 53.3043 4.17533 53.1405 4.16274 53.0649C4.02416 52.2335 3.99896 51.4524 4.23832 50.5328C4.49028 49.5501 4.969 48.832 5.62409 48.4415C6.22879 48.0762 6.97206 48.0006 7.86651 48.2273L12.0994 49.3234C12.3136 49.3738 12.4143 49.5627 12.3639 49.7517C12.3136 49.9533 12.1372 50.054 11.923 50.0036L11.016 49.7643C11.5829 50.4446 12.0364 51.5154 11.6837 52.9012C11.3561 54.2743 10.2097 55.5341 8.69798 55.1436ZM9.52942 49.3864L8.69798 49.1722C8.38303 49.7391 8.00509 50.5076 7.72794 51.5532C7.3248 53.0901 7.79093 54.1231 8.81135 54.3877L8.83654 54.4003C9.89476 54.6775 10.764 53.8334 11.0538 52.7248C11.4443 51.2256 10.8522 49.7265 9.52942 49.3864Z" fill="white"/>
<path d="M12.2379 47.4339C12.1749 47.4716 12.0364 47.4968 11.923 47.4465C11.7466 47.3709 11.6584 47.1567 11.734 46.9803C11.7718 46.9047 11.8222 46.8292 11.8978 46.7914C12.7167 46.2874 13.2962 45.6324 13.6363 44.8009C14.0268 43.8561 13.8127 42.9112 13.0064 42.5837L12.9812 42.5711C12.1623 42.2309 11.5073 42.9868 10.8396 43.8435C10.0459 44.8387 9.18924 45.9473 7.95465 45.4434L7.92947 45.4308C6.80826 44.9773 6.39251 43.7049 6.94682 42.3569C7.24916 41.6136 7.84128 40.883 8.49637 40.3664C8.58455 40.3035 8.72313 40.2531 8.87431 40.3161C9.05068 40.3916 9.13886 40.6058 9.06327 40.7822C9.02547 40.8578 8.97508 40.9208 8.92469 40.9459C8.31999 41.3995 7.82867 41.979 7.56412 42.6467C7.17358 43.6041 7.43814 44.4356 8.13102 44.7253L8.15622 44.7379C8.93729 45.0529 9.60497 44.234 10.2979 43.3521C11.0663 42.3695 11.9608 41.3617 13.1828 41.8656L13.208 41.8782C14.4426 42.3821 14.7953 43.7679 14.2536 45.1032C13.8505 46.0481 13.0568 46.9425 12.2379 47.4339Z" fill="white"/>
<path d="M12.3765 29.8094C12.3261 29.7716 12.3009 29.7212 12.2758 29.6708L11.671 28.1339C11.5955 27.9323 11.5829 27.7937 11.6836 27.6425C11.8474 27.4158 12.1876 27.2394 12.3135 27.3276C12.3891 27.378 12.4143 27.4914 12.4395 27.6173L12.6915 29.2299C12.7293 29.4692 12.6915 29.57 12.5781 29.7212C12.5403 29.8094 12.4395 29.8472 12.3765 29.8094ZM21.3462 31.8628C21.51 31.9762 21.5604 32.1904 21.447 32.3667C21.3336 32.5305 21.1195 32.5809 20.9305 32.4549L20.036 31.8376C20.477 32.7573 20.5651 33.8407 19.7841 34.9619C18.7007 36.524 17 36.6878 15.526 35.6674L12.0112 33.2234C11.8348 33.0974 11.797 32.8959 11.9104 32.7195C12.0238 32.5557 12.238 32.5053 12.4269 32.6313L15.841 34.9997C17.1133 35.8816 18.4361 35.743 19.3054 34.5084C20.1494 33.299 19.8723 31.7243 18.5873 30.8424L15.274 28.537C15.0977 28.411 15.0599 28.2094 15.1733 28.0331C15.2866 27.8693 15.5008 27.8189 15.6898 27.9449L21.3462 31.8628Z" fill="white"/>
<path d="M17.8819 25.2362C17.7307 25.0977 17.7181 24.8709 17.8566 24.7323C17.9952 24.5812 18.222 24.5686 18.3732 24.7197L19.1668 25.4756C18.8771 24.5056 18.9527 23.4221 19.8975 22.4269C21.2077 21.0537 22.9084 21.1419 24.206 22.3891L27.3051 25.3496C27.4688 25.5008 27.4688 25.715 27.3303 25.8535C27.1917 26.0047 26.9649 26.0173 26.8137 25.8661L23.8028 23.0064C22.6816 21.9356 21.3463 21.8726 20.3006 22.9686C19.2802 24.0394 19.318 25.6268 20.4392 26.6976L23.3619 29.4817C23.5257 29.6329 23.5257 29.8471 23.3871 29.9856C23.2485 30.1368 23.0218 30.1494 22.8706 29.9982L17.8819 25.2362Z" fill="white"/>
<path d="M22.8454 16.3422C22.6816 16.1532 22.7068 15.8761 22.8957 15.7249C23.0847 15.5611 23.3619 15.5737 23.5256 15.7627L23.6894 15.9517C23.8532 16.1406 23.8154 16.4178 23.6264 16.5816C23.4374 16.7453 23.1603 16.7201 23.0091 16.5312L22.8454 16.3422ZM24.7728 18.4964C24.6343 18.3327 24.6468 18.1185 24.8106 17.9925C24.9618 17.8539 25.1886 17.8665 25.3271 18.0429L29.7616 23.3088C29.9002 23.4726 29.8876 23.6868 29.7238 23.8127C29.56 23.9513 29.3459 23.9387 29.2073 23.7623L24.7728 18.4964Z" fill="white"/>
<path d="M29.4215 19.0757L29.4088 19.0505C28.2246 17.312 28.59 14.8554 30.3789 13.646C31.4497 12.9154 32.4701 12.9028 33.3898 13.0539C33.4654 13.0665 33.5662 13.1295 33.6291 13.2177C33.7425 13.3941 33.7047 13.6082 33.5284 13.7342C33.4528 13.7846 33.352 13.8224 33.2764 13.7972C32.4575 13.6586 31.6009 13.6586 30.7568 14.2255C29.3459 15.183 29.0435 17.1105 30.0513 18.597L30.0639 18.6222C31.0844 20.1214 33.0244 20.5497 34.448 19.5796C35.2543 19.0379 35.6322 18.2065 35.796 17.375C35.8086 17.2994 35.8338 17.1986 35.9219 17.1483C36.0731 17.0475 36.3125 17.0979 36.4133 17.2364C36.4511 17.2994 36.4763 17.3876 36.4637 17.4632C36.2747 18.5214 35.8464 19.4411 34.7881 20.1591C32.9866 21.3811 30.6057 20.8268 29.4215 19.0757Z" fill="white"/>
<path d="M37.1944 15.8131L37.1818 15.7879C36.5015 14.377 37.333 13.0038 39.0841 12.1597C40.0289 11.7062 40.7344 11.5172 41.465 11.3661L41.3265 11.0763C40.6714 9.71574 39.4998 9.41339 38.1014 10.0811C37.3582 10.4338 36.829 10.9251 36.4007 11.4542C36.3629 11.5046 36.3125 11.5424 36.2748 11.5676C36.111 11.6432 35.8968 11.5676 35.8212 11.4039C35.7456 11.2401 35.8086 11.0763 35.8716 11.0259C36.4133 10.3834 36.9928 9.86692 37.8621 9.45119C38.7817 9.01026 39.6258 8.90948 40.3565 9.16144C41.0242 9.4008 41.5659 9.90471 41.969 10.7362L43.8712 14.6793C43.972 14.8809 43.8964 15.0698 43.7075 15.1706C43.5185 15.2588 43.3296 15.1958 43.2288 14.9942L42.8256 14.1502C42.6745 15.0194 42.1454 16.0651 40.8604 16.6824C39.5754 17.2871 37.8747 17.2241 37.1944 15.8131ZM42.1327 12.7266L41.7674 11.9582C41.1249 12.0841 40.2935 12.2983 39.3234 12.7644C37.8873 13.4573 37.4086 14.4777 37.8621 15.41L37.8747 15.4352C38.3534 16.4178 39.5502 16.5438 40.5832 16.0399C41.9564 15.3848 42.7248 13.9612 42.1327 12.7266Z" fill="white"/>
<path d="M45.3703 13.5329C45.2947 13.5077 45.194 13.4195 45.1562 13.3061C45.0932 13.1298 45.2066 12.9156 45.3829 12.8652C45.4711 12.84 45.5593 12.84 45.6349 12.8652C46.5546 13.1549 47.4238 13.1801 48.2804 12.903C49.2505 12.588 49.83 11.8196 49.5654 10.9881L49.5528 10.9629C49.2757 10.1189 48.2805 10.1063 47.197 10.1441C45.9247 10.1819 44.5263 10.2448 44.1105 8.97246L44.098 8.94726C43.7326 7.80085 44.4255 6.65445 45.8113 6.21352C46.5797 5.96156 47.512 5.93637 48.3308 6.11274C48.4316 6.13793 48.5576 6.21352 48.608 6.3647C48.671 6.54107 48.5576 6.75523 48.3812 6.80562C48.2931 6.83082 48.2174 6.83082 48.1671 6.81822C47.4364 6.65445 46.6679 6.65445 45.9877 6.86861C45.005 7.18356 44.5389 7.92683 44.7657 8.64491L44.7782 8.67011C45.0428 9.46377 46.101 9.45117 47.2222 9.41338C48.4694 9.36299 49.8174 9.40078 50.2205 10.6606L50.2331 10.6858C50.6489 11.9582 49.8174 13.1298 48.4442 13.5707C47.4742 13.873 46.2774 13.8478 45.3703 13.5329Z" fill="white"/>
<path d="M56.6329 6.20086V6.17566C56.5195 5.18043 57.288 4.27338 58.2454 4.1726C59.1777 4.05922 60.1477 4.7647 60.2611 5.75993V5.78513C60.3745 6.78036 59.6438 7.67481 58.6486 7.78819C57.6659 7.91417 56.7463 7.19609 56.6329 6.20086Z" fill="white"/>
<path d="M68.7647 0.330292C68.7898 0.128726 68.9536 -0.0224484 69.1552 0.00274731C69.3567 0.0279431 69.5079 0.204313 69.4827 0.405879L69.0544 4.71435C69.6339 3.88289 70.5409 3.27819 71.9015 3.41677C73.7912 3.60574 74.7612 5.0041 74.5849 6.793L74.1691 11.0511C74.144 11.2652 73.9802 11.4038 73.7786 11.3786C73.5771 11.3534 73.4259 11.2023 73.4511 10.9755L73.8542 6.84339C74.0054 5.30645 73.2369 4.21044 71.7252 4.05926C70.2638 3.92069 69.0166 4.91592 68.8654 6.46546L68.4749 10.4842C68.4497 10.6983 68.2985 10.8369 68.0844 10.8117C67.8828 10.7865 67.7316 10.6354 67.7568 10.4086L68.7647 0.330292Z" fill="white"/>
<path d="M79.3594 12.7267C77.4446 12.2354 76.1848 10.2827 76.7643 8.01507L76.7768 7.98987C77.3186 5.87343 79.2334 4.57585 81.1987 5.07976C83.2396 5.59628 84.1088 7.61193 83.5671 9.70318C83.5293 9.87955 83.3152 9.99293 83.1388 9.94254L77.432 8.48119C77.0918 10.3205 78.1248 11.7062 79.5484 12.0716C80.594 12.3361 81.4255 12.0968 82.1562 11.681C82.2317 11.6433 82.3073 11.6181 82.4081 11.6433C82.5971 11.6936 82.7105 11.87 82.6727 12.059C82.6601 12.1346 82.6097 12.2102 82.4963 12.2731C81.6018 12.7897 80.6696 13.0542 79.3594 12.7267ZM82.8868 9.19927C83.164 7.70012 82.6727 6.13798 80.9971 5.70966C79.561 5.34432 78.1374 6.26396 77.5957 7.85129L82.8868 9.19927Z" fill="white"/>
<path d="M85.23 10.3457L85.2426 10.3205C86.0615 8.38046 88.3165 7.34744 90.2944 8.1789C91.4912 8.68281 92.0581 9.52687 92.436 10.3709C92.4612 10.4465 92.4738 10.5599 92.4234 10.6607C92.3478 10.8496 92.1336 10.9378 91.9447 10.8622C91.8691 10.8244 91.7809 10.7615 91.7431 10.6859C91.403 9.9174 90.9494 9.19932 90.0046 8.80879C88.4299 8.1411 86.6536 8.94737 85.9607 10.6103L85.9481 10.6355C85.2426 12.2984 85.9481 14.1629 87.5354 14.8306C88.4299 15.2085 89.3369 15.0699 90.118 14.755C90.1936 14.7172 90.2818 14.692 90.3826 14.7424C90.5463 14.8054 90.6345 15.0447 90.5715 15.2085C90.5463 15.2715 90.4833 15.3471 90.4077 15.3723C89.4251 15.788 88.4173 15.9392 87.2331 15.4479C85.2552 14.5912 84.4238 12.2858 85.23 10.3457Z" fill="white"/>
<path d="M97.0594 8.34261C97.1728 8.16624 97.3744 8.10325 97.5507 8.21663C97.7271 8.33001 97.7775 8.54417 97.6767 8.72054L95.4217 12.4117C96.3036 11.9204 97.387 11.7692 98.5586 12.4873C100.184 13.4825 100.448 15.1581 99.5034 16.695L97.261 20.3484C97.1476 20.5373 96.9461 20.5877 96.7697 20.4744C96.5933 20.361 96.5303 20.1594 96.6437 19.9704L98.8105 16.4304C99.6168 15.1077 99.4026 13.7975 98.1176 13.0038C96.8578 12.2354 95.3083 12.6007 94.502 13.9235L92.3982 17.3627C92.2848 17.5517 92.0833 17.602 91.9069 17.4887C91.7305 17.3753 91.6675 17.1737 91.7809 16.9847L97.0594 8.34261Z" fill="white"/>
<path d="M99.8058 19.8694L99.831 19.8442C100.839 18.6474 102.426 18.8364 103.913 20.0836C104.719 20.7513 105.185 21.3182 105.613 21.9355L105.828 21.6835C106.798 20.5245 106.596 19.3277 105.412 18.3325C104.782 17.8034 104.114 17.5136 103.459 17.3372C103.396 17.3246 103.346 17.2994 103.308 17.2617C103.169 17.1483 103.157 16.9215 103.27 16.7829C103.384 16.6444 103.56 16.6444 103.636 16.6696C104.442 16.8963 105.16 17.2113 105.891 17.8286C106.672 18.4836 107.113 19.2143 107.176 19.9828C107.239 20.6883 106.999 21.3938 106.394 22.0992L103.585 25.4503C103.447 25.614 103.232 25.6392 103.081 25.5007C102.917 25.3621 102.905 25.1605 103.043 24.9967L103.648 24.2787C102.791 24.5054 101.62 24.4424 100.536 23.5228C99.453 22.6409 98.8106 21.0662 99.8058 19.8694ZM104.643 23.0945L105.198 22.4394C104.82 21.9103 104.291 21.23 103.459 20.5371C102.237 19.5167 101.116 19.4915 100.436 20.2851L100.423 20.3103C99.7176 21.1418 100.108 22.2882 100.99 23.0315C102.162 24.0267 103.774 24.1527 104.643 23.0945Z" fill="white"/>
<path d="M105.248 26.3828C105.235 26.3073 105.273 26.1813 105.361 26.0931C105.5 25.9671 105.727 25.9797 105.865 26.1183C105.928 26.1813 105.966 26.2695 105.966 26.3451C106.079 27.3025 106.407 28.1088 107.012 28.7764C107.692 29.5323 108.637 29.7465 109.292 29.1544L109.317 29.1292C109.972 28.5371 109.582 27.6174 109.09 26.6474C108.536 25.501 107.894 24.2538 108.889 23.3594L108.914 23.3342C109.808 22.5279 111.131 22.6917 112.114 23.7751C112.656 24.3798 113.071 25.2238 113.248 26.0301C113.26 26.1309 113.26 26.2821 113.134 26.3954C112.996 26.5214 112.769 26.5088 112.63 26.3703C112.567 26.3073 112.542 26.2317 112.53 26.1813C112.378 25.4506 112.063 24.7577 111.585 24.216C110.892 23.4475 110.023 23.3216 109.468 23.8381L109.443 23.8633C108.826 24.4302 109.279 25.3876 109.771 26.3954C110.338 27.5167 110.854 28.7512 109.871 29.6457L109.846 29.6709C108.851 30.5653 107.453 30.3008 106.483 29.23C105.815 28.4489 105.336 27.3403 105.248 26.3828Z" fill="white"/>
<path d="M113.575 34.3824L113.6 34.3698C114.948 33.5888 116.385 34.3068 117.355 35.995C117.871 36.902 118.123 37.5949 118.312 38.313L118.589 38.1492C119.899 37.3933 120.114 36.1965 119.345 34.8612C118.929 34.1431 118.413 33.6518 117.846 33.2612C117.796 33.2234 117.745 33.1856 117.733 33.1478C117.644 32.9967 117.707 32.7699 117.859 32.6817C118.01 32.5935 118.173 32.6439 118.236 32.6943C118.917 33.1856 119.484 33.7273 119.962 34.5588C120.466 35.4407 120.63 36.2847 120.428 37.028C120.24 37.7083 119.773 38.2878 118.98 38.7539L115.188 40.9459C114.999 41.0593 114.797 40.9963 114.696 40.8199C114.596 40.6436 114.646 40.442 114.835 40.3286L115.654 39.8625C114.772 39.7743 113.701 39.3208 112.983 38.0862C112.29 36.8642 112.227 35.1635 113.575 34.3824ZM117.014 39.0814L117.758 38.6531C117.581 38.0232 117.317 37.2044 116.775 36.2721C115.981 34.8989 114.923 34.4832 114.016 35.0123L113.991 35.0249C113.046 35.5666 113.008 36.776 113.588 37.7713C114.369 39.094 115.83 39.7617 117.014 39.0814Z" fill="white"/>
<path d="M124.636 45.0402C124.838 44.9898 125.027 45.0906 125.077 45.2921C125.128 45.4937 125.027 45.6827 124.813 45.7457L123.817 46.0102C124.699 46.2874 125.581 46.7535 125.909 48.0511C126.236 49.3235 125.707 50.2935 124.976 50.9108C125.909 51.1753 126.866 51.7548 127.219 53.128C127.66 54.8539 126.727 56.2397 124.901 56.7058L120.794 57.764C120.58 57.8144 120.403 57.7136 120.353 57.5121C120.303 57.3105 120.403 57.1215 120.618 57.0586L124.636 56.0129C126.198 55.6098 126.904 54.5642 126.564 53.2162C126.249 51.9942 125.027 51.1628 123.402 51.5911L119.471 52.6115C119.257 52.6619 119.081 52.5611 119.03 52.3596C118.98 52.158 119.081 51.969 119.295 51.906L123.351 50.8604C124.863 50.4699 125.568 49.399 125.241 48.1015C124.901 46.8039 123.502 46.0732 122.028 46.4511L118.136 47.459C117.922 47.5094 117.745 47.4086 117.695 47.207C117.644 47.0055 117.745 46.8165 117.959 46.7535L124.636 45.0402Z" fill="white"/>
<path d="M122.721 59.2885H122.746C124.309 59.1877 125.266 60.4727 125.379 62.4128C125.442 63.4584 125.354 64.1891 125.203 64.9197L125.531 64.8945C127.042 64.8064 127.773 63.8237 127.672 62.2868C127.622 61.4679 127.37 60.7876 127.042 60.1829C127.005 60.12 126.992 60.0696 126.992 60.0192C126.979 59.8428 127.131 59.6664 127.307 59.6664C127.483 59.6538 127.609 59.7798 127.647 59.8554C128.038 60.5987 128.302 61.3293 128.352 62.2868C128.415 63.2946 128.189 64.1261 127.672 64.7056C127.206 65.2347 126.526 65.537 125.606 65.6L121.247 65.8646C121.033 65.8772 120.869 65.7386 120.857 65.537C120.844 65.3355 120.983 65.1717 121.197 65.1591L122.142 65.0961C121.386 64.63 120.63 63.7481 120.542 62.312C120.466 60.9388 121.159 59.3893 122.721 59.2885ZM123.704 65.0331L124.561 64.9827C124.687 64.3402 124.812 63.4962 124.75 62.4254C124.649 60.838 123.893 59.994 122.847 60.057H122.822C121.739 60.1199 121.159 61.1908 121.235 62.3372C121.323 63.8615 122.331 65.1087 123.704 65.0331Z" fill="white"/>
<path d="M128.088 68.7621C128.289 68.7747 128.441 68.9385 128.428 69.1527C128.415 69.3542 128.252 69.5054 128.025 69.4802L126.941 69.3794C127.773 69.9589 128.39 70.8534 128.264 72.2139C128.101 74.1036 126.702 75.0863 124.913 74.9351L120.643 74.5572C120.428 74.532 120.29 74.3808 120.302 74.1666C120.315 73.9651 120.479 73.8139 120.706 73.8391L124.838 74.2044C126.375 74.343 127.471 73.5619 127.597 72.0628C127.723 70.6014 126.715 69.3668 125.165 69.2283L121.146 68.8629C120.932 68.8377 120.794 68.6865 120.806 68.4724C120.819 68.2708 120.983 68.1196 121.209 68.1448L128.088 68.7621Z" fill="white"/>
<path d="M123.716 77.1145L123.742 77.1271C125.783 77.6437 127.143 79.6845 126.601 81.8514C126.06 84.0056 123.918 85.1394 121.877 84.6103L121.852 84.5977C119.811 84.0812 118.451 82.0403 118.992 79.8735C119.534 77.7318 121.676 76.598 123.716 77.1145ZM122.003 83.8418L122.028 83.8544C123.779 84.2953 125.518 83.3379 125.946 81.6624C126.387 79.9365 125.291 78.3365 123.578 77.8956L123.553 77.883C121.802 77.4421 120.063 78.3995 119.635 80.0751C119.194 81.801 120.29 83.4009 122.003 83.8418Z" fill="white"/>
<path d="M120.378 91.8915L120.403 91.9041C121.298 92.3577 121.625 93.4915 121.197 94.3481C120.769 95.1922 119.647 95.6079 118.753 95.167L118.728 95.1544C117.833 94.7009 117.481 93.6049 117.934 92.7104C118.388 91.816 119.484 91.4506 120.378 91.8915Z" fill="white"/>
<path d="M93.3809 62.3369C92.499 60.863 91.403 59.8173 90.0298 59.1496C90.055 59.0111 90.0802 58.8851 90.1054 58.7591L90.1306 58.6709C90.244 58.041 90.2818 57.4615 90.2692 56.882C90.244 56.3025 90.1558 55.7104 89.9921 55.0427C89.8157 54.4254 89.6141 53.9089 89.3873 53.4806C88.2535 51.15 85.0159 48.7942 80.9972 48.7942C80.6696 48.7942 80.3547 48.8068 80.0397 48.8446C73.3251 49.2351 69.9488 54.0475 67.0009 58.293C64.7585 61.5558 63.8389 63.0802 63.6625 63.3699C59.6312 69.7948 56.6203 74.1159 51.3292 74.1159C51.115 74.1159 50.8883 74.1159 50.6741 74.1033C46.9073 73.8766 43.9216 71.9995 42.1831 68.2831C40.0793 63.8109 42.3721 59.515 43.7327 58.104C45.8995 55.8616 48.2805 54.753 50.9386 54.753C54.3023 54.753 56.4061 56.4159 56.4061 56.4159L59.6564 51.6287L59.3792 51.4271C58.0564 50.4193 55.1715 49.2729 51.7575 48.9958C51.3922 48.9706 51.0268 48.9454 50.6489 48.9454C44.3877 48.8824 38.3786 53.7829 36.6526 59.0741C34.9267 64.403 35.6322 69.2531 38.6683 73.4482C41.0493 76.7237 45.257 79.6716 50.4347 79.9361C50.6363 79.9487 50.8631 79.9487 51.0646 79.9487C51.2788 79.9613 51.5055 79.9487 51.7197 79.9487C60.7146 79.9487 65.0609 72.8183 68.9158 66.658L68.9788 66.5572C69.9992 64.9321 70.9693 63.3951 72.0401 61.9086C75.4919 56.9576 78.1752 54.7656 80.9972 54.5766C81.0601 54.564 81.1357 54.564 81.1861 54.564C82.6979 54.564 83.8947 55.786 84.1844 56.9702C84.2978 57.3733 84.4112 58.3812 83.4411 58.9103L83.3152 58.9733C82.4333 59.452 81.0979 60.1575 81.4255 61.6944C81.627 62.677 82.3703 63.2314 83.4411 63.2314C83.6427 63.2314 83.8317 63.2188 84.0206 63.1684C84.1088 63.1558 84.2474 63.1432 84.4364 63.1432C85.1923 63.1432 87.1071 63.3699 88.3543 65.4234C90.6975 69.2657 87.7622 72.3018 86.8426 72.8939C85.2552 73.9521 83.9703 74.3301 82.2444 73.9395C79.5862 73.3726 77.8981 71.2436 77.8855 71.2184L74.5471 75.6025L74.6604 75.7914C74.7612 75.9552 77.1296 79.8605 83.8317 79.8605C89.022 79.8605 92.1463 76.056 92.9777 74.8718C95.5477 71.2562 95.6989 66.217 93.3809 62.3369Z" fill="white"/>
<path d="M65.3884 110.398C40.0163 110.398 19.381 89.75 19.381 64.3905C19.381 39.0184 40.0163 18.3831 65.3884 18.3831C90.7479 18.3831 111.383 39.0184 111.383 64.3905C111.396 89.7626 90.7479 110.398 65.3884 110.398ZM65.3884 24.4426C43.3673 24.4426 25.428 42.3694 25.428 64.4031C25.428 86.4242 43.3547 104.351 65.3884 104.351C87.4095 104.351 105.336 86.4242 105.336 64.4031C105.336 42.3568 87.4095 24.4426 65.3884 24.4426Z" fill="white"/>
</svg>
