<?xml version="1.0" encoding="utf-8"?>
<!-- Generator: Adobe Illustrator 22.0.1, SVG Export Plug-In . SVG Version: 6.00 Build 0)  -->
<svg version="1.1" id="Layer_1" xmlns="http://www.w3.org/2000/svg" xmlns:xlink="http://www.w3.org/1999/xlink" x="0px" y="0px"
	 viewBox="0 0 800 800" style="enable-background:new 0 0 800 800;" xml:space="preserve">
<style type="text/css">
	.st0{fill:#231F20;}
</style>
<g>
	<g>
		<path class="st0" d="M202.7,568.4c1.8-1.6,4.4-1.5,6,0.3c1.6,1.8,1.4,4.4-0.4,6l-1.7,1.5c4.7-0.5,9.5,0.3,13.5,4.8
			c5.7,6.5,6.2,17.3-3,25.5l-0.1,0.1c-9.1,8.1-19.9,6.4-25.7-0.1c-4.1-4.6-4.3-9.5-3.5-13.7l-9.8,8.7c-1.8,1.6-4.4,1.4-6-0.4
			c-1.5-1.7-1.4-4.3,0.4-5.9L202.7,568.4z M211.3,600.2l0.1-0.1c5.3-4.7,5.6-11.4,1.8-15.7c-3.8-4.3-10.7-4.9-16-0.2l-0.1,0.1
			c-5.3,4.7-5.5,11.6-1.7,15.9C199.4,604.5,205.9,605,211.3,600.2z"/>
		<path class="st0" d="M223.4,612.8l0.1-0.1c6.5-8.3,18.5-10,27.4-3c8.9,7,10.1,18.9,3.6,27.2l-0.1,0.1c-6.5,8.2-18.5,9.9-27.4,2.9
			C218.2,632.9,216.9,621,223.4,612.8z M247.7,631.9l0.1-0.1c4-5.1,3.7-12.2-1.5-16.3c-5.3-4.2-12-2.7-16,2.3l-0.1,0.1
			c-4,5-3.6,12.2,1.5,16.2C237.1,638.4,243.7,636.9,247.7,631.9z"/>
		<path class="st0" d="M270.7,629.5c1.2-2.1,3.7-2.8,5.8-1.6c2.1,1.2,2.7,3.8,1.6,5.8l-1.9,3.3c4-3,8.9-4.2,12.1-2.4
			c2.3,1.3,2.8,3.6,1.5,5.7c-1.1,1.9-3.1,2.5-4.9,1.8c-5.7-2.1-11.6-0.2-15.9,7.4l-5.4,9.4c-1.1,2-3.7,2.7-5.8,1.5
			c-2-1.1-2.7-3.7-1.5-5.7L270.7,629.5z"/>
		<path class="st0" d="M308.1,665.1l0-0.1c3.2-10,13.5-15.9,24.1-12.6c5.5,1.8,8.7,4.7,10.9,8.3c0.4,0.6,0.8,1.9,0.4,3.2
			c-0.7,2.1-2.8,3.1-4.9,2.5c-1-0.3-1.7-1-2.1-1.6c-1.5-2.4-3.4-4.4-6.6-5.4c-5.9-1.9-11.8,1.8-13.7,8l0,0.1c-2,6.3,0.8,12.6,7,14.6
			c3.2,1,6.1,0.5,8.8-0.6c0.6-0.3,1.5-0.5,2.5-0.2c1.9,0.6,3,2.7,2.3,4.6c-0.3,1.1-1,1.8-1.9,2.2c-4.1,2-8.5,2.8-14.4,0.9
			C310.1,685.7,305,675,308.1,665.1z"/>
		<path class="st0" d="M346.6,684.5l0-0.1c1.2-7.9,7.9-10.8,16.8-9.5c4.1,0.6,6.9,1.7,9.6,3l0.1-0.9c0.8-5.2-2-8.4-7.9-9.3
			c-3.2-0.5-5.9-0.3-8.3,0.2c-0.5,0.1-0.9,0.1-1.3,0c-1.9-0.3-3.3-2-3-4c0.2-1.5,1.5-2.7,2.8-3c3.6-0.8,7.3-1.1,12.1-0.4
			c5.5,0.8,9.3,2.9,11.5,5.9c2.3,3,3,7.1,2.2,11.8l-2.7,17.9c-0.3,2.3-2.4,3.7-4.7,3.4c-2.4-0.4-3.8-2.3-3.5-4.1l0.2-1.4
			c-2.9,2.6-7.1,4.4-12.7,3.5C351,696.7,345.5,691.9,346.6,684.5z M372,685.7l0.4-2.5c-2-1.2-4.8-2.2-8.1-2.7
			c-5.4-0.8-8.9,1-9.5,4.8l0,0.1c-0.5,3.5,2.3,6,6.3,6.6C366.6,692.8,371.3,690.3,372,685.7z"/>
		<path class="st0" d="M392.5,667.7c0-2.4,1.9-4.2,4.3-4.2c2.4,0,4.2,2,4.2,4.3l-0.1,3.8c2-4.6,5.7-8,9.4-7.9c2.7,0,4.2,1.8,4.1,4.3
			c0,2.2-1.5,3.7-3.4,4c-6,1-10.2,5.5-10.4,14.2l-0.2,10.9c0,2.3-2,4.2-4.3,4.1c-2.3,0-4.2-1.9-4.1-4.3L392.5,667.7z"/>
		<path class="st0" d="M419.6,683l0-0.1c-1.3-10.5,5.9-20.1,17.2-21.5c11.2-1.4,20.5,6.1,21.8,16.6l0,0.1c1.3,10.4-6,20.1-17.2,21.5
			C430.2,700.9,420.9,693.4,419.6,683z M450.2,679.2l0-0.1c-0.8-6.4-6.1-11.2-12.7-10.4c-6.7,0.8-10.4,6.6-9.6,13l0,0.1
			c0.8,6.4,6.1,11.1,12.6,10.3C447.4,691.3,451,685.5,450.2,679.2z"/>
		<path class="st0" d="M479.4,642.9c-0.9-2.2,0.1-4.6,2.3-5.5c2.2-0.9,4.6,0.1,5.5,2.3l6.2,15.2c1.1-4.6,3.5-8.9,9-11.1
			c8-3.3,18.4-0.1,23,11.3l0.1,0.1c4.6,11.3-0.6,20.9-8.6,24.2c-5.7,2.3-10.4,0.9-14.1-1.3l0.7,1.7c0.9,2.1-0.2,4.6-2.4,5.5
			c-2.1,0.9-4.6-0.2-5.5-2.3L479.4,642.9z M517.6,658.5l-0.1-0.1c-2.7-6.6-8.9-9.1-14.2-7c-5.3,2.2-8.2,8.4-5.5,15l0.1,0.1
			c2.7,6.5,9.1,9,14.4,6.9C517.6,671.2,520.3,665.2,517.6,658.5z"/>
		<path class="st0" d="M559.5,657.3c-9.1,5.7-20.1,3.5-26.2-6.2l-0.1-0.1c-5.6-8.9-3.9-20.2,5.1-25.8c9.9-6.2,20-1.1,24.5,6.1
			c1.3,2,0.6,4.4-1.2,5.5L542,649.1c4,4.6,9.3,5.2,14,2.3c3-1.9,4.7-4.4,5.7-7.4c0.3-0.7,0.6-1.3,1.4-1.8c1.6-1,3.6-0.5,4.7,1.1
			c0.6,0.9,0.6,1.9,0.4,2.8C566.9,650.4,564.4,654.2,559.5,657.3z M555,634.3c-3.4-4.3-8.3-6.2-13.1-3.3c-4.4,2.7-5.3,8-3,13.3
			L555,634.3z"/>
		<path class="st0" d="M553.4,603.1c-1.4-1.8-1.2-4.4,0.6-5.9c1.8-1.5,4.5-1.2,5.9,0.6l27.2,33.7c1.5,1.8,1.2,4.4-0.7,5.9
			c-1.8,1.4-4.4,1.2-5.9-0.6L553.4,603.1z"/>
		<path class="st0" d="M567.7,591c-1.6-1.7-1.6-4.3,0.2-5.9c1.7-1.6,4.4-1.6,6,0.1l29.7,31.5c1.6,1.7,1.5,4.3-0.2,6
			c-1.7,1.6-4.3,1.6-5.9-0.2L567.7,591z"/>
		<path class="st0" d="M601.6,599.2l-0.1-0.1c-8.1-6.7-9.6-18.7-2.4-27.4c7.2-8.7,19.1-9.7,27.2-3l0.1,0.1
			c8.1,6.6,9.5,18.7,2.3,27.4C621.6,604.9,609.7,605.9,601.6,599.2z M621.2,575.4l-0.1-0.1c-5-4.1-12.1-3.9-16.3,1.2
			c-4.3,5.2-2.9,11.9,2,16l0.1,0.1c5,4.1,12.1,3.9,16.2-1.2C627.4,586.1,626.1,579.4,621.2,575.4z"/>
	</g>
	<g>
		<g>
			<path class="st0" d="M153.3,551.3l-0.1,0.1c-4.2,2.2-9.5,0.2-11.6-3.8c-2-4-0.5-9.5,3.7-11.6l0.1-0.1c4.2-2.2,9.4-0.4,11.6,3.8
				C159.2,543.9,157.5,549.1,153.3,551.3z"/>
			<path class="st0" d="M121.9,503c-1,0.3-1.9-0.2-2.1-1.2c-0.2-0.9,0.2-1.9,1.3-2.1l6.3-1.6c-5.3-1.8-10.4-5.2-12.2-12
				c-2.1-8.3,2.4-18.5,13.6-21.4l0.1,0c11.2-2.9,20.2,3.8,22.4,12.1c1.8,6.9-1,12.4-4.6,16.3l16.8-4.3c1-0.3,1.9,0.2,2.1,1.2
				c0.2,0.9-0.2,1.9-1.3,2.1L121.9,503z M130,468.2l-0.1,0c-9.1,2.3-13.3,10.1-11.4,17.3c1.8,7.2,9.6,12.5,18.4,10.3l0.1,0
				c8.9-2.3,13-10.7,11.2-17.9C146.3,470.4,139.3,465.8,130,468.2z"/>
			<path class="st0" d="M97.9,457.3c-1.2,0.2-2.2-0.6-2.4-1.8c-0.2-1.2,0.6-2.3,1.8-2.4l1.2-0.2c1.2-0.2,2.2,0.7,2.4,1.9
				s-0.6,2.2-1.8,2.4L97.9,457.3z M111.4,455c-1,0.1-1.8-0.5-2-1.4c-0.1-1,0.5-1.8,1.5-2l32.4-4.4c1-0.1,1.8,0.5,2,1.4
				c0.1,1-0.5,1.8-1.5,2L111.4,455z"/>
			<path class="st0" d="M143.5,419.8c0.3,9.3-6.9,17.7-18,18l-0.1,0c-10.3,0.3-18.8-6.7-19.1-16.3c-0.3-10,7.7-16.6,17.9-16.9
				c0.8,0,1.6,0.8,1.7,1.6l0.9,27.9c8.8-0.9,13.8-7.4,13.6-14.4c-0.2-5.1-2.4-8.6-5.2-11.4c-0.3-0.3-0.5-0.6-0.5-1.1
				c0-0.9,0.6-1.7,1.6-1.7c0.3,0,0.8,0.1,1.2,0.5C140.9,409.5,143.3,413.4,143.5,419.8z M122.8,408.4c-7.2,0.7-13.7,5-13.4,13.2
				c0.2,7,6.3,12.3,14.2,12.7L122.8,408.4z"/>
			<path class="st0" d="M141.1,398.9L141.1,398.9c-0.6-0.1-1-0.3-1.5-0.8l-26.7-27.9l-2.6,23.3c-0.1,0.8-0.9,1.5-1.7,1.4
				c-0.8-0.1-1.5-0.9-1.4-1.7l2.9-26.6c0.1-0.8,0.9-1.5,1.6-1.4l0.1,0c0.6,0.1,0.9,0.3,1.4,0.8l26.7,27.9l2.7-24.3
				c0.1-0.8,0.9-1.5,1.7-1.4c0.8,0.1,1.5,0.9,1.4,1.7l-3,27.5C142.6,398.2,141.8,398.9,141.1,398.9z"/>
			<path class="st0" d="M136.8,360.3l-0.1,0c-7.2-1.9-9.6-9-7.3-18c1.2-4.8,2.7-8,4.4-11l-1.5-0.4c-7-1.8-11.6,1.5-13.5,8.6
				c-1,3.8-0.9,7.2-0.2,10.4c0.1,0.3,0.1,0.6,0,0.8c-0.2,0.8-1.1,1.4-2,1.2c-0.8-0.2-1.2-1-1.2-1.3c-0.6-3.9-0.8-7.6,0.4-12
				c1.2-4.7,3.4-8,6.6-9.9c2.9-1.7,6.4-2.1,10.6-1l20.1,5.2c1,0.3,1.5,1.1,1.3,2.1c-0.2,0.9-1.1,1.4-2.1,1.2l-4.3-1.1
				c2.7,3.2,4.8,8.3,3.1,14.9C149.4,356.2,144,362.2,136.8,360.3z M140.8,333l-3.9-1c-1.5,2.7-3.3,6.4-4.6,11.3
				c-1.9,7.3,0.3,12.2,5.1,13.4l0.1,0c5,1.3,9.1-2.7,10.5-8C149.8,341.8,147,334.7,140.8,333z"/>
			<path class="st0" d="M153.6,323.8c-0.3,0.2-0.9,0.3-1.5,0.1c-0.8-0.3-1.3-1.3-0.9-2.2c0.2-0.4,0.4-0.7,0.7-0.9
				c3.9-2.4,6.6-5.5,8.3-9.4c1.8-4.5,0.8-8.9-3-10.5l-0.1-0.1c-3.9-1.6-7,2-10.2,6c-3.8,4.7-7.8,10-13.7,7.6l-0.1-0.1
				c-5.3-2.2-7.3-8.2-4.6-14.6c1.5-3.6,4.2-7,7.3-9.4c0.4-0.3,1.1-0.5,1.8-0.3c0.8,0.3,1.3,1.3,0.9,2.2c-0.2,0.4-0.4,0.7-0.6,0.8
				c-2.8,2.2-5.2,4.9-6.5,8.1c-1.9,4.5-0.6,8.5,2.7,9.8l0.1,0.1c3.7,1.5,6.9-2.4,10.2-6.5c3.7-4.7,7.9-9.4,13.7-7.1l0.1,0.1
				c5.9,2.4,7.6,9,5,15.3C161.3,317.2,157.5,321.5,153.6,323.8z"/>
			<path class="st0" d="M154.3,240.2c-0.2-0.2-0.4-0.4-0.5-0.7l-2.9-7.3c-0.4-0.9-0.4-1.6,0.1-2.3c0.8-1.1,2.4-1.9,3-1.5
				c0.3,0.2,0.5,0.8,0.6,1.3l1.2,7.7c0.2,1.1,0,1.6-0.5,2.4C155,240.2,154.5,240.4,154.3,240.2z M196.8,250c0.8,0.6,1,1.6,0.5,2.4
				s-1.6,1-2.4,0.4l-4.2-2.9c2.1,4.3,2.5,9.5-1.2,14.8c-5.1,7.4-13.2,8.2-20.2,3.3l-16.7-11.6c-0.9-0.6-1-1.6-0.5-2.4
				c0.6-0.8,1.6-1,2.4-0.4l16.2,11.2c6,4.2,12.3,3.6,16.4-2.4c4-5.7,2.7-13.2-3.4-17.4L168,234.1c-0.9-0.6-1-1.6-0.5-2.4
				s1.6-1,2.4-0.4L196.8,250z"/>
			<path class="st0" d="M180.4,218.6c-0.7-0.7-0.8-1.7-0.1-2.4c0.7-0.7,1.7-0.8,2.5-0.1l3.7,3.6c-1.4-4.6-1-9.8,3.5-14.5
				c6.2-6.5,14.3-6.1,20.4-0.2l14.7,14c0.8,0.7,0.8,1.7,0.1,2.4c-0.7,0.7-1.7,0.8-2.5,0.1l-14.3-13.6c-5.3-5.1-11.6-5.4-16.6-0.2
				c-4.8,5.1-4.7,12.6,0.7,17.7l13.8,13.2c0.8,0.7,0.8,1.7,0.1,2.4c-0.7,0.7-1.7,0.8-2.5,0.1L180.4,218.6z"/>
			<path class="st0" d="M203.9,176.4c-0.8-0.9-0.7-2.2,0.3-3c0.9-0.8,2.2-0.7,3,0.2l0.8,0.9c0.8,0.9,0.6,2.2-0.3,3
				c-0.9,0.8-2.2,0.7-3-0.3L203.9,176.4z M213,186.6c-0.6-0.7-0.6-1.8,0.2-2.4c0.7-0.6,1.8-0.6,2.5,0.2l21,25
				c0.7,0.8,0.6,1.8-0.2,2.4c-0.7,0.6-1.8,0.6-2.5-0.2L213,186.6z"/>
			<path class="st0" d="M235.1,189.4l-0.1-0.1c-5.6-8.3-3.9-19.9,4.6-25.6c5.1-3.4,9.9-3.5,14.3-2.8c0.4,0.1,0.8,0.4,1.1,0.8
				c0.5,0.8,0.3,1.9-0.5,2.4c-0.3,0.2-0.8,0.4-1.2,0.3c-3.9-0.6-8-0.7-11.9,2c-6.7,4.5-8.1,13.7-3.3,20.7l0.1,0.1
				c4.8,7.1,14,9.1,20.8,4.6c3.8-2.6,5.6-6.5,6.4-10.5c0.1-0.4,0.2-0.8,0.6-1.1c0.7-0.5,1.9-0.2,2.3,0.4c0.2,0.3,0.3,0.7,0.2,1.1
				c-0.9,5-2.9,9.4-7.9,12.8C252,200.3,240.7,197.6,235.1,189.4z"/>
			<path class="st0" d="M271.9,173.9l-0.1-0.1c-3.2-6.7,0.7-13.2,9-17.2c4.5-2.2,7.8-3.1,11.3-3.7l-0.7-1.4
				c-3.1-6.5-8.7-7.9-15.3-4.7c-3.5,1.7-6.1,4-8.1,6.5c-0.2,0.2-0.4,0.4-0.6,0.5c-0.8,0.4-1.8,0-2.1-0.7c-0.4-0.8,0-1.5,0.2-1.8
				c2.6-3,5.3-5.5,9.4-7.5c4.3-2.1,8.4-2.6,11.8-1.4c3.2,1.1,5.7,3.5,7.6,7.5l9,18.7c0.5,0.9,0.1,1.9-0.8,2.3
				c-0.9,0.4-1.8,0.1-2.3-0.8l-1.9-4c-0.7,4.1-3.2,9.1-9.3,12C283.2,180.8,275.1,180.5,271.9,173.9z M295.3,159.3l-1.8-3.6
				c-3,0.6-7,1.6-11.6,3.8c-6.8,3.3-9.1,8.1-7,12.6l0.1,0.1c2.2,4.7,7.9,5.2,12.8,2.9C294.5,171.8,298.1,165.1,295.3,159.3z"/>
			<path class="st0" d="M310.7,163.1c-0.3-0.1-0.8-0.5-1-1.1c-0.3-0.9,0.2-1.8,1.1-2.1c0.4-0.1,0.8-0.1,1.2,0
				c4.3,1.4,8.5,1.5,12.5,0.2c4.6-1.5,7.4-5.2,6.1-9.1l0-0.1c-1.3-4-6-4.1-11.2-3.9c-6,0.2-12.7,0.5-14.6-5.5l0-0.1
				c-1.8-5.4,1.6-10.8,8.1-13c3.7-1.2,8.1-1.3,11.9-0.5c0.5,0.1,1.1,0.5,1.3,1.2c0.3,0.9-0.2,1.8-1.1,2.1c-0.4,0.1-0.8,0.1-1,0
				c-3.5-0.8-7.1-0.8-10.3,0.3c-4.7,1.5-6.9,5-5.8,8.4l0,0.1c1.2,3.8,6.3,3.7,11.6,3.5c5.9-0.2,12.3-0.1,14.2,5.9l0,0.1
				c2,6-2,11.6-8.5,13.7C320.7,164.7,315,164.6,310.7,163.1z"/>
			<path class="st0" d="M364.1,128.3l0-0.1c-0.5-4.7,3.1-9,7.6-9.5c4.4-0.5,9,2.8,9.6,7.5l0,0.1c0.5,4.7-2.9,9-7.6,9.5
				C368.9,136.4,364.6,133,364.1,128.3z"/>
			<path class="st0" d="M421.6,100.5c0.1-1,0.9-1.7,1.8-1.6c1,0.1,1.7,0.9,1.6,1.9l-2,20.4c2.8-3.9,7.1-6.8,13.5-6.2
				c9,0.9,13.6,7.5,12.7,16l-2,20.2c-0.1,1-0.9,1.7-1.8,1.6s-1.7-0.9-1.6-1.9l1.9-19.6c0.7-7.3-2.9-12.5-10.1-13.2
				c-6.9-0.7-12.8,4.1-13.5,11.4l-1.9,19c-0.1,1-0.9,1.7-1.8,1.6c-1-0.1-1.7-0.9-1.6-1.9L421.6,100.5z"/>
			<path class="st0" d="M471.8,159.2c-9.1-2.3-15.1-11.6-12.3-22.3l0-0.1c2.6-10,11.6-16.2,21-13.8c9.7,2.5,13.8,12,11.3,21.9
				c-0.2,0.8-1.2,1.3-2,1.1l-27-6.9c-1.6,8.7,3.3,15.3,10,17c4.9,1.3,8.9,0.1,12.4-1.9c0.3-0.2,0.7-0.3,1.2-0.2
				c0.9,0.2,1.5,1.1,1.2,2c-0.1,0.3-0.3,0.7-0.8,1C482.4,159.6,478,160.8,471.8,159.2z M488.5,142.5c1.3-7.1-1-14.5-8.9-16.6
				c-6.8-1.7-13.6,2.6-16.1,10.1L488.5,142.5z"/>
			<path class="st0" d="M499.7,148l0.1-0.1c3.9-9.2,14.6-14.1,24-10.1c5.7,2.4,8.4,6.4,10.2,10.4c0.1,0.4,0.2,0.9,0,1.3
				c-0.4,0.9-1.4,1.3-2.3,0.9c-0.4-0.2-0.8-0.5-0.9-0.8c-1.6-3.6-3.8-7-8.2-8.9c-7.5-3.1-15.9,0.7-19.2,8.5l-0.1,0.1
				c-3.3,7.9,0,16.7,7.5,19.9c4.2,1.8,8.5,1.2,12.3-0.4c0.4-0.1,0.8-0.3,1.2-0.1c0.8,0.3,1.2,1.4,0.9,2.2c-0.1,0.3-0.4,0.7-0.8,0.8
				c-4.7,2-9.5,2.7-15.1,0.3C499.8,168.1,495.8,157.2,499.7,148z"/>
			<path class="st0" d="M555.7,138.5c0.5-0.8,1.5-1.1,2.3-0.6c0.8,0.5,1.1,1.6,0.6,2.4l-10.7,17.5c4.2-2.3,9.3-3.1,14.9,0.3
				c7.7,4.7,8.9,12.7,4.5,19.9l-10.6,17.3c-0.5,0.9-1.5,1.1-2.3,0.6c-0.8-0.5-1.1-1.5-0.6-2.4l10.3-16.8c3.8-6.2,2.8-12.5-3.3-16.3
				c-6-3.6-13.3-1.9-17.2,4.4l-10,16.3c-0.5,0.9-1.5,1.1-2.3,0.6c-0.8-0.5-1.1-1.5-0.6-2.4L555.7,138.5z"/>
			<path class="st0" d="M568.8,193.1l0.1-0.1c4.8-5.7,12.3-4.8,19.4,1.1c3.8,3.2,6,5.9,8,8.8l1-1.2c4.6-5.5,3.6-11.2-2-15.9
				c-3-2.5-6.1-3.9-9.3-4.7c-0.3-0.1-0.6-0.2-0.7-0.3c-0.6-0.5-0.7-1.6-0.2-2.3c0.5-0.6,1.4-0.7,1.7-0.5c3.8,1.1,7.2,2.6,10.7,5.5
				c3.7,3.1,5.8,6.6,6.1,10.2c0.3,3.3-0.9,6.7-3.7,10l-13.3,15.9c-0.7,0.8-1.7,0.9-2.4,0.3c-0.7-0.6-0.8-1.6-0.2-2.4l2.9-3.4
				c-4.1,1-9.6,0.8-14.8-3.6C567.1,206.2,564,198.8,568.8,193.1z M591.7,208.4l2.6-3.1c-1.8-2.5-4.3-5.7-8.2-9
				c-5.8-4.8-11.1-5-14.3-1.2l-0.1,0.1c-3.3,4-1.5,9.4,2.7,12.9C579.9,212.8,587.5,213.4,591.7,208.4z"/>
			<path class="st0" d="M594.6,224c0-0.3,0.1-1,0.6-1.4c0.7-0.6,1.8-0.6,2.4,0.1c0.3,0.3,0.5,0.7,0.5,1.1c0.5,4.5,2.1,8.4,5,11.5
				c3.2,3.6,7.7,4.6,10.8,1.8l0.1-0.1c3.1-2.8,1.2-7.2-1.1-11.8c-2.7-5.4-5.7-11.3-1-15.6l0.1-0.1c4.2-3.8,10.5-3,15.2,2.1
				c2.6,2.8,4.5,6.8,5.4,10.7c0.1,0.5,0,1.2-0.5,1.7c-0.7,0.6-1.8,0.6-2.4-0.1c-0.3-0.3-0.4-0.7-0.4-0.9c-0.7-3.5-2.2-6.8-4.5-9.3
				c-3.3-3.6-7.4-4.2-10-1.8l-0.1,0.1c-2.9,2.7-0.8,7.2,1.5,12c2.7,5.3,5.1,11.2,0.5,15.4l-0.1,0.1c-4.7,4.3-11.4,3-16-2.1
				C597.2,233.8,595,228.5,594.6,224z"/>
			<path class="st0" d="M634.1,261.9l0.1-0.1c6.4-3.7,13.2-0.3,17.8,7.7c2.5,4.3,3.6,7.6,4.6,11l1.3-0.8c6.2-3.6,7.2-9.3,3.6-15.6
				c-2-3.4-4.4-5.7-7.1-7.6c-0.3-0.2-0.5-0.4-0.6-0.6c-0.4-0.7-0.1-1.8,0.6-2.2c0.7-0.4,1.5-0.2,1.8,0.1c3.2,2.3,5.9,4.9,8.2,8.8
				c2.4,4.2,3.2,8.2,2.2,11.7c-0.9,3.2-3.1,6-6.9,8.2l-18,10.4c-0.9,0.5-1.9,0.3-2.4-0.6c-0.5-0.8-0.2-1.8,0.7-2.3l3.9-2.2
				c-4.2-0.4-9.3-2.5-12.7-8.4C627.9,273.7,627.7,265.6,634.1,261.9z M650.4,284.2l3.5-2c-0.8-3-2.1-6.8-4.6-11.3
				c-3.8-6.5-8.8-8.5-13.1-6l-0.1,0.1c-4.5,2.6-4.6,8.3-1.9,13C637.8,284.3,644.8,287.4,650.4,284.2z"/>
			<path class="st0" d="M686.5,312.4c0.9-0.2,1.9,0.2,2.1,1.2c0.2,0.9-0.2,1.9-1.3,2.1l-4.7,1.2c4.2,1.3,8.3,3.5,9.9,9.7
				c1.6,6-0.9,10.6-4.4,13.5c4.4,1.2,9,4,10.6,10.5c2.1,8.2-2.3,14.7-11,17l-19.5,5c-1,0.3-1.9-0.2-2.1-1.2s0.2-1.9,1.3-2.1
				l19.1-4.9c7.4-1.9,10.8-6.9,9.1-13.2c-1.5-5.8-7.3-9.7-15-7.7l-18.6,4.8c-1,0.3-1.9-0.2-2.1-1.2c-0.2-0.9,0.2-1.9,1.3-2.1l19.3-5
				c7.2-1.9,10.5-6.9,8.9-13.1s-8.3-9.6-15.2-7.8l-18.4,4.8c-1,0.3-1.9-0.2-2.1-1.2c-0.2-0.9,0.2-1.9,1.3-2.1L686.5,312.4z"/>
			<path class="st0" d="M677.4,380l0.1,0c7.4-0.4,12,5.6,12.5,14.8c0.3,4.9-0.1,8.4-0.8,11.9l1.5-0.1c7.2-0.4,10.6-5,10.2-12.4
				c-0.2-3.9-1.4-7.1-3-10c-0.2-0.3-0.2-0.5-0.3-0.8c-0.1-0.8,0.7-1.6,1.5-1.7c0.8-0.1,1.4,0.5,1.6,0.9c1.8,3.5,3.1,7,3.4,11.5
				c0.3,4.8-0.8,8.7-3.2,11.5c-2.2,2.5-5.4,4-9.8,4.2l-20.7,1.3c-1,0.1-1.8-0.6-1.8-1.6c-0.1-1,0.6-1.7,1.6-1.8l4.5-0.3
				c-3.6-2.2-7.2-6.4-7.6-13.2C666.7,387.8,670,380.5,677.4,380z M682.1,407.2l4-0.2c0.6-3,1.2-7.1,0.9-12.2
				c-0.5-7.5-4.1-11.5-9-11.2l-0.1,0c-5.2,0.3-7.9,5.4-7.5,10.8C670.7,401.7,675.6,407.6,682.1,407.2z"/>
			<path class="st0" d="M702.8,424.9c1,0.1,1.7,0.9,1.6,1.8c-0.1,1-0.9,1.7-1.9,1.6l-5.1-0.5c4,2.7,6.9,7,6.3,13.5
				c-0.8,9-7.4,13.6-15.9,12.9l-20.2-1.8c-1-0.1-1.7-0.9-1.6-1.8c0.1-1,0.9-1.7,1.9-1.6l19.6,1.8c7.3,0.7,12.5-3,13.1-10.2
				c0.6-7-4.2-12.8-11.6-13.4l-19.1-1.7c-1-0.1-1.7-0.9-1.6-1.8c0.1-1,0.9-1.7,1.9-1.6L702.8,424.9z"/>
			<path class="st0" d="M682.1,464.5l0.1,0c9.7,2.5,16.2,12.1,13.5,22.4c-2.6,10.2-12.7,15.6-22.4,13.1l-0.1,0
				c-9.7-2.5-16.2-12.1-13.5-22.4C662.3,467.4,672.4,462.1,682.1,464.5z M674,496.4l0.1,0c8.3,2.1,16.5-2.4,18.6-10.4
				c2.1-8.2-3.1-15.8-11.2-17.8l-0.1,0c-8.3-2.1-16.5,2.4-18.6,10.4C660.7,486.8,665.9,494.3,674,496.4z"/>
			<path class="st0" d="M666.3,534.6l0.1,0.1c4.2,2.1,5.8,7.5,3.8,11.6c-2,4-7.3,6-11.6,3.9l-0.1-0.1c-4.2-2.1-5.9-7.4-3.8-11.6
				C656.8,534.2,662,532.5,666.3,534.6z"/>
		</g>
	</g>
	<g>
		<g>
			<path class="st0" d="M538.3,394.5c-4.2-7-9.4-11.9-15.9-15.1c0.1-0.7,0.2-1.2,0.3-1.8l0.1-0.4c0.5-3,0.7-5.7,0.7-8.5
				c-0.1-2.7-0.5-5.5-1.3-8.7c-0.8-2.9-1.8-5.4-2.8-7.4c-5.4-11.1-20.7-22.2-39.8-22.2c-1.5,0-3.1,0.1-4.5,0.2
				c-31.8,1.8-47.8,24.6-61.8,44.8c-10.6,15.4-15,22.7-15.8,24.1c-19.1,30.4-33.4,50.9-58.4,50.9c-1,0-2.1,0-3.1,0
				c-17.9-1.1-32-10-40.3-27.6c-10-21.2,0.9-41.6,7.3-48.3c10.3-10.6,21.6-15.9,34.2-15.9c15.9,0,25.9,7.9,25.9,7.9l15.4-22.7
				l-1.3-1c-6.3-4.8-19.9-10.2-36.2-11.5c-1.7-0.1-3.5-0.2-5.3-0.2c-29.7-0.3-58.2,23-66.4,48c-8.2,25.3-4.8,48.3,9.6,68.1
				c11.3,15.5,31.2,29.5,55.8,30.8c1,0,2.1,0.1,3,0.1c1,0.1,2.1,0,3.1,0c42.6,0,63.3-33.8,81.5-63l0.3-0.5c4.8-7.7,9.4-15,14.5-22
				c16.4-23.5,29.1-33.9,42.5-34.8c0.3-0.1,0.7-0.1,0.9-0.1c7.1,0,12.8,5.8,14.2,11.4c0.5,1.9,1.1,6.7-3.5,9.2l-0.6,0.3
				c-4.2,2.2-10.5,5.6-9,12.9c1,4.7,4.5,7.3,9.6,7.3c1,0,1.8-0.1,2.7-0.3c0.4-0.1,1.1-0.1,2-0.1c3.6,0,12.7,1.1,18.6,10.8
				c11.1,18.2-2.8,32.6-7.2,35.4c-7.5,5-13.6,6.8-21.8,5c-12.6-2.7-20.6-12.8-20.6-12.9l-15.8,20.8l0.5,0.9
				c0.5,0.8,11.7,19.3,43.5,19.3c24.6,0,39.4-18,43.4-23.6C548.6,436.7,549.3,412.8,538.3,394.5z"/>
			<path class="st0" d="M405.6,622.3c-120.3,0-218.1-97.9-218.1-218.1c0-120.3,97.9-218.1,218.1-218.1
				c120.2,0,218.1,97.9,218.1,218.1C623.7,524.5,525.8,622.3,405.6,622.3z M405.6,214.8c-104.4,0-189.5,85-189.5,189.5
				c0,104.4,85,189.4,189.5,189.4c104.4,0,189.4-85,189.4-189.4C595,299.7,510,214.8,405.6,214.8z"/>
		</g>
	</g>
</g>
</svg>
