<svg xmlns="http://www.w3.org/2000/svg" viewBox="0 0 340 339.89"><defs><style>.cls-1{fill:#fff;}.cls-2{fill:#585856;}.cls-3{fill:#706f6e;}.cls-4{fill:#b8ed17;}</style></defs><g id="Capa_2" data-name="Capa 2"><g id="Capa_1-2" data-name="Capa 1"><rect class="cls-1" width="340" height="339.89" transform="translate(340 339.89) rotate(-180)"/><ellipse cx="64.74" cy="77.18" rx="14.39" ry="14.39"/><ellipse cx="275.26" cy="77.18" rx="14.39" ry="14.39"/><circle class="cls-1" cx="69.03" cy="73.52" r="5.28"/><circle class="cls-1" cx="279.94" cy="73.52" r="5.28"/><path d="M35.56,64.22a11.7,11.7,0,0,0,10-5.53,22.41,22.41,0,0,1,32.29-6.32A11.69,11.69,0,0,0,91.6,33.48a45.82,45.82,0,0,0-66,12.9,11.69,11.69,0,0,0,9.93,17.84Z"/><path d="M305.73,64.22a11.69,11.69,0,0,0,9.93-17.84,45.81,45.81,0,0,0-66-12.9,11.69,11.69,0,1,0,13.78,18.89,22.41,22.41,0,0,1,32.29,6.32A11.7,11.7,0,0,0,305.73,64.22Z"/><path d="M37.61,189.89a135.67,135.67,0,0,1,89.72-99.66v39.62l-10.74,10.57a10.45,10.45,0,0,0,7.34,17.9h14.44a42.59,42.59,0,0,0,31.63,14h0a42.59,42.59,0,0,0,31.63-14h14.44a10.45,10.45,0,0,0,7.34-17.9l-10.74-10.57V90.23a135.67,135.67,0,0,1,89.72,99.66A38.74,38.74,0,0,1,340,228.6V339.89H0V228.6A38.74,38.74,0,0,1,37.61,189.89Z"/><rect class="cls-2" x="137.49" y="153.6" width="65.01" height="150.55" rx="32.51" transform="translate(-58.87 398.87) rotate(-90)"/><path class="cls-3" d="M212.76,196.37h-8.67a51.58,51.58,0,0,1,9.77,65,32.51,32.51,0,0,0,31.42-32.49h0A32.51,32.51,0,0,0,212.76,196.37Z"/><path class="cls-3" d="M118.09,234.76a51.41,51.41,0,0,1,17.15-38.39h-8a32.51,32.51,0,0,0-32.52,32.5h0a32.52,32.52,0,0,0,30.73,32.46A51.36,51.36,0,0,1,118.09,234.76Z"/><path d="M132.6,230.91a37.33,37.33,0,0,0,15.72,30.47h43.36a37.39,37.39,0,0,0-7.34-65H155.66A37.39,37.39,0,0,0,132.6,230.91Z"/><path class="cls-4" d="M167.2,210.18v-9.54h5.6v9.85a21.15,21.15,0,0,0,2.46,9.92,5.95,5.95,0,1,1-10.5,0A21.32,21.32,0,0,0,167.2,210.18Z"/><path class="cls-1" d="M116.61,199.23c0-.31,0-.63,0-.94a32.54,32.54,0,0,1,10.59-1.76h85.52a32.54,32.54,0,0,1,10.59,1.76c0,.31,0,.63,0,.94A13.56,13.56,0,0,1,196.55,202,13.56,13.56,0,0,1,170,202a13.56,13.56,0,0,1-26.55,0,13.56,13.56,0,0,1-26.84-2.76Z"/><path class="cls-1" d="M223.39,258.82c0,.32,0,.63,0,.94a32.54,32.54,0,0,1-10.59,1.77H127.24a32.54,32.54,0,0,1-10.59-1.77c0-.31,0-.62,0-.94a13.56,13.56,0,0,1,26.84-2.76,13.56,13.56,0,0,1,26.55,0,13.56,13.56,0,0,1,26.55,0,13.56,13.56,0,0,1,26.84,2.76Z"/></g></g></svg>