<svg width="216" height="216" viewBox="0 0 216 216" fill="none" xmlns="http://www.w3.org/2000/svg">
<path d="M2.17009 2.09995C0.230088 4.03995 0.230088 7.19995 2.17009 9.13995L32.6801 39.65C29.9601 44.51 29.5501 50.4 31.8301 55.71L32.4501 57.15C34.4101 61.73 34.6201 66.85 33.0501 71.57L30.8001 78.33C30.2001 80.12 30.6701 82.09 32.0001 83.4299L45.0501 96.4799C46.5001 97.9299 48.6901 98.34 50.5701 97.52C50.7401 97.45 67.4601 90.28 72.2701 101C73.1701 103.02 73.9901 105.03 74.8101 107.03C79.5901 118.75 84.5301 130.86 104.43 143.42C114.48 149.76 122.38 155.43 129.31 161.27C137.19 167.91 146.01 180.1 147.12 188.99L147.82 194.56C146.98 197.48 147.75 200.73 149.96 202.94L159.96 212.94C161.59 214.57 163.86 215.47 166.17 215.42C167.45 215.39 168.67 214.87 169.58 213.96L214.04 169.49C214.95 168.58 215.47 167.36 215.5 166.09C215.5 166.02 215.5 165.96 215.5 165.89C215.5 163.64 214.6 161.46 213.01 159.87L203.02 149.88C200.81 147.67 197.57 146.89 194.64 147.74L189.07 147.04C180.17 145.93 167.99 137.11 161.35 129.23C155.52 122.3 149.85 114.4 143.5 104.35C130.95 84.45 118.83 79.5099 107.11 74.7299C105.11 73.91 103.1 73.09 101.08 72.19C90.4601 67.43 97.2801 51.24 97.6001 50.48C98.4201 48.6 98.0001 46.42 96.5601 44.97L95.7301 44.14L85.1701 33.58C85.1701 33.58 85.1701 33.58 85.1701 33.57C85.1701 33.57 85.1701 33.57 85.1601 33.57L83.5101 31.92C82.1701 30.59 80.2001 30.12 78.4101 30.72L71.6501 32.97C66.9301 34.54 61.8101 34.33 57.2301 32.37L55.7901 31.75C50.4701 29.47 44.5801 29.88 39.7201 32.6L9.21009 2.09995C7.27009 0.149951 4.11009 0.149951 2.17009 2.09995ZM85.1601 47.67L47.7401 85.09L44.2201 81.57L81.6401 44.15L85.1601 47.67ZM41.6001 53.24L40.9801 51.8C39.6401 48.66 40.3301 45.09 42.7301 42.68C45.1401 40.27 48.7201 39.58 51.8501 40.93L53.2901 41.55C57.9401 43.54 62.9701 44.23 67.9301 43.78L43.8201 67.89C44.2801 62.91 43.5901 57.88 41.6001 53.24ZM204.25 165.2L165.28 204.18L159.87 198.77L198.85 159.79L204.25 165.2ZM97.0001 81.28C99.1301 82.2299 101.24 83.1 103.35 83.95C114.55 88.52 124.23 92.47 135.08 109.66C141.67 120.11 147.6 128.36 153.73 135.65C161.66 145.06 175.83 155.34 187.67 156.9L156.98 187.59C155.42 175.75 145.14 161.58 135.73 153.65C128.44 147.51 120.19 141.59 109.75 135C92.5501 124.15 88.6101 114.47 84.0401 103.27C83.1801 101.16 82.3201 99.0499 81.3701 96.9299C77.3401 87.9299 69.4401 85.1699 61.7601 85.1799L85.2801 61.66C85.2401 69.35 88.0001 77.24 97.0001 81.28Z" fill="white"/>
<path d="M214.04 2.0999C212.1 0.159897 208.94 0.159897 207 2.0999L176.49 32.6099C171.63 29.8899 165.74 29.4799 160.43 31.7599L158.99 32.3799C154.41 34.3399 149.29 34.5499 144.57 32.9799L137.81 30.7299C136.02 30.1299 134.05 30.5999 132.71 31.9299L119.66 44.9799C118.21 46.4299 117.8 48.6199 118.62 50.4999C118.69 50.6699 125.86 67.3899 115.14 72.1999C113.12 73.0999 111.11 73.9199 109.11 74.7399C97.39 79.5199 85.28 84.4599 72.72 104.36C66.38 114.41 60.71 122.31 54.87 129.24C48.23 137.12 36.04 145.94 27.15 147.05L21.58 147.75C18.66 146.91 15.41 147.68 13.2 149.89L3.19999 159.89C1.56999 161.52 0.669995 163.79 0.719995 166.1C0.749995 167.38 1.26999 168.6 2.17999 169.51L46.65 213.97C47.56 214.88 48.78 215.4 50.05 215.43C50.12 215.43 50.18 215.43 50.25 215.43C52.5 215.43 54.68 214.53 56.27 212.94L66.26 202.95C68.47 200.74 69.25 197.5 68.4 194.57L69.1 189C70.21 180.1 79.03 167.92 86.91 161.28C93.84 155.45 101.74 149.78 111.79 143.43C131.69 130.88 136.63 118.76 141.41 107.04C142.23 105.04 143.05 103.03 143.95 101.01C148.71 90.3899 164.9 97.2099 165.66 97.5299C167.54 98.3499 169.72 97.9299 171.17 96.4899L172 95.6599L182.56 85.0999C182.56 85.0999 182.56 85.0999 182.57 85.0999C182.57 85.0999 182.57 85.0999 182.57 85.0899L184.22 83.4399C185.55 82.0999 186.02 80.1299 185.42 78.3399L183.17 71.5799C181.6 66.8599 181.81 61.7399 183.77 57.1599L184.39 55.7199C186.67 50.3999 186.26 44.5099 183.54 39.6499L214.05 9.1399C215.98 7.1999 215.98 4.0399 214.04 2.0999ZM168.47 85.0899L131.05 47.6699L134.57 44.1499L171.99 81.5699L168.47 85.0899ZM162.9 41.5299L164.34 40.9099C167.48 39.5699 171.05 40.2599 173.46 42.6599C175.87 45.0699 176.56 48.6499 175.21 51.7799L174.59 53.2199C172.6 57.8699 171.91 62.8999 172.36 67.8599L148.25 43.7499C153.23 44.2099 158.25 43.5199 162.9 41.5299ZM50.93 204.18L11.96 165.2L17.37 159.79L56.35 198.77L50.93 204.18ZM134.86 96.9299C133.91 99.0599 133.04 101.17 132.19 103.28C127.62 114.48 123.67 124.16 106.48 135.01C96.03 141.6 87.78 147.53 80.49 153.66C71.08 161.59 60.8 175.76 59.24 187.6L28.55 156.9C40.39 155.34 54.56 145.06 62.49 135.65C68.63 128.36 74.55 120.11 81.14 109.67C91.99 92.4699 101.67 88.5299 112.87 83.9599C114.98 83.0999 117.09 82.2399 119.21 81.2899C128.21 77.2599 130.97 69.3599 130.96 61.6799L154.48 85.1999C146.78 85.1699 138.89 87.9299 134.86 96.9299Z" fill="black"/>
<path d="M134.86 96.9299C133.91 99.0599 133.04 101.17 132.19 103.28C127.62 114.48 123.67 124.16 106.48 135.01C96.03 141.6 87.7801 147.53 80.4901 153.66C71.0801 161.59 60.8 175.76 59.24 187.6L28.55 156.9C40.39 155.34 54.5601 145.06 62.4901 135.65C68.6301 128.36 74.55 120.11 81.14 109.67C91.99 92.4699 101.67 88.5299 112.87 83.9599C114.98 83.0999 117.09 82.2399 119.21 81.2899C128.21 77.2599 130.97 69.3599 130.96 61.6799L154.48 85.1999C146.78 85.1699 138.89 87.9299 134.86 96.9299Z" fill="#E6E6E6"/>
</svg>
